<?xml version="1.0" encoding="UTF-8"?>
<svg id="Layer_2" data-name="Layer 2" xmlns="http://www.w3.org/2000/svg" viewBox="0 0 150.48 39.08">
  <defs>
    <style>
      .cls-1 {
        fill: #000;
      }

      .cls-1, .cls-2, .cls-3, .cls-4, .cls-5 {
        stroke-width: 0px;
      }

      .cls-2 {
        fill: #231f20;
      }

      .cls-3 {
        fill: #f5ca33;
      }

      .cls-4 {
        fill: #e2742a;
      }

      .cls-5 {
        fill: #e5a3c9;
        opacity: .11;
      }
    </style>
  </defs>
  <g id="Layer_1-2" data-name="Layer 1">
    <g>
      <g>
        <path class="cls-2" d="M52.2,1.78c1.61,0,2.93.31,3.97.93,1.03.62,1.85,1.55,2.45,2.8.6,1.25,1.01,2.81,1.24,4.68.23,1.87.34,4.06.34,6.55,0,2.67-.12,5-.37,6.99-.25,1.99-.67,3.66-1.27,4.99-.6,1.33-1.42,2.33-2.45,2.99-1.03.66-2.33.99-3.91.99s-2.94-.34-4-1.01c-1.05-.67-1.89-1.67-2.5-3.01s-1.04-3-1.29-4.99c-.25-1.99-.37-4.31-.37-6.96,0-2.48.14-4.65.42-6.52.28-1.87.73-3.43,1.36-4.68.63-1.25,1.47-2.19,2.51-2.82,1.04-.63,2.33-.95,3.86-.95ZM55.55,16.75c0-1.76-.04-3.3-.12-4.62-.08-1.32-.25-2.42-.5-3.3-.25-.88-.59-1.53-1.02-1.97-.43-.43-.99-.65-1.67-.65s-1.27.22-1.7.65c-.43.43-.77,1.09-1.01,1.97-.24.88-.4,1.98-.48,3.3-.08,1.32-.12,2.86-.12,4.62,0,3.86.23,6.76.68,8.69.45,1.93,1.33,2.9,2.63,2.9.66,0,1.21-.24,1.64-.73.43-.49.77-1.21,1.02-2.19.25-.97.42-2.18.51-3.63.09-1.45.14-3.13.14-5.05ZM67.11,31.59c0,.74-.37,1.12-1.12,1.12h-2.67c-.76,0-1.15-.4-1.15-1.21V2.87c0-.72.38-1.08,1.15-1.08h2.57c.81,0,1.21.38,1.21,1.15v28.67Z"/>
        <path class="cls-2" d="M78.33,21.18c-5.27,0-7.9-3.18-7.9-9.55s2.71-9.92,8.12-9.92c5.1,0,7.66,3.31,7.66,9.92s-2.62,9.55-7.87,9.55ZM72.25,27.57c-.79,0-1.18-.36-1.18-1.08v-2.14c0-.78.39-1.18,1.18-1.18h20.83c.83,0,1.24.36,1.24,1.08v7.41c0,.7-.39,1.05-1.18,1.05h-2.6c-.74,0-1.12-.35-1.12-1.05v-4.09h-17.17ZM78.27,6.09c-2.15,0-3.22,1.86-3.22,5.58,0,3.43,1.09,5.14,3.29,5.14s3.29-1.71,3.29-5.14c0-3.72-1.12-5.58-3.35-5.58ZM92.55,6.12h1.98c.64,0,.96.4.96,1.21v2.11c0,.76-.36,1.15-1.08,1.15h-1.86v1.58h1.98c.64,0,.96.39.96,1.18v2.14c0,.76-.36,1.15-1.08,1.15h-1.86v3.41c0,.81-.42,1.21-1.27,1.21h-2.48c-.85,0-1.27-.37-1.27-1.12V2.83c0-.74.41-1.12,1.24-1.12h2.57c.81,0,1.21.35,1.21,1.05v3.35Z"/>
        <path class="cls-2" d="M120.94,1.75c.76,0,1.15.36,1.15,1.08v28.7c0,.76-.35,1.15-1.05,1.15h-2.7c-.77,0-1.15-.37-1.15-1.12v-2.45h-6.26c-.74,0-1.12-.35-1.12-1.05v-1.74c0-.7.37-1.05,1.12-1.05h6.26v-1.67h-9.79v8.12c0,.66-.29.98-.87.96h-2.97c-.66,0-.99-.34-.99-1.02v-8.06h-3.41c-.6,0-.9-.33-.9-.99v-2.45c0-.68.4-1.03,1.21-1.05h17.73V2.87c0-.74.39-1.12,1.18-1.12h2.57ZM113.6,1.78c.76,0,1.16.36,1.18,1.08v13.17c-.02.83-.39,1.24-1.12,1.24h-13.88c-.93,0-1.39-.38-1.39-1.15V2.96c0-.79.43-1.18,1.3-1.18h13.92ZM103.31,12.78h6.57v-6.51h-6.57v6.51Z"/>
        <path class="cls-2" d="M133.31,21.18c-5.27,0-7.9-3.18-7.9-9.55s2.71-9.92,8.12-9.92c5.1,0,7.66,3.31,7.66,9.92s-2.62,9.55-7.87,9.55ZM127.23,27.57c-.79,0-1.18-.36-1.18-1.08v-2.14c0-.78.39-1.18,1.18-1.18h20.83c.83,0,1.24.36,1.24,1.08v7.41c0,.7-.39,1.05-1.18,1.05h-2.6c-.74,0-1.12-.35-1.12-1.05v-4.09h-17.17ZM133.24,6.09c-2.15,0-3.22,1.86-3.22,5.58,0,3.43,1.09,5.14,3.29,5.14s3.29-1.71,3.29-5.14c0-3.72-1.12-5.58-3.35-5.58ZM147.53,6.12h1.98c.64,0,.96.4.96,1.21v2.11c0,.76-.36,1.15-1.08,1.15h-1.86v1.58h1.98c.64,0,.96.39.96,1.18v2.14c0,.76-.36,1.15-1.08,1.15h-1.86v3.41c0,.81-.42,1.21-1.27,1.21h-2.48c-.85,0-1.27-.37-1.27-1.12V2.83c0-.74.41-1.12,1.24-1.12h2.57c.81,0,1.21.35,1.21,1.05v3.35Z"/>
      </g>
      <g>
        <path class="cls-3" d="M35.53,13.91c-.71-7.94-7.38-13.91-15.5-13.91S5.24,5.97,4.53,13.91c-1.86,2.88-2.95,6.57-2.95,10.26,0,10.19,8.26,14.92,18.45,14.92s18.45-4.73,18.45-14.92c0-3.69-1.08-7.37-2.95-10.26Z"/>
        <path class="cls-4" d="M22.41,15.84l-1.76-2.12c-.34-.41-.89-.41-1.23,0l-1.76,2.12c-.34.41-.34,1.07,0,1.48l1.76,2.12c.34.41.89.41,1.23,0l1.76-2.12c.34-.41.34-1.07,0-1.48ZM19.94,18.76l-1.73-2.07,1.91-2.29,1.73,2.07-1.91,2.29Z"/>
        <g>
          <path class="cls-5" d="M23.75,17.09c-.18-.02-.38-.04-.54.07s-.23.22-.3.42.05.26.19.47c.15.24.32.47.51.69.12.2.27.37.43.53.16.18.33.36.53.5.34.25.48.34.9.39.11.02.21,0,.31-.05.22-.05.42-.13.62-.23.3-.14.61-.29.87-.5l.22-.2c.07-.07.1-.15.08-.26.02-.09.02-.18,0-.27l-.14-.41c-.15-.25-.33-.46-.56-.64l-.29-.22c-.06-.05-.13-.09-.21-.13-.19-.11-.38-.21-.59-.28-.1,0-.2.03-.3.05-.1.01-.2.03-.3.07l-.45.16c-.31.13-.63.28-.93.43l-.32.26c-.14.12-.29.19-.47.21-.11.03-.23.13-.19.26.02.06.09.12.14.16.07.05.11.08.19.05.16-.03.31-.09.43-.19.18-.11.35-.24.5-.39l.37-.16c.29-.14.59-.26.9-.36l-.07.02.52-.09h-.07c.18.13.36.23.55.32l-.06-.04.26.23c.11.12.18.26.21.42.05.1.06.21.03.31,0,.17-.05.32-.15.47l.21-.14c-.21.09-.41.19-.63.26-.23.08-.47.14-.71.19h.09c-.11,0-.23.02-.34.03h.09c-.1-.02-.21-.04-.31-.07l.08.03c-.75-.47-1.33-.83-1.69-1.8l-.02.16.13-.22-.12.13.21-.1h-.08c.1,0,.2.02.3.03s.23-.09.23-.2c0-.1-.19-.33-.3-.34Z"/>
          <path class="cls-5" d="M23.29,16.92c-.09-.02-.18-.04-.27-.02-.06,0-.12.02-.17.04-.17.09-.28.22-.32.42-.03.09,0,.17.07.24.11.22.25.43.41.61.27.32.57.59.91.83.25.19.47.39.8.38.61-.04,1.13-.44,1.6-.78.13-.04.21-.11.24-.23v-.26c-.06-.35-.4-.68-.68-.86l-.35-.2c-.21-.12-.44-.19-.69-.21-.16-.04-.32-.01-.47.1-.23.12-.44.25-.65.41l.08-.05c-.14.1-.29.18-.44.25-.12.07-.24.11-.38.11l1.55.32-.43-.16c-.28-.09-.55-.16-.84-.22-.13-.05-.25-.06-.38-.04-.07,0-.12.02-.15.08,0,.1.05.16.15.19.4.19.84.31,1.28.38.27.05.47.04.73-.01l.07-.07v-.15c-.05.04-.1.08-.14.12l.12-.04h-.09c.07.03.13.06.2.05.04,0,.08-.02.12-.05.06-.05.14-.06.22-.04l-.09-.03.2.1-.07-.06.05.1v-.09s-.03.07-.04.11l.08-.07-.24.14.62-.08h-.68c.07,0,.14,0,.22,0l-.34-.02.1.02c-.09-.02-.18-.04-.27-.07-.07-.03-.12-.02-.17.04l-.51.96.71-.73h-.42s.07.02.1.02c-.26-.04-.51-.12-.75-.26l.19.1-.69-.51.65.7.03-.18-.03.1.04-.04-.1.02c.09,0,.16.02.25.05.09.01.13-.02.14-.11-.03-.16-.1-.29-.21-.41-.17-.23-.35-.46-.54-.68-.09-.14-.21-.23-.35-.3Z"/>
          <path class="cls-5" d="M23.41,15.76c-.16-.06-.35-.12-.52-.06-.21.08-.36.33-.37.53v.09c.21.34.44.67.7.97.16.19.31.39.47.58l.27.35c.23.26.35.35.62.49.08.06.16.1.26.12l.45-.13c.23-.08.45-.18.66-.3.2-.1.4-.21.59-.33.2-.13.45-.27.56-.5.05-.1.07-.23.09-.34.03-.31-.16-.58-.34-.81-.06-.08-.13-.15-.22-.21-.18-.17-.39-.31-.63-.42l-.5-.19c-.25-.08-.49-.08-.74,0-.17.02-.32.07-.47.15-.19.08-.36.17-.53.28l-.36.19c-.16.13-.34.21-.53.24l.81-.06-.33-.04c-.17,0-.33,0-.5.01-.09-.01-.16.01-.22.07-.1.07-.09.23.05.27.13.03.25.07.38.08.18,0,.38-.01.56-.06.13-.03.26-.07.39-.13.2-.1.44-.16.66-.22l-.09.02.37-.07h-.09c.18-.02.35-.01.52.03.4.07.77.21,1.12.42l-.13-.12.35.62-.02-.18-.04.3.06-.15c-.12.19-.28.33-.48.44-.16.11-.33.21-.51.3-.18.1-.36.2-.55.28-.69-.08-1.17-.43-1.47-1.04l.07.16-.05-.75-.06.07.17-.15-.08.06.1-.03h-.13c.08,0,.15,0,.23.01l-.13-.02c.09.03.17.06.26.1.08.04.15.03.21-.02.04-.07.03-.14-.02-.21-.13-.14-.27-.27-.42-.39-.15-.12-.3-.23-.47-.33Z"/>
          <path class="cls-5" d="M24.06,16.74c-.11-.03-.19-.05-.3-.03-.05.01-.11.03-.16.05-.16.09-.25.23-.28.42v.1c.25.4.55.74.91,1.03.28.21.55.42.82.65.2.1.41.15.63.13.11.03.21.02.31-.04.12-.03.23-.09.33-.16.12-.07.23-.16.33-.26.11-.1.22-.21.33-.32.13-.11.24-.24.32-.38-.01-.13-.04-.26-.09-.38l-.19-.32c-.21-.23-.46-.38-.75-.46-.25-.07-.5-.11-.75-.13-.18,0-.36.01-.53.07-.41.15-.65.59-.91.92l.09-.04-.41.1,1.62.71-.08-.15-.12-.11-.28-.14c-.31-.15-.65-.28-.98-.37-.1-.03-.26-.09-.35,0-.1.08.02.19.09.25.35.31.88.5,1.28.69-.07-.03.5.26.52.08l.11-1.9-.8,1.43.71-.71-.49.46.78-.5-.7.31,1.96.27-1.78-.81.52,1.72.12-1.41-.41,1.13.53-1.04-.89.52.48-.25c-.37.03-.73-.01-1.09-.14l.58.14-1.2-.57,1.21.85.03-.03-.1.04c.13-.03.25.02.37.06.09,0,.13-.04.12-.13-.06-.16-.16-.3-.3-.4-.23-.23-.46-.44-.71-.65-.12-.13-.26-.22-.43-.27Z"/>
          <path class="cls-5" d="M23.91,15.61c-.16-.05-.34-.1-.51-.03l-.16.12c-.07.06-.11.14-.12.23-.06.08-.07.17-.05.26l.44.65.37.48c.14.21.28.41.44.6.11.17.24.31.41.42.2.2.43.34.69.43.22.09.52-.09.73-.18.35-.14.69-.32,1-.54.12-.09.27-.17.36-.29.13-.11.2-.25.2-.41.03-.08.03-.17.02-.25-.02-.13-.07-.29-.12-.42-.11-.29-.45-.53-.7-.7-.4-.27-.94-.44-1.42-.43-.31.01-.61.15-.89.26l-.34.13c-.24.08-.47.18-.68.32l.11-.05-.26.08.34-.05h-.2c-.14,0-.44-.04-.52.12-.02.06-.02.12,0,.18.04.06.1.09.18.08.17.03.32.03.49,0,.26-.05.48-.16.72-.28l-.27.06c.41-.05.79-.09,1.2-.11h-.09c.15.02.29.04.44.06l-.09-.03c.24.11.48.22.73.33.48.07.67.38.57.92l.05-.06c-.46.37-.95.67-1.49.92h.12c-.24-.07-.44-.19-.61-.37-.54-.43-.87-1.02-.99-1.78l-.04.08c.07-.07.15-.11.24-.11h-.11c.15.01.28.05.43.09.18.05.24-.13.16-.26-.11-.11-.24-.2-.37-.28-.13-.09-.27-.16-.41-.21Z"/>
          <path class="cls-5" d="M22.75,16.38c-.07-.02-.14-.05-.22-.04-.11.01-.21.06-.29.13-.14.09-.22.23-.24.41l-.02.09c.07.16.16.31.26.45.16.31.36.58.62.81.17.19.38.43.58.59l.43.33c.21.17.44.21.67.12.4-.08.79-.2,1.18-.32.19-.06.37-.12.55-.2.09-.02.17-.06.23-.11l.25-.25c.02-.08.02-.17.01-.26.01-.09,0-.19-.01-.28l-.12-.36c-.06-.18-.24-.41-.34-.53-.23-.25-.52-.5-.82-.67l-.43-.22c-.09-.04-.19-.07-.29-.07-.1-.03-.2-.04-.3-.04l-.4.11c-.17.06-.34.17-.49.27-.24.16-.47.38-.69.57l.07-.06c-.15.14-.32.23-.52.28l.71-.04c-.23-.01-.46-.02-.69-.03-.11-.02-.21,0-.29.07-.05.06-.05.11-.01.18.07.08.17.11.28.11.36.07.72.03,1.08-.11.09-.07.18-.14.26-.22.09-.14.19-.26.3-.39.13-.15.29-.27.48-.35l-.15.03c.48.02.88.2,1.21.53.31.17.55.42.7.74l-.08-.16-.29.97c-.21.07-.42.14-.63.19-.34.09-.68.16-1.02.21l.07.03c-.27-.1-.49-.27-.66-.5-.12-.06-.24-.12-.36-.17l.12.09-.37-.87-.02.09.08-.21-.04.09.06-.05-.09.03s.09-.01.14,0l-.11-.04s.08.03.11.05c.06.03.14.07.2.02.1-.07.03-.21-.01-.29-.09-.16-.2-.31-.32-.46-.1-.12-.2-.26-.35-.31Z"/>
          <path class="cls-5" d="M23.24,17.14c-.18-.02-.35-.03-.51.07-.13.08-.19.17-.25.31-.04.1-.09.18-.07.28.2.39.44.74.73,1.06l.39.54c.21.27.46.49.75.66.21.18.46.29.74.33.25.07.54-.09.78-.18.34-.13.66-.28.97-.46.12-.07.24-.13.34-.22.23-.2.3-.38.22-.7-.04-.18-.09-.36-.19-.52-.13-.22-.3-.4-.47-.57-.28-.27-.6-.51-.95-.69-.51-.25-.56-.16-1.07-.02-.12.03-.23.08-.33.14-.24.1-.47.22-.69.37l-.44.27c-.17.13-.35.26-.53.38l.06-.04h-.15c-.12.02-.22.16-.18.27.03.07.09.12.15.16.07.05.11.07.2.05.07-.01.13-.04.19-.07.16-.13.3-.29.4-.47l-.11.11c.31-.19.62-.37.93-.55.39-.28.83-.37,1.32-.28.43.15.79.41,1.06.76.25.35.35.73.29,1.13v-.07c-.06.07-.13.14-.2.21l.07-.06c-.21.11-.42.22-.64.3l.08-.03c-.42.15-1,.46-1.45.21l-.39-.29c-.65-.41-1.11-1.01-1.38-1.8l-.03.16c.03-.19.12-.28.27-.26h-.07c.05,0,.1.01.16.02.1.01.24-.06.25-.17,0-.09-.14-.33-.24-.35Z"/>
          <path class="cls-5" d="M24.38,16.41c-.18-.04-.39-.08-.55.05-.14.11-.27.26-.26.47-.01.13.05.24.19.33.17.29.38.54.63.77.23.24.46.5.71.72.17.18.37.29.6.32.09.05.18.07.27.06.14,0,.29-.07.42-.12.25-.1.49-.24.72-.39.2-.12.46-.28.58-.47.07-.12.08-.27.07-.4-.01-.28-.17-.41-.34-.59-.15-.16-.32-.28-.52-.38s-.4-.15-.61-.19c-.34-.07-.64-.06-.97.09-.18.08-.34.17-.52.25-.11.04-.23.09-.34.13-.16.07-.32.11-.5.11h.63c-.17-.02-.34-.04-.5-.07-.13-.02-.42-.07-.49.1s.1.22.23.25c.25.05.49.1.75.09s.53-.06.79-.11l-.4-.03c.25.03.48.09.71.18l-.09-.04.23.17-.14-.26.07.2c.03.1.1.2.22.14.06-.05.14-.07.22-.05l-.09-.03.16.1-.09-.15.03.19v-.1s-.03.07-.04.1l.12-.08c-.28.13-.27.1-.43.28l.07-.06-.14.1.08-.05-.18.07.09-.03-.19.04h.09c-.05,0-.11,0-.16,0l.09.02c-.35-.31-.86-.42-1.01-.98l-.06.17.14-.14-.07.06c.06-.03.13-.04.19-.03h-.11c.09,0,.18.02.26.04.17.03.27-.08.18-.24-.11-.12-.22-.23-.35-.32-.12-.1-.26-.19-.4-.26Z"/>
          <path class="cls-5" d="M23.06,16.1c-.23-.1-.45-.03-.62.14-.41.41.09.88.33,1.17.15.18.32.36.49.52.17.14.35.28.52.41.15.12.31.24.46.35.11.07.26.13.38.16.1.02.19,0,.28-.04.18-.04.36-.09.54-.15.3-.1.59-.2.87-.34.1-.04.19-.1.26-.18.07-.05.12-.11.16-.18l.05-.3c0-.08-.02-.16-.04-.23-.06-.25-.09-.29-.27-.54-.11-.15-.24-.26-.39-.37-.24-.18-.56-.39-.85-.47l-.48-.09c-.09,0-.18.02-.27.05-.57.15-1.05.55-1.56.84l.12-.05-.25.06,1.18.04-.15-.04c-.2-.05-.4-.07-.61-.08-.2-.02-.41-.02-.61,0-.09,0-.15.05-.17.14.01.09.06.14.15.16.15.06.28.1.44.12.23.03.47.04.7.03.14,0,.29-.01.42-.05.12-.03.23-.09.34-.13.08-.03.16-.06.24-.08.12-.02.23,0,.34.01.1.02.2.03.3.05.35.05.89.28.74.82l.04-.07-.21.17c-.1.04-.2.08-.3.11-.25.08-.5.14-.76.21h.07c-.12,0-.23.02-.35.03h.08c-.07-.03-.15-.08-.22-.12l.06.04c-.05-.15-.13-.26-.26-.32-.2-.11-.37-.26-.51-.47v.09c.01-.08.04-.14.1-.19l-.09.04c.08-.04.15-.04.23,0l-.14-.06c.05.03.23.12.27.12.12-.01.14-.09.1-.19-.08-.22-.34-.46-.49-.61l-.3-.29c-.1-.12-.22-.2-.37-.25Z"/>
          <path class="cls-5" d="M23.68,16.09c-.08-.02-.16-.06-.25-.05-.11.02-.21.06-.3.13-.08.05-.13.13-.13.24-.06.09-.07.18-.04.28l.51.65c.29.31.6.58.96.8l-.07-.05c.15.19.34.3.56.35.17.07.34.09.52.05.26-.06.5-.19.74-.32.19-.1.39-.21.57-.33.22-.15.32-.22.26-.51-.11-.59-.65-.91-1.16-1.13-.21-.12-.43-.17-.66-.13-.22-.02-.42.04-.61.18-.29.19-.51.46-.76.7l.08-.06-.49.11,1.67.42-.12-.15c-.09-.12-.3-.15-.43-.19-.33-.1-.67-.17-1.01-.21-.11-.01-.26-.04-.35.05-.09.1.05.18.13.23.14.11.29.18.47.22.2.06.41.12.61.16.16.04.33.07.5.09.22,0,.42-.06.6-.18l-.12.04.28-.03h-.13s.05.02.08.03l-.05-.17v.11c.11-.07.24-.14.37-.2-.24.03-.37.05-.58.14l.09-.04-.16.02h.09c-.14-.05-.28-.02-.4.08h.1c-.09-.02-.18-.05-.27-.07l.14.12-.03-.16-.1.15c.1-.01.16,0,.25.04l-.17-.06s.09.04.14.06l.17.06.1-.03v-.11c-.04-.11-.12-.21-.22-.28-.23-.22-.48-.42-.73-.62-.21-.16-.42-.35-.68-.43Z"/>
          <path class="cls-5" d="M24.31,16.91c-.13-.04-.26-.09-.4-.08-.12,0-.22.03-.31.11-.12.08-.19.19-.23.34-.03.06-.02.12.02.17.11.2.23.38.38.55.23.27.47.53.71.8.35.36.86.9,1.43.78.46-.09.92-.32,1.31-.58.17-.1.32-.23.45-.38.05-.08.06-.16.04-.25.02-.19-.03-.37-.16-.53-.1-.11-.2-.22-.31-.32-.12-.08-.24-.16-.36-.22-.22-.11-.46-.18-.71-.21-.11-.05-.23-.06-.35-.04-.26.01-.51.05-.76.13-.23.05-.46.1-.68.16-.2.13-.41.23-.64.28l.13-.02h-.24c-.07-.01-.15-.02-.2.04s-.06.15-.02.21c.05.07.14.1.22.12.12.04.26.07.38.06.16,0,.31-.03.46-.09.17-.05.32-.12.47-.21h-.13c.3.02.59.03.89.06l-.08-.02.38.12-.08-.04c.21.23.17.24.45.19h-.09s.07.02.1.04l-.06-.07.12.18-.03-.09.02.24v-.09c-.04.05-.07.11-.1.16l.1-.08-.3.21.39-.11c-.25.03-.35.03-.55.11l.12-.03c-.28.07-.54.09-.83.1h.09c-.21-.15-.42-.3-.62-.47-.32-.11-.52-.32-.6-.61l-.07.16.15-.16-.07.06.11-.03h-.09c.08,0,.15,0,.23,0h-.09c.12.02.23.06.35.09.14.05.25-.09.2-.22-.07-.11-.15-.2-.25-.28-.09-.09-.19-.16-.3-.22Z"/>
          <path class="cls-5" d="M22.78,16.76c-.21-.04-.44-.02-.59.16-.04.07-.07.14-.11.21-.04.07-.07.14-.09.21.05.16.13.31.23.44.15.32.36.59.63.82.2.22.45.45.67.64.19.21.42.35.68.41.1.08.2.1.3.07.43-.09.84-.22,1.25-.39.14-.05.5-.2.64-.28s.31-.18.34-.35c.04-.27,0-.55-.11-.8-.08-.18-.2-.35-.33-.5-.23-.25-.46-.47-.75-.65s-.56-.3-.92-.33c-.17-.01-.35.04-.51.1-.24.08-.44.21-.65.34-.18.12-.36.24-.53.36-.14.14-.3.23-.48.29l.43-.02c-.19-.03-.39-.03-.58-.02-.08.02-.12.06-.14.13-.03.23.41.25.53.26.26.06.51.02.75-.13.09-.06.17-.14.23-.23.13-.12.26-.24.39-.36.17-.15.36-.25.58-.32l-.16.02.5.11-.07-.02c.21.06.4.15.58.28.51.27.78.75.82,1.44l.07-.12-.5.32c-.19.07-.38.14-.57.19-.3.09-.6.16-.91.22l.07.04c-.26-.09-.47-.24-.65-.45-.26-.17-.51-.36-.74-.57l.08.13-.19-.43.03.07-.05-.22-.03.09.08-.23-.04.08.06-.07-.09.03.16-.05-.09.03c.07,0,.13.02.19.04.07,0,.12-.03.15-.1.02-.1,0-.19-.08-.28-.09-.15-.18-.3-.29-.44-.05-.1-.13-.15-.23-.18Z"/>
        </g>
        <g>
          <path class="cls-5" d="M13.57,17.5c-.18-.02-.38-.04-.54.07s-.23.22-.3.42.05.26.19.47c.15.24.32.47.51.69.12.2.27.37.43.53.16.18.33.36.53.5.34.25.48.34.9.39.11.02.21,0,.31-.05.22-.05.42-.13.62-.23.3-.14.61-.29.87-.5l.22-.2c.07-.07.1-.15.08-.26.02-.09.02-.18,0-.27l-.14-.41c-.15-.25-.33-.46-.56-.64l-.29-.22c-.06-.05-.13-.09-.21-.13-.19-.11-.38-.21-.59-.28-.1,0-.2.03-.3.05-.1.01-.2.03-.3.07l-.45.16c-.31.13-.63.28-.93.43l-.32.26c-.14.12-.29.19-.47.21-.11.03-.23.13-.19.26.02.06.09.12.14.16.07.05.11.08.19.05.16-.03.31-.09.43-.19.18-.11.35-.24.5-.39l.37-.16c.29-.14.59-.26.9-.36l-.07.02.52-.09h-.07c.18.13.36.23.55.32l-.06-.04.26.23c.11.12.18.26.21.42.05.1.06.21.03.31,0,.17-.05.32-.15.47l.21-.14c-.21.09-.41.19-.63.26-.23.08-.47.14-.71.19h.09c-.11,0-.23.02-.34.03h.09c-.1-.02-.21-.04-.31-.07l.08.03c-.75-.47-1.33-.83-1.69-1.8l-.02.16.13-.22-.12.13.21-.1h-.08c.1,0,.2.02.3.03s.23-.09.23-.2c0-.1-.19-.33-.3-.34Z"/>
          <path class="cls-5" d="M13.12,17.33c-.09-.02-.18-.04-.27-.02-.06,0-.12.02-.17.04-.17.09-.28.22-.32.42-.03.09,0,.17.07.24.11.22.25.43.41.61.27.32.57.59.91.83.25.19.47.39.8.38.61-.04,1.13-.44,1.6-.78.13-.04.21-.11.24-.23v-.26c-.06-.35-.4-.68-.68-.86l-.35-.2c-.21-.12-.44-.19-.69-.21-.16-.04-.32-.01-.47.1-.23.12-.44.25-.65.41l.08-.05c-.14.1-.29.18-.44.25-.12.07-.24.11-.38.11l1.55.32-.43-.16c-.28-.09-.55-.16-.84-.22-.13-.05-.25-.06-.38-.04-.07,0-.12.02-.15.08,0,.1.05.16.15.19.4.19.84.31,1.28.38.27.05.47.04.73-.01l.07-.07v-.15c-.05.04-.1.08-.14.12l.12-.04h-.09c.07.03.13.06.2.05.04,0,.08-.02.12-.05.06-.05.14-.06.22-.04l-.09-.03.2.1-.07-.06.05.1v-.09s-.03.07-.04.11l.08-.07-.24.14.62-.08h-.68c.07,0,.14,0,.22,0l-.34-.02.1.02c-.09-.02-.18-.04-.27-.07-.07-.03-.12-.02-.17.04l-.51.96.71-.73h-.42s.07.02.1.02c-.26-.04-.51-.12-.75-.26l.19.1-.69-.51.65.7.03-.18-.03.1.04-.04-.1.02c.09,0,.16.02.25.05.09.01.13-.02.14-.11-.03-.16-.1-.29-.21-.41-.17-.23-.35-.46-.54-.68-.09-.14-.21-.23-.35-.3Z"/>
          <path class="cls-5" d="M13.23,16.18c-.16-.06-.35-.12-.52-.06-.21.08-.36.33-.37.53v.09c.21.34.44.67.7.97.16.19.31.39.47.58l.27.35c.23.26.35.35.62.49.08.06.16.1.26.12l.45-.13c.23-.08.45-.18.66-.3.2-.1.4-.21.59-.33.2-.13.45-.27.56-.5.05-.1.07-.23.09-.34.03-.31-.16-.58-.34-.81-.06-.08-.13-.15-.22-.21-.18-.17-.39-.31-.63-.42l-.5-.19c-.25-.08-.49-.08-.74,0-.17.02-.32.07-.47.15-.19.08-.36.17-.53.28l-.36.19c-.16.13-.34.21-.53.24l.81-.06-.33-.04c-.17,0-.33,0-.5.01-.09-.01-.16.01-.22.07-.1.07-.09.23.05.27.13.03.25.07.38.08.18,0,.38-.01.56-.06.13-.03.26-.07.39-.13.2-.1.44-.16.66-.22l-.09.02.37-.07h-.09c.18-.02.35-.01.52.03.4.07.77.21,1.12.42l-.13-.12.35.62-.02-.18-.04.3.06-.15c-.12.19-.28.33-.48.44-.16.11-.33.21-.51.3-.18.1-.36.2-.55.28-.69-.08-1.17-.43-1.47-1.04l.07.16-.05-.75-.06.07.17-.15-.08.06.1-.03h-.13c.08,0,.15,0,.23.01l-.13-.02c.09.03.17.06.26.1.08.04.15.03.21-.02.04-.07.03-.14-.02-.21-.13-.14-.27-.27-.42-.39-.15-.12-.3-.23-.47-.33Z"/>
          <path class="cls-5" d="M13.89,17.15c-.11-.03-.19-.05-.3-.03-.05.01-.11.03-.16.05-.16.09-.25.23-.28.42v.1c.25.4.55.74.91,1.03.28.21.55.42.82.65.2.1.41.15.63.13.11.03.21.02.31-.04.12-.03.23-.09.33-.16.12-.07.23-.16.33-.26.11-.1.22-.21.33-.32.13-.11.24-.24.32-.38-.01-.13-.04-.26-.09-.38l-.19-.32c-.21-.23-.46-.38-.75-.46-.25-.07-.5-.11-.75-.13-.18,0-.36.01-.53.07-.41.15-.65.59-.91.92l.09-.04-.41.1,1.62.71-.08-.15-.12-.11-.28-.14c-.31-.15-.65-.28-.98-.37-.1-.03-.26-.09-.35,0-.1.08.02.19.09.25.35.31.88.5,1.28.69-.07-.03.5.26.52.08l.11-1.9-.8,1.43.71-.71-.49.46.78-.5-.7.31,1.96.27-1.78-.81.52,1.72.12-1.41-.41,1.13.53-1.04-.89.52.48-.25c-.37.03-.73-.01-1.09-.14l.58.14-1.2-.57,1.21.85.03-.03-.1.04c.13-.03.25.02.37.06.09,0,.13-.04.12-.13-.06-.16-.16-.3-.3-.4-.23-.23-.46-.44-.71-.65-.12-.13-.26-.22-.43-.27Z"/>
          <path class="cls-5" d="M13.74,16.02c-.16-.05-.34-.1-.51-.03l-.16.12c-.07.06-.11.14-.12.23-.06.08-.07.17-.05.26l.44.65.37.48c.14.21.28.41.44.6.11.17.24.31.41.42.2.2.43.34.69.43.22.09.52-.09.73-.18.35-.14.69-.32,1-.54.12-.09.27-.17.36-.29.13-.11.2-.25.2-.41.03-.08.03-.17.02-.25-.02-.13-.07-.29-.12-.42-.11-.29-.45-.53-.7-.7-.4-.27-.94-.44-1.42-.43-.31.01-.61.15-.89.26l-.34.13c-.24.08-.47.18-.68.32l.11-.05-.26.08.34-.05h-.2c-.14,0-.44-.04-.52.12-.02.06-.02.12,0,.18.04.06.1.09.18.08.17.03.32.03.49,0,.26-.05.48-.16.72-.28l-.27.06c.41-.05.79-.09,1.2-.11h-.09c.15.02.29.04.44.06l-.09-.03c.24.11.48.22.73.33.48.07.67.38.57.92l.05-.06c-.46.37-.95.67-1.49.92h.12c-.24-.07-.44-.19-.61-.37-.54-.43-.87-1.02-.99-1.78l-.04.08c.07-.07.15-.11.24-.11h-.11c.15.01.28.05.43.09.18.05.24-.13.16-.26-.11-.11-.24-.2-.37-.28-.13-.09-.27-.16-.41-.21Z"/>
          <path class="cls-5" d="M12.57,16.79c-.07-.02-.14-.05-.22-.04-.11.01-.21.06-.29.13-.14.09-.22.23-.24.41l-.02.09c.07.16.16.31.26.45.16.31.36.58.62.81.17.19.38.43.58.59l.43.33c.21.17.44.21.67.12.4-.08.79-.2,1.18-.32.19-.06.37-.12.55-.2.09-.02.17-.06.23-.11l.25-.25c.02-.08.02-.17.01-.26.01-.09,0-.19-.01-.28l-.12-.36c-.06-.18-.24-.41-.34-.53-.23-.25-.52-.5-.82-.67l-.43-.22c-.09-.04-.19-.07-.29-.07-.1-.03-.2-.04-.3-.04l-.4.11c-.17.06-.34.17-.49.27-.24.16-.47.38-.69.57l.07-.06c-.15.14-.32.23-.52.28l.71-.04c-.23-.01-.46-.02-.69-.03-.11-.02-.21,0-.29.07-.05.06-.05.11-.01.18.07.08.17.11.28.11.36.07.72.03,1.08-.11.09-.07.18-.14.26-.22.09-.14.19-.26.3-.39.13-.15.29-.27.48-.35l-.15.03c.48.02.88.2,1.21.53.31.17.55.42.7.74l-.08-.16-.29.97c-.21.07-.42.14-.63.19-.34.09-.68.16-1.02.21l.07.03c-.27-.1-.49-.27-.66-.5-.12-.06-.24-.12-.36-.17l.12.09-.37-.87-.02.09.08-.21-.04.09.06-.05-.09.03s.09-.01.14,0l-.11-.04s.08.03.11.05c.06.03.14.07.2.02.1-.07.03-.21-.01-.29-.09-.16-.2-.31-.32-.46-.1-.12-.2-.26-.35-.31Z"/>
          <path class="cls-5" d="M13.07,17.56c-.18-.02-.35-.03-.51.07-.13.08-.19.17-.25.31-.04.1-.09.18-.07.28.2.39.44.74.73,1.06l.39.54c.21.27.46.49.75.66.21.18.46.29.74.33.25.07.54-.09.78-.18.34-.13.66-.28.97-.46.12-.07.24-.13.34-.22.23-.2.3-.38.22-.7-.04-.18-.09-.36-.19-.52-.13-.22-.3-.4-.47-.57-.28-.27-.6-.51-.95-.69-.51-.25-.56-.16-1.07-.02-.12.03-.23.08-.33.14-.24.1-.47.22-.69.37l-.44.27c-.17.13-.35.26-.53.38l.06-.04h-.15c-.12.02-.22.16-.18.27.03.07.09.12.15.16.07.05.11.07.2.05.07-.01.13-.04.19-.07.16-.13.3-.29.4-.47l-.11.11c.31-.19.62-.37.93-.55.39-.28.83-.37,1.32-.28.43.15.79.41,1.06.76.25.35.35.73.29,1.13v-.07c-.06.07-.13.14-.2.21l.07-.06c-.21.11-.42.22-.64.3l.08-.03c-.42.15-1,.46-1.45.21l-.39-.29c-.65-.41-1.11-1.01-1.38-1.8l-.03.16c.03-.19.12-.28.27-.26h-.07c.05,0,.1.01.16.02.1.01.24-.06.25-.17,0-.09-.14-.33-.24-.35Z"/>
          <path class="cls-5" d="M14.21,16.82c-.18-.04-.39-.08-.55.05-.14.11-.27.26-.26.47-.01.13.05.24.19.33.17.29.38.54.63.77.23.24.46.5.71.72.17.18.37.29.6.32.09.05.18.07.27.06.14,0,.29-.07.42-.12.25-.1.49-.24.72-.39.19-.12.46-.28.58-.47.07-.12.08-.27.07-.4-.01-.28-.17-.41-.34-.59-.15-.16-.32-.28-.52-.38s-.4-.15-.61-.19c-.34-.07-.64-.06-.97.09-.18.08-.34.17-.52.25-.11.04-.23.09-.34.13-.16.07-.32.11-.5.11h.63c-.17-.02-.34-.04-.5-.07-.13-.02-.42-.07-.49.1s.1.22.23.25c.25.05.49.1.75.09s.53-.06.79-.11l-.4-.03c.25.03.48.09.71.18l-.09-.04.23.17-.14-.26.07.2c.03.1.1.2.22.14.06-.05.14-.07.22-.05l-.09-.03.16.1-.09-.15.03.19v-.1s-.03.07-.04.1l.12-.08c-.28.13-.27.1-.43.28l.07-.06-.14.1.08-.05-.18.07.09-.03-.19.04h.09c-.05,0-.11,0-.16,0l.09.02c-.35-.31-.86-.42-1.01-.98l-.06.17.14-.14-.07.06c.06-.03.13-.04.19-.03h-.11c.09,0,.18.02.26.04.17.03.27-.08.18-.24-.11-.12-.22-.23-.35-.32-.12-.1-.26-.19-.4-.26Z"/>
          <path class="cls-5" d="M12.88,16.51c-.23-.1-.45-.03-.62.14-.41.41.09.88.33,1.17.15.18.32.36.49.52.17.14.35.28.52.41.15.12.31.24.46.35.11.07.26.13.38.16.1.02.19,0,.28-.04.18-.04.36-.09.54-.15.3-.1.59-.2.87-.34.1-.04.19-.1.26-.18.07-.05.12-.11.16-.18l.05-.3c0-.08-.02-.16-.04-.23-.06-.25-.09-.29-.27-.54-.11-.15-.24-.26-.39-.37-.24-.18-.56-.39-.85-.47l-.48-.09c-.09,0-.18.02-.27.05-.57.15-1.05.55-1.56.84l.12-.05-.25.06,1.18.04-.15-.04c-.2-.05-.4-.07-.61-.08-.2-.02-.41-.02-.61,0-.09,0-.15.05-.17.14.01.09.06.14.15.16.15.06.28.1.44.12.23.03.47.04.7.03.14,0,.29-.01.42-.05.12-.03.23-.09.34-.13.08-.03.16-.06.24-.08.12-.02.23,0,.34.01.1.02.2.03.3.05.35.05.89.28.74.82l.04-.07-.21.17c-.1.04-.2.08-.3.11-.25.08-.5.14-.76.21h.07c-.12,0-.23.02-.35.03h.08c-.07-.03-.15-.08-.22-.12l.06.04c-.05-.15-.13-.26-.26-.32-.2-.11-.37-.26-.51-.47v.09c.01-.08.04-.14.1-.19l-.09.04c.08-.04.15-.04.23,0l-.14-.06c.05.03.23.12.27.12.12-.01.14-.09.1-.19-.08-.22-.34-.46-.49-.61l-.3-.29c-.1-.12-.22-.2-.37-.25Z"/>
          <path class="cls-5" d="M13.5,16.5c-.08-.02-.16-.06-.25-.05-.11.02-.21.06-.3.13-.08.05-.13.13-.13.24-.06.09-.07.18-.04.28l.51.65c.29.31.6.58.96.8l-.07-.05c.15.19.34.3.56.35.17.07.34.09.52.05.26-.06.5-.19.74-.32.19-.1.39-.21.57-.33.22-.15.32-.22.26-.51-.11-.59-.65-.91-1.16-1.13-.21-.12-.43-.17-.66-.13-.22-.02-.42.04-.61.18-.29.19-.51.46-.76.7l.08-.06-.49.11,1.67.42-.12-.15c-.09-.12-.3-.15-.43-.19-.33-.1-.67-.17-1.01-.21-.11-.01-.26-.04-.35.05-.09.1.05.18.13.23.14.11.29.18.47.22.2.06.41.12.61.16.16.04.33.07.5.09.22,0,.42-.06.6-.18l-.12.04.28-.03h-.13s.05.02.08.03l-.05-.17v.11c.11-.07.24-.14.37-.2-.24.03-.37.05-.58.14l.09-.04-.16.02h.09c-.14-.05-.28-.02-.4.08h.1c-.09-.02-.18-.05-.27-.07l.14.12-.03-.16-.1.15c.1-.01.16,0,.25.04l-.17-.06s.09.04.14.06l.17.06.1-.03v-.11c-.04-.11-.12-.21-.22-.28-.23-.22-.48-.42-.73-.62-.21-.16-.42-.35-.68-.43Z"/>
          <path class="cls-5" d="M14.14,17.32c-.13-.04-.26-.09-.4-.08-.12,0-.22.03-.31.11-.12.08-.19.19-.23.34-.03.06-.02.12.02.17.11.2.23.38.38.55.23.27.47.53.71.8.35.36.86.9,1.43.78.46-.09.92-.32,1.31-.58.17-.1.32-.23.45-.38.05-.08.06-.16.04-.25.02-.19-.03-.37-.16-.53-.1-.11-.2-.22-.31-.32-.12-.08-.24-.16-.36-.22-.22-.11-.46-.18-.71-.21-.11-.05-.23-.06-.35-.04-.26.01-.51.05-.76.13-.23.05-.46.1-.68.16-.2.13-.41.23-.64.28l.13-.02h-.24c-.07-.01-.15-.02-.2.04s-.06.15-.02.21c.05.07.14.1.22.12.12.04.26.07.38.06.16,0,.31-.03.46-.09.17-.05.32-.12.47-.21h-.13c.3.02.59.03.89.06l-.08-.02.38.12-.08-.04c.21.23.17.24.45.19h-.09s.07.02.1.04l-.06-.07.12.18-.03-.09.02.24v-.09c-.04.05-.07.11-.1.16l.1-.08-.3.21.39-.11c-.25.03-.35.03-.55.11l.12-.03c-.28.07-.54.09-.83.1h.09c-.21-.15-.42-.3-.62-.47-.32-.11-.52-.32-.6-.61l-.07.16.15-.16-.07.06.11-.03h-.09c.08,0,.15,0,.23,0h-.09c.12.02.23.06.35.09.14.05.25-.09.2-.22-.07-.11-.15-.2-.25-.28-.09-.09-.19-.16-.3-.22Z"/>
          <path class="cls-5" d="M12.6,17.17c-.21-.04-.44-.02-.59.16-.04.07-.07.14-.11.21-.04.07-.07.14-.09.21.05.16.13.31.23.44.15.32.36.59.63.82.2.22.45.45.67.64.19.21.42.35.68.41.1.08.2.1.3.07.43-.09.84-.22,1.25-.39.14-.05.5-.2.64-.28s.31-.18.34-.35c.04-.27,0-.55-.11-.8-.08-.18-.2-.35-.33-.5-.23-.25-.46-.47-.75-.65s-.56-.3-.92-.33c-.17-.01-.35.04-.51.1-.24.08-.44.21-.65.34-.18.12-.36.24-.53.36-.14.14-.3.23-.48.29l.43-.02c-.19-.03-.39-.03-.58-.02-.08.02-.12.06-.14.13-.03.23.41.25.53.26.26.06.51.02.75-.13.09-.06.17-.14.23-.23.13-.12.26-.24.39-.36.17-.15.36-.25.58-.32l-.16.02.5.11-.07-.02c.21.06.4.15.58.28.51.27.78.75.82,1.44l.07-.12-.5.32c-.19.07-.38.14-.57.19-.3.09-.6.16-.91.22l.07.04c-.26-.09-.47-.24-.65-.45-.26-.17-.51-.36-.74-.57l.08.13-.19-.43.03.07-.05-.22-.03.09.08-.23-.04.08.06-.07-.09.03.16-.05-.09.03c.07,0,.13.02.19.04.07,0,.12-.03.15-.1.02-.1,0-.19-.08-.28-.09-.15-.18-.3-.29-.44-.05-.1-.13-.15-.23-.18Z"/>
        </g>
        <ellipse class="cls-1" cx="16.12" cy="15.53" rx=".57" ry="1.06"/>
        <ellipse class="cls-1" cx="23.95" cy="15.53" rx=".57" ry="1.06"/>
        <ellipse class="cls-3" cx="3" cy="16.08" rx="3.27" ry="1.97" transform="translate(-7.64 3.65) rotate(-30)"/>
        <ellipse class="cls-3" cx="36.77" cy="16.08" rx="1.97" ry="3.27" transform="translate(4.46 39.88) rotate(-60)"/>
        <g>
          <path class="cls-4" d="M13.06,32.04c-.1,0-.2-.05-.26-.12l-2.24-2.79c-.11-.14-.09-.35.05-.46.14-.11.35-.09.46.05l1.97,2.46,1.8-2.45c.11-.15.32-.18.46-.07.15.11.18.32.07.46l-2.06,2.79c-.06.08-.16.13-.26.13,0,0,0,0,0,0Z"/>
          <path class="cls-4" d="M13.05,31.98c-.18,0-.33-.15-.33-.33v-3.35c0-.18.15-.33.33-.33s.33.15.33.33v3.35c0,.18-.15.33-.33.33Z"/>
        </g>
        <g>
          <path class="cls-4" d="M27.18,32.04c-.1,0-.2-.05-.26-.12l-2.24-2.79c-.11-.14-.09-.35.05-.46.14-.11.35-.09.46.05l1.97,2.46,1.8-2.45c.11-.15.32-.18.46-.07.15.11.18.32.07.46l-2.06,2.79c-.06.08-.16.13-.26.13,0,0,0,0,0,0Z"/>
          <path class="cls-4" d="M27.17,31.98c-.18,0-.33-.15-.33-.33v-3.35c0-.18.15-.33.33-.33s.33.15.33.33v3.35c0,.18-.15.33-.33.33Z"/>
        </g>
      </g>
    </g>
  </g>
</svg>