<?xml version="1.0" encoding="UTF-8"?>
<svg id="Layer_2" data-name="Layer 2" xmlns="http://www.w3.org/2000/svg" viewBox="0 0 125.96 161.24">
  <defs>
    <style>
      .cls-1 {
        fill: #000;
      }

      .cls-1, .cls-2, .cls-3, .cls-4, .cls-5 {
        stroke-width: 0px;
      }

      .cls-2 {
        fill: #231f20;
      }

      .cls-3 {
        fill: #f5ca33;
      }

      .cls-4 {
        fill: #e2742a;
      }

      .cls-5 {
        fill: #e5a3c9;
        opacity: .11;
      }
    </style>
  </defs>
  <g id="Layer_1-2" data-name="Layer 1">
    <g>
      <path class="cls-3" d="M112.56,44.05C110.31,18.91,89.19,0,63.46,0S16.61,18.91,14.36,44.05c-5.9,9.13-9.33,20.81-9.33,32.49,0,32.27,26.16,47.25,58.43,47.25s58.43-14.98,58.43-47.25c0-11.68-3.43-23.36-9.33-32.49Z"/>
      <path class="cls-4" d="M70.98,50.19l-5.57-6.7c-1.07-1.29-2.83-1.29-3.9,0l-5.57,6.7c-1.07,1.29-1.07,3.4,0,4.69l5.57,6.7c1.07,1.29,2.83,1.29,3.9,0l5.57-6.7c1.07-1.29,1.07-3.4,0-4.69ZM63.15,59.42l-5.47-6.57,6.04-7.26,5.47,6.57-6.04,7.26Z"/>
      <g>
        <path class="cls-5" d="M75.22,54.13c-.58-.07-1.19-.12-1.71.22s-.74.7-.95,1.32.16.82.6,1.47c.47.77,1.01,1.5,1.61,2.17.39.62.85,1.18,1.37,1.69.52.57,1.06,1.13,1.68,1.59,1.08.79,1.52,1.08,2.85,1.22.33.06.65,0,.97-.17.69-.16,1.34-.4,1.97-.73.95-.45,1.93-.92,2.75-1.59l.71-.63c.24-.21.32-.49.24-.82.05-.29.06-.57.03-.86l-.44-1.3c-.47-.78-1.06-1.46-1.76-2.03l-.93-.71c-.2-.15-.42-.29-.65-.4-.59-.36-1.22-.65-1.88-.89-.32.02-.64.08-.96.17-.32.04-.64.11-.95.22l-1.43.5c-1,.42-1.98.87-2.96,1.35l-1.01.81c-.43.38-.92.6-1.48.68-.36.09-.74.42-.59.82.08.2.28.37.44.5.21.17.35.24.61.15.51-.09.97-.3,1.37-.61.58-.34,1.12-.75,1.6-1.22l1.19-.52c.92-.45,1.88-.82,2.86-1.13l-.22.07,1.65-.3-.23.02c.56.38,1.14.71,1.75,1l-.19-.13.81.72c.36.38.58.82.67,1.32.15.32.18.65.09.99,0,.53-.15,1.03-.46,1.48l.66-.46c-.66.29-1.31.6-1.99.83-.74.26-1.48.44-2.25.62l.28-.04-1.07.15.27.02-.98-.23.24.09c-2.36-1.47-4.23-2.63-5.35-5.71l-.05.5.4-.7-.39.4.68-.32h-.24c.33.01.63.05.96.1s.74-.27.72-.62c-.01-.33-.6-1.05-.94-1.09Z"/>
        <path class="cls-5" d="M73.78,53.59c-.3-.07-.56-.12-.86-.07-.19.03-.37.08-.55.14-.53.27-.87.71-1.03,1.32-.1.29-.02.54.23.75.35.7.79,1.35,1.3,1.93.84,1,1.8,1.88,2.87,2.63.78.6,1.48,1.25,2.54,1.19,1.94-.11,3.57-1.38,5.08-2.48.41-.11.66-.35.75-.71l-.04-.81c-.16-1.11-1.24-2.15-2.11-2.71l-1.1-.62c-.68-.37-1.4-.6-2.17-.67-.51-.14-1.01-.03-1.49.32-.72.37-1.4.79-2.05,1.29l.25-.17c-.45.31-.92.58-1.41.8-.37.23-.77.35-1.2.36l4.92,1-1.37-.5c-.87-.27-1.76-.5-2.65-.69-.4-.16-.8-.2-1.2-.11-.21-.02-.37.07-.47.27,0,.3.17.51.48.62,1.28.6,2.67.98,4.06,1.22.86.15,1.49.14,2.32-.04l.23-.21-.03-.47-.41.38.37-.14-.3.03c.23.05.41.16.65.13.13-.02.25-.07.36-.15.2-.15.43-.19.69-.13l-.27-.11.63.31-.23-.18.16.32-.02-.29-.12.34.25-.23-.76.45,1.97-.26-2.14-.03.69.03-1.09-.05.33.06c-.29-.05-.57-.13-.85-.24-.21-.1-.4-.05-.55.12l-1.62,3.05,2.24-2.31-1.33.02.31.05c-.84-.12-1.63-.39-2.36-.81l.61.31-2.2-1.6,2.07,2.23.09-.57-.08.31.14-.11-.31.07c.3-.03.52.07.8.16.27.05.42-.07.44-.35-.08-.49-.3-.93-.66-1.3-.54-.74-1.1-1.46-1.7-2.15-.28-.43-.65-.74-1.11-.94Z"/>
        <path class="cls-5" d="M74.14,49.93c-.51-.19-1.1-.4-1.64-.19-.65.24-1.15,1.05-1.19,1.69v.3c.66,1.09,1.4,2.12,2.22,3.08.49.61.99,1.22,1.49,1.83l.87,1.1c.72.82,1.12,1.1,1.96,1.54.25.18.52.31.82.38l1.43-.4c.72-.27,1.42-.58,2.09-.94.65-.31,1.27-.66,1.88-1.04.64-.41,1.44-.85,1.77-1.58.14-.31.24-.72.27-1.07.1-.99-.52-1.83-1.08-2.55-.19-.26-.43-.49-.7-.67-.58-.55-1.25-.99-1.99-1.32l-1.57-.6c-.79-.27-1.57-.27-2.33,0-.52.06-1.02.23-1.47.49-.59.24-1.16.53-1.69.88l-1.13.61c-.5.4-1.06.65-1.69.76l2.57-.19-1.06-.13c-.53-.03-1.06-.02-1.58.03-.27-.03-.5.04-.69.21-.31.23-.28.73.15.85.41.11.79.22,1.22.24.58.03,1.21-.04,1.77-.18.43-.11.83-.22,1.22-.42.65-.33,1.41-.49,2.09-.7l-.27.08,1.18-.21h-.29c.56-.07,1.11-.03,1.65.09,1.25.22,2.44.66,3.55,1.34l-.41-.38,1.11,1.96-.07-.56-.11.95.19-.46c-.39.59-.89,1.05-1.51,1.39-.52.35-1.06.66-1.61.96-.57.33-1.15.62-1.75.88-2.17-.25-3.72-1.35-4.65-3.3l.22.52-.17-2.39-.2.23.55-.47-.24.18.31-.08-.4-.04.73.08-.4-.06c.28.09.54.19.81.31.25.13.47.11.67-.07.13-.23.11-.46-.08-.67-.4-.45-.85-.87-1.33-1.23-.46-.39-.96-.74-1.49-1.04Z"/>
        <path class="cls-5" d="M76.22,53.03c-.33-.09-.62-.17-.96-.09-.17.04-.34.09-.51.15-.49.29-.79.73-.89,1.32v.33c.78,1.26,1.74,2.34,2.89,3.26.88.66,1.74,1.34,2.58,2.04.64.33,1.3.47,2,.41.35.09.67.05.97-.12.39-.1.74-.27,1.05-.52.38-.23.73-.51,1.04-.82.36-.32.7-.66,1.03-1,.42-.34.75-.75,1.01-1.22-.03-.42-.13-.83-.28-1.22l-.59-1.02c-.66-.72-1.45-1.21-2.39-1.47-.78-.22-1.57-.36-2.37-.42-.57-.03-1.15.04-1.69.23-1.31.47-2.06,1.87-2.87,2.91l.29-.13-1.29.33,5.14,2.25-.24-.49-.37-.36-.88-.45c-.99-.47-2.05-.87-3.1-1.18-.33-.1-.81-.28-1.12-.03-.33.26.07.59.29.78,1.12.98,2.8,1.58,4.05,2.19-.22-.11,1.6.84,1.63.25l.34-6.01-2.54,4.54,2.25-2.26-1.57,1.44,2.47-1.57-2.23.99,6.22.85-5.63-2.56,1.66,5.46.39-4.46-1.31,3.57,1.68-3.29-2.82,1.66,1.52-.8c-1.17.11-2.31-.04-3.44-.43l1.84.46-3.82-1.82,3.82,2.69.1-.1-.3.12c.41-.09.78.08,1.17.19.29.02.42-.12.38-.41-.2-.51-.52-.94-.97-1.28-.72-.71-1.46-1.4-2.24-2.05-.38-.41-.83-.7-1.36-.85Z"/>
        <path class="cls-5" d="M75.75,49.45c-.52-.16-1.09-.3-1.62-.08l-.5.37c-.23.19-.36.44-.39.74-.18.25-.24.53-.17.81l1.39,2.07,1.18,1.52c.43.66.89,1.3,1.39,1.91.34.54.77.98,1.3,1.34.62.63,1.35,1.07,2.2,1.35.7.28,1.64-.29,2.31-.57,1.1-.46,2.19-1.02,3.17-1.7.39-.27.84-.53,1.13-.91.41-.35.63-.78.64-1.3.08-.27.11-.53.07-.81-.06-.43-.23-.91-.39-1.32-.35-.92-1.42-1.68-2.23-2.21-1.28-.85-2.99-1.41-4.51-1.36-.98.03-1.93.48-2.83.83l-1.07.42c-.76.24-1.47.58-2.14,1.02l.35-.15-.84.26,1.07-.15h-.63c-.43-.02-1.4-.14-1.64.37-.07.19-.06.38.03.56.14.2.33.29.58.26.54.08,1.02.11,1.56,0,.83-.17,1.53-.51,2.28-.87l-.86.19c1.31-.17,2.5-.3,3.81-.35h-.27c.46.06.92.13,1.38.2l-.27-.11c.76.36,1.53.7,2.31,1.03,1.52.23,2.12,1.19,1.8,2.9l.15-.19c-1.47,1.17-3.02,2.11-4.72,2.91h.37c-.76-.21-1.4-.59-1.93-1.16-1.72-1.36-2.76-3.23-3.14-5.62l-.14.26c.21-.23.47-.34.77-.35l-.34.03c.48.01.89.12,1.35.25.57.15.77-.4.51-.81-.36-.34-.75-.64-1.18-.89-.41-.28-.85-.5-1.31-.67Z"/>
        <path class="cls-5" d="M72.05,51.89c-.23-.07-.46-.17-.7-.14-.35.04-.66.19-.93.4-.44.29-.7.72-.77,1.31l-.06.29c.23.5.5.97.81,1.42.49.97,1.15,1.83,1.96,2.57.54.6,1.22,1.35,1.82,1.86l1.37,1.06c.68.55,1.39.68,2.14.39,1.26-.26,2.5-.63,3.73-1.02.6-.18,1.18-.39,1.75-.63.28-.06.53-.18.74-.36l.78-.8c.06-.27.08-.54.04-.82.03-.3.02-.59-.04-.88l-.38-1.14c-.2-.57-.74-1.31-1.07-1.67-.73-.79-1.66-1.6-2.58-2.13l-1.36-.7c-.29-.14-.6-.21-.93-.22-.31-.1-.62-.14-.94-.14l-1.25.35c-.54.18-1.08.54-1.55.87-.76.52-1.5,1.2-2.2,1.79l.23-.2c-.47.43-1.02.73-1.64.88l2.24-.13c-.73-.03-1.46-.06-2.18-.09-.35-.06-.65.02-.92.22-.14.18-.16.36-.04.56.23.24.52.36.88.36,1.15.21,2.29.09,3.42-.34.28-.22.55-.46.82-.7.29-.43.61-.84.96-1.22.42-.49.93-.86,1.53-1.11l-.49.09c1.52.07,2.8.63,3.83,1.68.99.55,1.73,1.34,2.23,2.35l-.25-.5-.92,3.07c-.66.24-1.33.44-2.01.61-1.08.29-2.14.5-3.24.68l.22.1c-.85-.32-1.54-.84-2.08-1.57-.37-.2-.75-.38-1.15-.54l.39.29-1.19-2.75-.06.29.27-.66-.11.28.2-.16-.28.1c.15-.05.3-.04.45.02l-.35-.13c.12.05.24.1.36.15.2.08.43.21.64.06.32-.24.11-.66-.04-.92-.28-.52-.63-.99-1-1.45-.32-.4-.62-.83-1.12-.99Z"/>
        <path class="cls-5" d="M73.62,54.3c-.56-.06-1.12-.1-1.62.22-.4.26-.62.55-.79.99-.12.3-.27.56-.23.89.62,1.22,1.39,2.34,2.31,3.35l1.25,1.71c.67.85,1.46,1.55,2.37,2.11.67.57,1.45.92,2.34,1.05.81.23,1.71-.28,2.47-.57,1.06-.41,2.09-.88,3.08-1.45.37-.21.75-.41,1.07-.69.73-.64.94-1.19.7-2.21-.13-.56-.3-1.14-.59-1.64-.4-.69-.94-1.26-1.5-1.81-.89-.87-1.9-1.62-3.02-2.18-1.62-.81-1.78-.52-3.4-.07-.37.09-.71.24-1.04.44-.77.32-1.5.71-2.2,1.17l-1.39.84c-.55.41-1.11.81-1.68,1.2l.19-.11-.47.03c-.39.02-.71.49-.56.84.09.21.3.37.47.5.23.17.35.23.63.14.21-.04.41-.12.59-.24.51-.42.93-.92,1.27-1.5l-.34.35c.98-.59,1.96-1.18,2.95-1.75,1.24-.88,2.63-1.18,4.18-.88,1.37.49,2.49,1.29,3.36,2.41.79,1.11,1.09,2.3.92,3.58l.04-.23-.67.66.22-.18c-.65.36-1.32.68-2.02.96l.25-.1c-1.32.49-3.17,1.45-4.6.68l-1.23-.91c-2.07-1.31-3.53-3.21-4.36-5.69l-.08.5c.1-.61.38-.88.86-.82h-.24c.17.02.33.04.5.06.32.04.75-.19.78-.55.02-.29-.46-1.06-.77-1.09Z"/>
        <path class="cls-5" d="M77.24,51.97c-.58-.12-1.22-.25-1.73.15-.46.36-.87.83-.82,1.48-.04.42.17.77.61,1.05.55.91,1.21,1.72,1.99,2.44.73.77,1.45,1.58,2.25,2.28.53.56,1.17.9,1.91,1.02.27.16.55.22.85.18.46,0,.92-.21,1.34-.38.8-.31,1.55-.77,2.27-1.22.62-.39,1.45-.88,1.85-1.5.24-.36.25-.85.23-1.28-.05-.88-.55-1.31-1.07-1.86-.48-.51-1.01-.9-1.65-1.2s-1.26-.47-1.93-.6c-1.08-.21-2.02-.18-3.06.27-.56.25-1.09.55-1.65.78-.36.14-.72.27-1.08.4-.5.22-1.02.34-1.57.35h1.98c-.53-.06-1.06-.14-1.59-.22-.42-.06-1.34-.22-1.56.31s.31.7.72.79c.8.17,1.55.32,2.37.28s1.68-.18,2.51-.35l-1.25-.09c.78.08,1.53.28,2.24.58l-.29-.13.74.53-.45-.83.21.64c.1.31.31.64.69.44.2-.17.43-.23.69-.17l-.28-.11.51.32-.3-.47.11.59.03-.3-.17.32.39-.24c-.88.43-.85.3-1.38.88l.23-.2-.46.3.26-.15-.57.23.28-.09-.62.12.29-.02-.5.04.28.06c-1.11-1-2.73-1.32-3.21-3.11l-.18.53.45-.43-.23.19c.2-.09.4-.12.61-.09l-.35-.03c.28.03.56.09.84.14.54.1.86-.24.58-.76-.33-.38-.71-.72-1.12-1.02-.39-.32-.82-.6-1.28-.82Z"/>
        <path class="cls-5" d="M73.03,51c-.72-.32-1.42-.11-1.97.44-1.3,1.29.29,2.79,1.06,3.71.48.57,1.01,1.14,1.56,1.65.54.44,1.09.87,1.65,1.29.49.37.98.75,1.46,1.12.34.22.81.42,1.2.5.3.07.6.02.89-.13.57-.13,1.14-.29,1.7-.48.94-.31,1.86-.63,2.74-1.08.33-.11.6-.31.82-.58.21-.15.38-.33.5-.56l.17-.94c0-.25-.06-.5-.14-.74-.19-.78-.29-.93-.86-1.7-.34-.46-.77-.84-1.23-1.18-.77-.58-1.78-1.24-2.69-1.48l-1.51-.27c-.29.01-.58.07-.85.17-1.82.47-3.31,1.75-4.93,2.65l.37-.17-.78.18,3.75.14-.48-.12c-.63-.14-1.28-.23-1.93-.26-.65-.06-1.3-.06-1.94,0-.29.03-.47.17-.55.44.04.27.2.44.48.51.47.18.9.31,1.41.37.72.09,1.48.12,2.2.08.43-.02.91-.04,1.33-.14.37-.09.73-.29,1.09-.42.25-.1.49-.19.76-.24.37-.07.72-.02,1.09.05.32.06.63.11.95.16,1.11.16,2.83.9,2.33,2.59l.14-.21-.67.55c-.31.14-.63.25-.95.35-.79.26-1.59.46-2.4.65l.23-.04-1.11.14.24.03-.7-.41.21.13c-.15-.47-.43-.81-.82-1-.65-.34-1.18-.84-1.61-1.48l.02.29c.01-.24.11-.44.28-.6l-.29.13c.25-.12.49-.12.72,0l-.45-.18c.17.08.72.39.85.37.38-.05.44-.28.32-.62-.25-.69-1.09-1.46-1.55-1.93l-.94-.93c-.31-.39-.7-.65-1.16-.78Z"/>
        <path class="cls-5" d="M75.01,50.97c-.25-.07-.52-.2-.78-.16-.36.05-.68.19-.94.43-.26.17-.4.42-.4.75-.18.28-.22.57-.14.88l1.6,2.05c.9.98,1.92,1.83,3.03,2.54l-.24-.17c.48.59,1.07.96,1.77,1.12.52.23,1.08.28,1.65.16.82-.19,1.59-.62,2.33-1,.62-.32,1.22-.65,1.8-1.05.7-.48,1.01-.7.84-1.6-.36-1.87-2.05-2.88-3.67-3.57-.66-.39-1.36-.53-2.09-.42-.7-.06-1.34.13-1.92.56-.91.61-1.62,1.45-2.39,2.21l.26-.18-1.55.35,5.29,1.34-.38-.49c-.29-.37-.94-.48-1.35-.6-1.04-.31-2.13-.54-3.2-.67-.34-.04-.84-.14-1.1.15-.28.31.16.56.4.72.44.35.93.59,1.48.71.64.2,1.29.37,1.94.51.52.14,1.05.23,1.58.29.69-.01,1.33-.2,1.91-.58l-.39.13.88-.11h-.4c.09.04.17.07.26.09l-.16-.54-.04.36,1.21-.65c-.75.1-1.18.17-1.83.45l.27-.11-.5.07.29-.04c-.46-.12-.88-.02-1.26.29h.31c-.28-.07-.56-.15-.85-.23l.45.38-.11-.5-.3.47c.31-.03.5.02.8.12l-.55-.19c.15.06.3.12.45.17l.55.2.32-.1.03-.33c-.16-.36-.4-.66-.72-.9-.73-.7-1.51-1.34-2.3-1.96-.66-.52-1.32-1.1-2.14-1.35Z"/>
        <path class="cls-5" d="M77.01,53.56c-.42-.14-.82-.28-1.27-.27-.37-.02-.7.1-.99.34-.37.25-.61.61-.72,1.08-.08.19-.06.38.07.54.34.63.74,1.22,1.21,1.75.74.85,1.49,1.69,2.24,2.52,1.1,1.15,2.71,2.84,4.53,2.48,1.47-.29,2.91-1.01,4.15-1.83.54-.33,1.02-.73,1.44-1.2.15-.24.19-.51.12-.8.07-.61-.1-1.17-.52-1.68-.32-.34-.64-.68-.97-1.02-.37-.26-.75-.49-1.14-.71-.71-.35-1.46-.57-2.24-.67-.36-.14-.73-.19-1.1-.14-.82.04-1.62.17-2.41.4-.72.16-1.44.33-2.16.51-.62.42-1.29.71-2.02.88l.41-.05-.76-.03c-.22,0-.46-.03-.63.15s-.18.47-.06.66c.15.23.44.3.69.38.38.11.81.23,1.21.18.51,0,.99-.1,1.45-.3.52-.16,1.02-.39,1.5-.67l-.41.04c.96.03,1.88.06,2.83.15l-.27-.05,1.2.37-.25-.14c.66.74.54.76,1.43.61h-.29c.1.04.21.08.31.11l-.19-.22.39.57-.11-.27.06.78-.02-.3-.29.5.31-.26-.96.65,1.23-.34c-.8.09-1.1.09-1.73.35l.39-.11c-.88.22-1.72.28-2.62.32l.29.02c-.67-.49-1.33-.99-1.97-1.51-1.01-.35-1.65-1-1.91-1.94l-.21.52.46-.49-.22.18.36-.1h-.29c.24,0,.48.02.72.03h-.3c.38.07.74.18,1.12.3.45.14.78-.28.65-.7-.22-.33-.47-.63-.78-.89-.28-.28-.6-.52-.95-.7Z"/>
        <path class="cls-5" d="M72.15,53.08c-.66-.14-1.4-.05-1.86.51-.12.22-.23.43-.33.66-.13.21-.22.44-.28.68.16.51.4.97.74,1.39.49,1,1.15,1.87,2,2.6.65.7,1.42,1.44,2.14,2.04.6.67,1.32,1.1,2.16,1.3.31.25.63.31.96.21,1.37-.29,2.67-.71,3.97-1.22.44-.17,1.58-.62,2.01-.9s.99-.57,1.07-1.11c.12-.86,0-1.74-.36-2.54-.26-.58-.62-1.12-1.05-1.59-.73-.79-1.47-1.48-2.39-2.07s-1.77-.95-2.92-1.04c-.55-.04-1.09.14-1.62.32-.75.27-1.4.66-2.06,1.09-.57.37-1.14.75-1.69,1.15-.44.43-.94.73-1.52.9l1.35-.08c-.61-.09-1.22-.11-1.83-.07-.24.05-.38.19-.43.42-.1.73,1.29.78,1.68.84.83.19,1.62.05,2.38-.42.28-.2.53-.45.72-.74.4-.39.82-.77,1.24-1.13.54-.46,1.15-.8,1.83-1.01l-.49.07,1.59.34-.21-.07c.66.19,1.27.49,1.83.88,1.6.86,2.47,2.38,2.61,4.56l.21-.37-1.59,1.02c-.59.24-1.2.44-1.81.61-.95.28-1.9.5-2.87.69l.24.12c-.81-.28-1.5-.75-2.06-1.41-.83-.54-1.61-1.15-2.36-1.81l.26.42-.6-1.37.09.23-.14-.71-.09.28.25-.72-.14.26.2-.21-.28.1.51-.16-.28.08c.22.02.4.06.62.12.23,0,.38-.1.47-.31.06-.32-.02-.62-.24-.88-.27-.49-.58-.95-.93-1.39-.16-.3-.4-.49-.72-.56Z"/>
      </g>
      <g>
        <path class="cls-5" d="M42.99,55.44c-.58-.07-1.19-.12-1.71.22s-.74.7-.95,1.32.16.82.6,1.47c.47.77,1.01,1.5,1.61,2.17.4.62.85,1.18,1.37,1.69.52.57,1.06,1.13,1.68,1.59,1.08.79,1.52,1.08,2.85,1.22.33.06.65,0,.97-.17.69-.16,1.34-.4,1.97-.73.95-.45,1.93-.92,2.75-1.59l.71-.63c.24-.21.32-.49.24-.82.05-.29.06-.57.03-.86l-.44-1.3c-.47-.78-1.06-1.46-1.76-2.03l-.93-.71c-.2-.15-.42-.29-.65-.4-.59-.36-1.22-.65-1.88-.89-.32.02-.64.08-.96.17-.32.04-.64.11-.95.22l-1.43.5c-1,.43-1.98.87-2.96,1.35l-1.01.81c-.43.38-.92.6-1.48.68-.36.09-.74.42-.59.82.08.2.28.37.44.5.21.17.35.24.61.15.51-.09.97-.3,1.37-.61.58-.34,1.12-.75,1.6-1.22l1.19-.52c.92-.45,1.88-.82,2.86-1.13l-.22.07,1.65-.3-.23.02c.56.38,1.14.71,1.75,1l-.19-.13.81.72c.36.38.58.82.67,1.32.15.32.18.65.09.99,0,.53-.15,1.03-.46,1.48l.66-.46c-.66.29-1.31.6-1.99.83-.74.26-1.48.44-2.25.62l.28-.04-1.07.15.27.02-.98-.23.24.09c-2.36-1.47-4.23-2.63-5.35-5.71l-.05.5.4-.7-.39.4.68-.32h-.24c.33.01.63.05.96.1s.74-.27.72-.62c-.02-.33-.6-1.05-.94-1.09Z"/>
        <path class="cls-5" d="M41.55,54.9c-.3-.07-.56-.12-.86-.07-.19.03-.37.08-.55.14-.53.27-.87.71-1.03,1.32-.1.29-.02.54.23.75.35.7.79,1.35,1.3,1.93.84,1,1.8,1.88,2.87,2.63.78.6,1.48,1.25,2.54,1.19,1.94-.11,3.57-1.38,5.08-2.48.41-.11.66-.35.75-.71l-.04-.81c-.16-1.11-1.24-2.15-2.11-2.71l-1.1-.62c-.68-.37-1.4-.6-2.17-.67-.51-.14-1.01-.03-1.49.32-.72.37-1.4.79-2.05,1.29l.25-.17c-.45.31-.92.58-1.41.8-.37.23-.77.35-1.2.36l4.92,1-1.37-.5c-.87-.27-1.76-.5-2.65-.69-.4-.16-.8-.2-1.2-.11-.21-.02-.37.07-.47.27,0,.3.17.51.48.62,1.28.6,2.67.98,4.06,1.22.86.15,1.49.14,2.32-.04l.23-.21-.03-.47-.41.38.37-.14-.3.03c.23.05.41.16.65.13.13-.02.25-.07.36-.15.2-.15.43-.19.69-.13l-.27-.11.63.31-.23-.18.16.32-.02-.29-.12.34.25-.23-.76.45,1.97-.26-2.14-.03.69.03-1.09-.05.33.06c-.29-.05-.57-.13-.85-.24-.21-.1-.4-.05-.55.12l-1.62,3.05,2.24-2.31-1.33.02.31.05c-.84-.12-1.63-.39-2.36-.81l.61.31-2.2-1.6,2.07,2.23.09-.57-.08.31.14-.11-.31.07c.3-.03.52.07.8.16.27.05.42-.07.44-.35-.08-.49-.3-.93-.66-1.3-.54-.74-1.1-1.46-1.7-2.15-.28-.43-.65-.74-1.11-.94Z"/>
        <path class="cls-5" d="M41.91,51.24c-.51-.19-1.1-.4-1.64-.19-.65.24-1.15,1.05-1.19,1.69v.3c.66,1.09,1.4,2.12,2.22,3.08.49.61.99,1.22,1.49,1.83l.87,1.1c.72.82,1.12,1.1,1.96,1.54.25.18.52.31.82.38l1.43-.4c.72-.27,1.42-.58,2.09-.94.65-.31,1.27-.66,1.88-1.04.64-.41,1.44-.85,1.77-1.58.14-.31.24-.72.27-1.07.1-.99-.51-1.83-1.08-2.55-.19-.26-.43-.49-.7-.67-.58-.55-1.25-.99-1.99-1.32l-1.57-.6c-.79-.27-1.57-.27-2.33,0-.52.06-1.02.23-1.47.49-.59.24-1.16.53-1.69.88l-1.13.61c-.5.4-1.06.65-1.69.76l2.57-.19-1.06-.13c-.53-.03-1.06-.02-1.58.03-.27-.03-.5.04-.69.21-.31.23-.28.74.15.85.41.11.79.22,1.22.24.58.03,1.21-.04,1.77-.18.43-.11.83-.22,1.22-.42.65-.33,1.41-.49,2.09-.7l-.27.08,1.18-.21h-.29c.56-.07,1.11-.03,1.65.09,1.25.22,2.44.66,3.55,1.34l-.41-.38,1.11,1.96-.07-.56-.11.95.19-.46c-.39.59-.89,1.05-1.51,1.39-.52.35-1.06.66-1.61.96-.57.33-1.15.62-1.75.88-2.17-.25-3.72-1.35-4.65-3.3l.22.52-.17-2.39-.2.23.55-.47-.24.18.31-.08-.4-.04.73.08-.4-.06c.28.09.54.19.81.31.25.13.47.11.67-.07.13-.23.11-.46-.08-.67-.4-.45-.85-.87-1.33-1.23-.46-.39-.96-.74-1.49-1.04Z"/>
        <path class="cls-5" d="M43.99,54.34c-.33-.09-.62-.17-.96-.09-.17.04-.34.09-.51.15-.49.29-.79.73-.89,1.32v.33c.78,1.26,1.74,2.34,2.89,3.26.88.66,1.74,1.34,2.58,2.04.64.33,1.3.47,2,.41.35.09.67.05.97-.12.39-.1.74-.27,1.05-.52.38-.23.73-.51,1.04-.82.36-.32.7-.66,1.03-1,.42-.34.75-.75,1.01-1.22-.03-.42-.13-.83-.28-1.22l-.59-1.02c-.66-.72-1.45-1.21-2.39-1.47-.78-.22-1.57-.36-2.37-.42-.57-.03-1.15.04-1.69.23-1.31.47-2.06,1.87-2.87,2.91l.29-.13-1.29.33,5.14,2.25-.24-.49-.37-.36-.88-.45c-.99-.47-2.05-.87-3.1-1.18-.33-.1-.81-.28-1.12-.03-.33.26.07.59.29.78,1.12.98,2.8,1.58,4.05,2.19-.22-.11,1.6.84,1.63.25l.34-6.01-2.54,4.54,2.25-2.26-1.57,1.44,2.47-1.57-2.23.99,6.22.85-5.63-2.56,1.66,5.46.39-4.46-1.31,3.57,1.68-3.29-2.82,1.66,1.52-.8c-1.17.11-2.31-.04-3.44-.43l1.84.46-3.82-1.82,3.82,2.69.1-.1-.3.12c.41-.09.78.08,1.17.19.29.02.42-.12.38-.41-.2-.51-.52-.94-.97-1.28-.72-.71-1.46-1.4-2.24-2.05-.38-.41-.83-.7-1.36-.85Z"/>
        <path class="cls-5" d="M43.52,50.75c-.52-.16-1.08-.3-1.62-.08l-.5.37c-.23.19-.36.44-.39.74-.18.25-.24.53-.17.81l1.39,2.07,1.18,1.52c.43.66.89,1.3,1.39,1.91.34.54.77.98,1.3,1.34.62.63,1.35,1.07,2.2,1.35.7.28,1.64-.29,2.31-.57,1.1-.46,2.19-1.02,3.17-1.7.39-.27.84-.53,1.13-.91.41-.35.63-.78.64-1.3.08-.27.11-.53.07-.81-.06-.43-.23-.91-.39-1.32-.35-.92-1.42-1.68-2.23-2.21-1.28-.85-2.99-1.41-4.51-1.36-.98.03-1.93.48-2.83.83l-1.07.42c-.76.24-1.47.58-2.14,1.02l.35-.15-.84.26,1.07-.15h-.63c-.43-.02-1.4-.14-1.64.37-.07.19-.06.38.03.56.14.2.33.29.58.26.54.08,1.02.11,1.56,0,.83-.17,1.53-.51,2.28-.87l-.86.19c1.31-.17,2.5-.3,3.81-.35h-.27c.46.06.92.13,1.38.2l-.27-.11c.76.36,1.53.7,2.31,1.03,1.52.23,2.12,1.19,1.8,2.9l.15-.19c-1.47,1.17-3.02,2.11-4.72,2.91h.37c-.76-.21-1.4-.59-1.93-1.16-1.72-1.36-2.76-3.23-3.14-5.62l-.14.26c.21-.23.47-.34.77-.35l-.34.03c.48.01.89.12,1.35.25.57.15.77-.4.51-.81-.36-.34-.75-.64-1.18-.89-.41-.28-.85-.5-1.31-.67Z"/>
        <path class="cls-5" d="M39.82,53.19c-.23-.07-.46-.17-.7-.14-.35.04-.66.19-.93.4-.44.29-.7.72-.77,1.31l-.06.29c.23.5.5.97.81,1.42.49.97,1.15,1.83,1.96,2.57.54.6,1.22,1.35,1.82,1.86l1.37,1.06c.68.55,1.39.68,2.14.39,1.26-.26,2.5-.63,3.73-1.02.6-.18,1.18-.39,1.75-.63.28-.06.53-.18.74-.36l.78-.8c.06-.27.08-.54.04-.82.03-.3.02-.59-.04-.88l-.38-1.14c-.2-.57-.74-1.31-1.07-1.67-.73-.79-1.66-1.6-2.58-2.13l-1.36-.7c-.29-.14-.6-.21-.93-.22-.31-.1-.62-.14-.94-.14l-1.25.35c-.54.18-1.08.54-1.56.87-.76.52-1.5,1.2-2.2,1.79l.23-.2c-.47.43-1.02.73-1.64.88l2.24-.13c-.73-.03-1.46-.06-2.18-.09-.35-.06-.65.02-.92.22-.14.18-.16.36-.04.56.23.24.52.36.88.36,1.15.21,2.29.09,3.42-.34.28-.22.55-.46.82-.7.29-.43.61-.84.96-1.22.42-.49.93-.86,1.53-1.11l-.49.09c1.52.07,2.8.63,3.83,1.68.99.55,1.73,1.34,2.23,2.35l-.25-.5-.92,3.07c-.66.24-1.33.44-2.01.61-1.08.29-2.14.5-3.24.68l.22.1c-.85-.32-1.54-.84-2.08-1.57-.37-.2-.75-.38-1.15-.54l.39.29-1.19-2.75-.06.29.27-.66-.11.28.2-.16-.28.1c.15-.05.3-.04.45.02l-.35-.13c.12.05.24.1.36.15.2.08.43.21.64.06.32-.24.11-.66-.04-.92-.28-.52-.63-.99-1-1.45-.32-.4-.62-.83-1.12-.99Z"/>
        <path class="cls-5" d="M41.39,55.61c-.56-.06-1.12-.1-1.62.22-.4.26-.62.55-.79.99-.12.3-.27.56-.23.89.62,1.22,1.39,2.34,2.31,3.35l1.25,1.71c.67.85,1.46,1.55,2.37,2.11.67.57,1.45.92,2.34,1.05.81.23,1.71-.28,2.47-.57,1.06-.41,2.09-.88,3.08-1.45.37-.21.75-.41,1.07-.69.73-.64.94-1.19.7-2.21-.13-.56-.3-1.14-.59-1.64-.4-.69-.94-1.26-1.5-1.81-.89-.87-1.9-1.62-3.02-2.18-1.62-.81-1.78-.52-3.4-.07-.37.09-.71.24-1.04.44-.77.32-1.5.71-2.2,1.17l-1.39.84c-.55.41-1.11.81-1.68,1.2l.19-.11-.47.03c-.39.02-.71.49-.56.84.09.21.3.37.47.5.23.17.35.23.63.14.21-.04.41-.12.59-.24.51-.42.93-.92,1.27-1.5l-.34.35c.98-.59,1.96-1.18,2.95-1.75,1.24-.88,2.63-1.18,4.18-.88,1.37.49,2.49,1.29,3.36,2.41.79,1.11,1.09,2.3.92,3.58l.04-.23-.67.66.22-.18c-.65.36-1.32.68-2.02.96l.25-.1c-1.32.49-3.17,1.45-4.6.68l-1.23-.91c-2.07-1.31-3.53-3.21-4.36-5.69l-.08.5c.1-.61.38-.88.86-.82h-.24c.17.02.33.04.5.06.32.04.75-.19.78-.55.02-.29-.46-1.06-.77-1.09Z"/>
        <path class="cls-5" d="M45.01,53.28c-.58-.12-1.22-.25-1.73.15-.46.36-.87.83-.82,1.48-.04.42.17.77.61,1.05.55.91,1.21,1.72,1.99,2.44.73.77,1.45,1.58,2.25,2.28.53.56,1.17.9,1.91,1.02.27.16.55.22.85.18.46,0,.92-.21,1.34-.38.8-.31,1.55-.77,2.27-1.22.62-.39,1.45-.88,1.85-1.5.24-.36.25-.85.23-1.28-.05-.88-.55-1.31-1.07-1.86-.48-.51-1.01-.9-1.65-1.2s-1.26-.47-1.93-.6c-1.08-.21-2.02-.18-3.06.27-.56.25-1.09.55-1.65.78-.36.14-.72.27-1.08.4-.5.22-1.02.34-1.57.35h1.98c-.53-.06-1.06-.14-1.59-.22-.42-.06-1.34-.22-1.56.31s.31.7.72.79c.8.17,1.55.32,2.37.28s1.68-.18,2.51-.35l-1.25-.09c.78.08,1.53.28,2.24.58l-.29-.13.74.53-.45-.83.21.64c.1.31.31.64.69.44.2-.17.43-.23.69-.17l-.28-.11.51.32-.3-.47.11.59.03-.3-.17.32.39-.24c-.88.43-.85.3-1.38.88l.23-.2-.46.3.26-.15-.57.23.28-.09-.62.12.29-.02-.5.04.28.06c-1.11-.99-2.73-1.32-3.21-3.11l-.18.53.45-.43-.23.19c.2-.09.4-.12.61-.09l-.35-.03c.28.03.56.09.84.14.54.1.86-.24.58-.76-.33-.38-.71-.72-1.12-1.02-.39-.32-.82-.6-1.28-.82Z"/>
        <path class="cls-5" d="M40.8,52.3c-.72-.32-1.42-.11-1.97.44-1.3,1.29.29,2.79,1.06,3.71.48.57,1.01,1.14,1.56,1.65.54.44,1.09.87,1.65,1.29.49.37.98.75,1.46,1.12.34.22.81.42,1.2.5.3.07.6.02.89-.13.57-.13,1.14-.29,1.7-.48.94-.31,1.86-.63,2.74-1.08.33-.11.6-.31.82-.58.21-.15.38-.33.5-.56l.17-.94c0-.25-.06-.5-.14-.74-.19-.78-.29-.93-.86-1.7-.34-.46-.77-.84-1.23-1.18-.77-.58-1.78-1.24-2.69-1.48l-1.51-.27c-.29.01-.58.07-.85.17-1.82.47-3.31,1.75-4.93,2.65l.37-.17-.78.18,3.75.14-.48-.12c-.63-.14-1.28-.23-1.93-.26-.65-.06-1.3-.06-1.94,0-.29.03-.47.17-.55.44.04.27.2.44.48.51.47.18.9.31,1.41.37.72.09,1.48.12,2.2.08.43-.02.91-.04,1.33-.14.37-.09.73-.29,1.09-.42.25-.1.49-.19.76-.24.37-.07.72-.02,1.09.05.32.06.63.11.95.16,1.11.16,2.83.9,2.33,2.59l.14-.21-.67.55c-.31.14-.63.25-.95.35-.79.26-1.59.46-2.4.65l.23-.04-1.11.14.24.03-.7-.41.21.13c-.15-.47-.43-.81-.82-1-.65-.34-1.18-.84-1.61-1.48l.02.29c.01-.24.11-.44.28-.6l-.29.13c.25-.12.49-.12.72,0l-.45-.18c.17.08.72.39.85.37.38-.05.44-.28.32-.62-.25-.69-1.09-1.46-1.55-1.93l-.94-.93c-.31-.39-.7-.65-1.16-.78Z"/>
        <path class="cls-5" d="M42.78,52.28c-.25-.07-.52-.2-.78-.16-.36.05-.68.19-.94.43-.26.17-.4.42-.4.75-.18.28-.22.57-.14.88l1.6,2.05c.9.98,1.92,1.83,3.03,2.54l-.24-.17c.48.59,1.07.96,1.77,1.12.52.23,1.08.28,1.65.16.82-.19,1.59-.62,2.33-1,.61-.32,1.22-.65,1.8-1.05.7-.48,1.01-.7.84-1.6-.36-1.87-2.05-2.88-3.67-3.57-.66-.39-1.36-.53-2.09-.42-.7-.06-1.34.13-1.92.56-.91.61-1.62,1.45-2.39,2.21l.26-.18-1.55.35,5.29,1.34-.38-.48c-.29-.37-.94-.48-1.35-.6-1.04-.31-2.13-.54-3.2-.67-.34-.04-.84-.14-1.1.15-.28.31.16.56.4.72.44.35.93.59,1.48.71.64.2,1.29.37,1.94.51.52.14,1.05.23,1.58.29.69-.01,1.33-.2,1.91-.58l-.39.13.88-.11h-.4c.09.04.17.07.26.09l-.16-.54-.04.36,1.21-.65c-.75.1-1.18.17-1.83.45l.27-.11-.5.07.29-.04c-.46-.12-.88-.02-1.26.29h.31c-.28-.07-.56-.15-.85-.23l.45.38-.11-.5-.3.47c.31-.03.5.02.8.12l-.55-.19c.15.06.3.12.45.17l.55.2.32-.1.03-.33c-.16-.36-.4-.66-.72-.9-.73-.7-1.51-1.34-2.3-1.96-.66-.52-1.32-1.1-2.14-1.35Z"/>
        <path class="cls-5" d="M44.78,54.87c-.42-.14-.82-.28-1.27-.27-.37-.02-.7.1-.99.34-.37.25-.61.61-.72,1.08-.08.19-.06.38.07.54.34.63.74,1.22,1.21,1.75.74.85,1.49,1.69,2.24,2.52,1.1,1.15,2.71,2.84,4.53,2.48,1.47-.29,2.91-1.01,4.15-1.83.54-.33,1.02-.73,1.44-1.2.15-.24.19-.51.12-.8.07-.61-.1-1.17-.52-1.68-.32-.34-.64-.68-.97-1.02-.37-.26-.75-.49-1.14-.71-.71-.35-1.46-.57-2.24-.67-.36-.14-.73-.19-1.1-.14-.82.04-1.62.17-2.42.4-.72.16-1.44.33-2.16.51-.62.42-1.29.71-2.02.88l.41-.05-.76-.03c-.22,0-.46-.03-.63.15s-.18.47-.06.66c.15.23.44.3.69.38.38.11.81.23,1.21.18.51,0,.99-.1,1.45-.3.52-.16,1.02-.39,1.5-.67l-.41.04c.96.03,1.88.06,2.83.15l-.27-.05,1.2.37-.25-.14c.66.74.54.76,1.43.61h-.29c.1.04.21.08.31.11l-.19-.22.39.57-.11-.27.06.78-.02-.3-.29.5.31-.26-.96.65,1.23-.34c-.8.09-1.1.09-1.73.35l.39-.11c-.88.22-1.72.28-2.62.32l.29.02c-.67-.49-1.33-.99-1.97-1.51-1.01-.35-1.65-1-1.91-1.94l-.21.52.46-.49-.22.18.36-.1h-.29c.24,0,.48.02.72.03h-.3c.38.07.74.18,1.12.3.45.14.78-.28.65-.7-.22-.33-.47-.63-.78-.89-.28-.28-.6-.52-.95-.7Z"/>
        <path class="cls-5" d="M39.92,54.39c-.66-.14-1.4-.05-1.86.51-.12.22-.23.43-.33.66-.13.21-.22.44-.28.68.16.51.4.97.74,1.39.49,1,1.15,1.87,2,2.6.65.7,1.42,1.44,2.14,2.04.6.67,1.32,1.1,2.16,1.3.31.25.63.31.96.21,1.37-.29,2.67-.71,3.97-1.22.44-.17,1.58-.62,2.01-.9s.99-.57,1.07-1.11c.12-.86,0-1.74-.36-2.54-.26-.58-.62-1.12-1.05-1.59-.73-.79-1.47-1.48-2.39-2.07s-1.77-.95-2.92-1.04c-.55-.04-1.09.14-1.62.32-.75.27-1.4.66-2.06,1.09-.57.37-1.14.75-1.69,1.15-.44.43-.94.73-1.52.9l1.35-.08c-.61-.09-1.22-.11-1.83-.07-.24.05-.38.19-.43.42-.1.73,1.29.78,1.68.84.83.19,1.62.05,2.38-.42.28-.2.53-.45.72-.74.4-.39.82-.77,1.24-1.13.54-.46,1.15-.8,1.83-1.01l-.49.07,1.59.34-.21-.07c.66.19,1.27.49,1.83.88,1.6.86,2.47,2.38,2.61,4.56l.21-.37-1.59,1.02c-.59.24-1.2.44-1.81.61-.95.28-1.9.5-2.87.69l.24.12c-.81-.28-1.5-.75-2.06-1.41-.83-.54-1.61-1.15-2.35-1.81l.26.42-.6-1.37.09.23-.14-.71-.09.28.25-.72-.14.26.2-.21-.28.1.51-.16-.28.08c.22.02.4.06.62.12.23,0,.38-.1.47-.31.06-.32-.02-.62-.24-.88-.27-.49-.58-.95-.93-1.39-.16-.3-.4-.49-.72-.56Z"/>
      </g>
      <ellipse class="cls-1" cx="51.05" cy="49.18" rx="1.8" ry="3.36"/>
      <ellipse class="cls-1" cx="75.86" cy="49.18" rx="1.8" ry="3.36"/>
      <ellipse class="cls-3" cx="9.49" cy="50.95" rx="10.35" ry="6.23" transform="translate(-24.2 11.57) rotate(-30)"/>
      <ellipse class="cls-3" cx="116.46" cy="50.95" rx="6.23" ry="10.35" transform="translate(14.11 126.33) rotate(-60)"/>
      <g>
        <path class="cls-4" d="M35.34,101.99c-.4,0-.79-.18-1.04-.5l-9.02-11.26c-.46-.57-.37-1.41.21-1.87.57-.46,1.41-.37,1.87.21l7.93,9.91,7.27-9.86c.44-.59,1.27-.72,1.86-.28.59.44.72,1.27.28,1.86l-8.3,11.26c-.25.33-.63.53-1.05.54,0,0-.02,0-.03,0Z"/>
        <path class="cls-4" d="M35.33,101.73c-.74,0-1.33-.6-1.33-1.33v-13.49c0-.74.6-1.33,1.33-1.33s1.33.6,1.33,1.33v13.49c0,.74-.6,1.33-1.33,1.33Z"/>
      </g>
      <g>
        <path class="cls-4" d="M92.25,101.99c-.4,0-.79-.18-1.04-.5l-9.02-11.26c-.46-.57-.37-1.41.21-1.87.57-.46,1.41-.37,1.87.21l7.93,9.91,7.27-9.86c.44-.59,1.27-.72,1.86-.28.59.44.72,1.27.28,1.86l-8.3,11.26c-.25.33-.63.53-1.05.54,0,0-.02,0-.03,0Z"/>
        <path class="cls-4" d="M92.23,101.73c-.74,0-1.33-.6-1.33-1.33v-13.49c0-.74.6-1.33,1.33-1.33s1.33.6,1.33,1.33v13.49c0,.74-.6,1.33-1.33,1.33Z"/>
      </g>
      <g>
        <path class="cls-2" d="M19.25,130.31c1.61,0,2.93.31,3.97.93,1.03.62,1.85,1.55,2.45,2.8.6,1.25,1.01,2.81,1.24,4.68.23,1.87.34,4.06.34,6.55,0,2.67-.12,5-.37,6.99-.25,1.99-.67,3.66-1.27,4.99-.6,1.33-1.42,2.33-2.45,2.99-1.03.66-2.33.99-3.9.99s-2.94-.34-4-1.01c-1.05-.67-1.89-1.67-2.5-3.01s-1.04-3-1.29-4.99c-.25-1.99-.37-4.31-.37-6.96,0-2.48.14-4.65.42-6.52s.73-3.43,1.36-4.68c.63-1.25,1.47-2.19,2.51-2.82s2.33-.95,3.86-.95ZM22.6,145.28c0-1.76-.04-3.3-.12-4.62-.08-1.32-.25-2.42-.5-3.3-.25-.88-.59-1.53-1.02-1.97-.43-.43-.99-.65-1.67-.65s-1.27.22-1.71.65-.77,1.09-1.01,1.97c-.24.88-.4,1.98-.48,3.3-.08,1.32-.12,2.86-.12,4.62,0,3.86.23,6.76.68,8.69.45,1.93,1.33,2.9,2.63,2.9.66,0,1.21-.24,1.64-.73.43-.49.77-1.21,1.02-2.19.25-.97.42-2.18.51-3.63.09-1.45.14-3.13.14-5.05ZM34.16,160.12c0,.74-.37,1.12-1.12,1.12h-2.67c-.76,0-1.15-.4-1.15-1.21v-28.64c0-.72.38-1.08,1.15-1.08h2.57c.81,0,1.21.38,1.21,1.15v28.67Z"/>
        <path class="cls-2" d="M45.38,149.71c-5.27,0-7.9-3.18-7.9-9.55s2.71-9.92,8.12-9.92c5.1,0,7.66,3.31,7.66,9.92s-2.62,9.55-7.87,9.55ZM39.3,156.09c-.79,0-1.18-.36-1.18-1.08v-2.14c0-.78.39-1.18,1.18-1.18h20.83c.83,0,1.24.36,1.24,1.08v7.41c0,.7-.39,1.05-1.18,1.05h-2.6c-.74,0-1.12-.35-1.12-1.05v-4.09h-17.17ZM45.32,134.62c-2.15,0-3.22,1.86-3.22,5.58,0,3.43,1.1,5.14,3.29,5.14s3.29-1.71,3.29-5.14c0-3.72-1.12-5.58-3.35-5.58ZM59.6,134.65h1.98c.64,0,.96.4.96,1.21v2.11c0,.76-.36,1.15-1.08,1.15h-1.86v1.58h1.98c.64,0,.96.39.96,1.18v2.14c0,.76-.36,1.15-1.08,1.15h-1.86v3.41c0,.81-.42,1.21-1.27,1.21h-2.48c-.85,0-1.27-.37-1.27-1.12v-17.29c0-.74.41-1.12,1.24-1.12h2.57c.81,0,1.21.35,1.21,1.05v3.35Z"/>
        <path class="cls-2" d="M87.99,130.28c.76,0,1.15.36,1.15,1.08v28.7c0,.76-.35,1.15-1.05,1.15h-2.7c-.76,0-1.15-.37-1.15-1.12v-2.45h-6.26c-.74,0-1.12-.35-1.12-1.05v-1.74c0-.7.37-1.05,1.12-1.05h6.26v-1.67h-9.79v8.12c0,.66-.29.98-.87.96h-2.98c-.66,0-.99-.34-.99-1.02v-8.06h-3.41c-.6,0-.9-.33-.9-.99v-2.45c0-.68.4-1.03,1.21-1.05h17.73v-16.24c0-.74.39-1.12,1.18-1.12h2.57ZM80.65,130.31c.76,0,1.16.36,1.18,1.08v13.17c-.02.83-.39,1.24-1.12,1.24h-13.88c-.93,0-1.39-.38-1.39-1.15v-13.17c0-.79.43-1.18,1.3-1.18h13.92ZM70.36,141.31h6.57v-6.51h-6.57v6.51Z"/>
        <path class="cls-2" d="M100.36,149.71c-5.27,0-7.9-3.18-7.9-9.55s2.71-9.92,8.12-9.92c5.1,0,7.66,3.31,7.66,9.92s-2.62,9.55-7.87,9.55ZM94.28,156.09c-.79,0-1.18-.36-1.18-1.08v-2.14c0-.78.39-1.18,1.18-1.18h20.83c.83,0,1.24.36,1.24,1.08v7.41c0,.7-.39,1.05-1.18,1.05h-2.6c-.74,0-1.12-.35-1.12-1.05v-4.09h-17.17ZM100.29,134.62c-2.15,0-3.22,1.86-3.22,5.58,0,3.43,1.1,5.14,3.29,5.14s3.29-1.71,3.29-5.14c0-3.72-1.12-5.58-3.35-5.58ZM114.58,134.65h1.98c.64,0,.96.4.96,1.21v2.11c0,.76-.36,1.15-1.08,1.15h-1.86v1.58h1.98c.64,0,.96.39.96,1.18v2.14c0,.76-.36,1.15-1.08,1.15h-1.86v3.41c0,.81-.42,1.21-1.27,1.21h-2.48c-.85,0-1.27-.37-1.27-1.12v-17.29c0-.74.41-1.12,1.24-1.12h2.57c.81,0,1.21.35,1.21,1.05v3.35Z"/>
      </g>
    </g>
  </g>
</svg>