<?xml version="1.0" encoding="UTF-8"?>
<svg id="Layer_2" data-name="Layer 2" xmlns="http://www.w3.org/2000/svg" viewBox="0 0 174.54 171.54">
  <defs>
    <style>
      .cls-1 {
        fill: #000;
      }

      .cls-1, .cls-2, .cls-3, .cls-4 {
        stroke-width: 0px;
      }

      .cls-2 {
        fill: #f5ca33;
      }

      .cls-3 {
        fill: #e2742a;
      }

      .cls-4 {
        fill: #e5a3c9;
        opacity: .11;
      }
    </style>
  </defs>
  <g id="Layer_1-2" data-name="Layer 1">
    <g>
      <path class="cls-2" d="M155.98,61.05C152.86,26.21,123.59,0,87.94,0S23.01,26.21,19.9,61.05c-8.18,12.65-12.93,28.83-12.93,45.02,0,44.72,36.25,65.47,80.97,65.47s80.97-20.75,80.97-65.47c0-16.19-4.75-32.37-12.93-45.02Z"/>
      <path class="cls-3" d="M98.37,69.55l-7.72-9.29c-1.49-1.79-3.92-1.79-5.41,0l-7.72,9.29c-1.49,1.79-1.49,4.71,0,6.5l7.72,9.29c1.49,1.79,3.92,1.79,5.41,0l7.72-9.29c1.49-1.79,1.49-4.71,0-6.5ZM87.51,82.34l-7.57-9.11,8.37-10.06,7.57,9.11-8.37,10.06Z"/>
      <g>
        <path class="cls-4" d="M104.23,75.01c-.81-.1-1.65-.17-2.37.3s-1.03.96-1.32,1.83.23,1.14.83,2.04c.66,1.07,1.4,2.07,2.23,3.01.55.86,1.18,1.64,1.9,2.35.72.79,1.47,1.57,2.33,2.2,1.5,1.1,2.1,1.49,3.94,1.69.46.09.91,0,1.34-.23.95-.22,1.86-.56,2.73-1.02,1.31-.63,2.68-1.27,3.81-2.2l.98-.87c.33-.29.44-.67.33-1.13.08-.4.09-.79.04-1.19l-.61-1.8c-.65-1.08-1.46-2.02-2.44-2.81l-1.29-.98c-.28-.21-.58-.4-.9-.55-.82-.5-1.69-.91-2.6-1.23-.45.03-.89.11-1.33.23-.45.05-.89.15-1.31.3l-1.98.7c-1.38.59-2.75,1.21-4.1,1.87l-1.39,1.13c-.59.52-1.28.83-2.05.94-.5.13-1.03.58-.81,1.13.11.28.38.51.62.69.3.23.48.33.85.21.71-.13,1.34-.41,1.9-.85.81-.47,1.55-1.03,2.21-1.7l1.64-.72c1.28-.62,2.6-1.14,3.96-1.56l-.3.09,2.29-.42-.31.03c.77.52,1.58.98,2.42,1.38l-.26-.18,1.13,1c.5.52.81,1.13.93,1.83.21.44.25.9.13,1.38,0,.74-.21,1.42-.64,2.05l.92-.63c-.91.4-1.82.83-2.76,1.16-1.03.36-2.06.61-3.12.86l.39-.06-1.48.2.38.03-1.35-.32.33.12c-3.28-2.04-5.86-3.64-7.41-7.91l-.07.7.55-.97-.54.56.94-.45h-.33c.46.02.87.07,1.33.13s1.02-.38,1-.86c-.02-.45-.84-1.45-1.3-1.51Z"/>
        <path class="cls-4" d="M102.24,74.27c-.41-.09-.77-.17-1.2-.09-.26.04-.51.11-.76.19-.74.38-1.21.99-1.42,1.83-.14.4-.03.75.32,1.04.49.98,1.09,1.87,1.8,2.68,1.17,1.39,2.49,2.61,3.97,3.65,1.09.83,2.05,1.73,3.52,1.65,2.69-.16,4.94-1.91,7.04-3.44.56-.15.91-.48,1.04-.99l-.06-1.13c-.22-1.53-1.72-2.99-2.92-3.76l-1.53-.86c-.94-.52-1.94-.83-3.01-.93-.71-.19-1.4-.05-2.06.44-1,.51-1.95,1.1-2.84,1.78l.35-.24c-.62.43-1.27.8-1.95,1.11-.51.31-1.06.48-1.66.5l6.82,1.39-1.9-.69c-1.21-.38-2.44-.7-3.68-.96-.55-.22-1.11-.27-1.67-.16-.3-.03-.51.09-.65.37.01.42.23.71.66.86,1.77.83,3.69,1.35,5.62,1.68,1.19.21,2.06.2,3.22-.05l.32-.29-.04-.65-.57.53.51-.19-.41.05c.32.07.57.23.9.18.18-.03.35-.1.51-.21.28-.2.6-.26.95-.19l-.38-.15.88.43-.32-.25.23.44-.03-.4-.17.48.35-.32-1.05.62,2.74-.36-2.97-.04.95.04-1.51-.07.46.09c-.4-.08-.79-.18-1.17-.33-.3-.13-.55-.08-.76.17l-2.24,4.22,3.11-3.2-1.84.03.43.07c-1.16-.16-2.25-.54-3.27-1.12l.85.43-3.04-2.22,2.87,3.09.13-.79-.11.43.2-.16-.43.1c.41-.04.72.09,1.1.22.38.06.58-.1.61-.48-.12-.68-.42-1.28-.91-1.8-.74-1.03-1.53-2.02-2.36-2.98-.39-.59-.9-1.03-1.54-1.3Z"/>
        <path class="cls-4" d="M102.74,69.19c-.71-.27-1.52-.55-2.27-.27-.9.34-1.6,1.46-1.64,2.35v.42c.92,1.51,1.94,2.93,3.07,4.27.68.85,1.37,1.7,2.07,2.54l1.2,1.53c.99,1.14,1.55,1.53,2.71,2.13.34.26.72.43,1.13.52l1.98-.56c1-.37,1.96-.8,2.9-1.3.9-.43,1.77-.91,2.61-1.44.89-.57,1.99-1.18,2.46-2.2.2-.44.33-1,.37-1.49.13-1.37-.71-2.54-1.49-3.54-.27-.37-.59-.68-.97-.93-.81-.76-1.73-1.37-2.75-1.82l-2.18-.83c-1.1-.37-2.17-.37-3.23-.01-.73.09-1.41.31-2.04.68-.82.33-1.6.74-2.34,1.23l-1.56.85c-.69.55-1.48.9-2.34,1.05l3.56-.27-1.47-.18c-.73-.04-1.47-.03-2.2.04-.38-.05-.7.05-.95.29-.42.32-.38,1.02.21,1.18.56.15,1.1.31,1.68.33.81.04,1.68-.05,2.46-.25.59-.15,1.15-.3,1.69-.58.89-.45,1.95-.68,2.9-.98l-.38.11,1.64-.29h-.4c.77-.09,1.54-.05,2.28.13,1.73.3,3.38.92,4.92,1.86l-.57-.52,1.54,2.72-.1-.77-.16,1.32.27-.64c-.54.81-1.24,1.46-2.09,1.92-.72.48-1.47.92-2.23,1.33-.79.45-1.6.86-2.43,1.22-3.01-.34-5.16-1.87-6.44-4.57l.3.72-.24-3.31-.27.32.76-.66-.34.25.43-.11-.56-.06,1.01.11-.55-.08c.39.12.75.27,1.12.43.34.18.66.15.93-.1.18-.32.15-.63-.1-.93-.56-.63-1.18-1.2-1.85-1.71-.64-.55-1.33-1.03-2.07-1.44Z"/>
        <path class="cls-4" d="M105.62,73.49c-.46-.12-.85-.24-1.33-.12-.24.05-.47.12-.7.21-.68.4-1.1,1.01-1.24,1.83l.02.45c1.06,1.74,2.39,3.24,3.98,4.51,1.22.91,2.41,1.86,3.58,2.83.88.46,1.81.65,2.77.57.48.13.93.08,1.34-.16.54-.14,1.03-.38,1.45-.72.53-.32,1.01-.7,1.44-1.14.5-.44.97-.91,1.43-1.39.58-.47,1.05-1.04,1.4-1.69-.05-.58-.17-1.15-.38-1.69l-.82-1.41c-.91-.99-2.01-1.67-3.31-2.03-1.08-.31-2.18-.5-3.29-.59-.79-.04-1.6.05-2.35.32-1.82.66-2.85,2.59-3.98,4.03l.4-.18-1.79.46,7.12,3.11-.34-.68-.52-.5-1.23-.63c-1.38-.65-2.84-1.21-4.3-1.63-.46-.13-1.13-.38-1.55-.04-.45.36.1.81.4,1.08,1.56,1.36,3.88,2.19,5.61,3.03-.3-.15,2.22,1.16,2.26.35l.47-8.33-3.52,6.3,3.12-3.13-2.17,2,3.43-2.18-3.09,1.37,8.62,1.18-7.8-3.54,2.3,7.57.54-6.18-1.81,4.95,2.33-4.56-3.91,2.29,2.11-1.11c-1.61.15-3.2-.05-4.77-.6l2.55.63-5.29-2.52,5.29,3.73.14-.13-.42.17c.56-.13,1.09.11,1.62.26.41.02.58-.17.52-.57-.28-.71-.72-1.3-1.34-1.77-.99-.99-2.03-1.94-3.1-2.84-.53-.57-1.15-.97-1.88-1.18Z"/>
        <path class="cls-4" d="M104.97,68.52c-.72-.22-1.5-.42-2.25-.11l-.69.51c-.31.26-.49.6-.55,1.02-.25.35-.33.73-.24,1.13l1.93,2.86,1.63,2.11c.59.92,1.24,1.8,1.93,2.65.47.74,1.07,1.36,1.8,1.86.86.87,1.87,1.49,3.05,1.87.97.39,2.28-.41,3.2-.79,1.52-.64,3.03-1.41,4.39-2.35.54-.37,1.17-.73,1.57-1.26.57-.49.87-1.09.89-1.8.12-.37.15-.74.1-1.12-.08-.59-.33-1.27-.54-1.83-.49-1.28-1.97-2.33-3.09-3.06-1.77-1.17-4.14-1.95-6.25-1.88-1.36.05-2.68.67-3.92,1.15l-1.48.59c-1.05.33-2.04.81-2.96,1.41l.49-.2-1.16.36,1.48-.21h-.88c-.6-.02-1.94-.19-2.28.51-.1.26-.09.52.04.78.19.27.46.4.81.36.75.11,1.41.15,2.16,0,1.15-.23,2.12-.7,3.17-1.21l-1.19.26c1.81-.23,3.47-.42,5.29-.48l-.38-.02,1.91.29-.38-.15c1.06.5,2.12.98,3.2,1.43,2.11.31,2.94,1.65,2.5,4.02l.21-.27c-2.03,1.62-4.19,2.92-6.53,4.03h.52c-1.05-.29-1.94-.82-2.67-1.6-2.38-1.88-3.83-4.48-4.35-7.79l-.19.36c.29-.31.65-.48,1.07-.49l-.47.04c.67.01,1.24.17,1.87.34.78.21,1.07-.56.7-1.12-.5-.47-1.04-.88-1.64-1.23-.57-.38-1.18-.69-1.82-.93Z"/>
        <path class="cls-4" d="M99.85,71.9c-.31-.1-.63-.24-.97-.19-.49.06-.91.26-1.29.56-.62.4-.97,1-1.06,1.81l-.08.41c.32.69.69,1.34,1.13,1.97.68,1.35,1.59,2.54,2.71,3.56.75.83,1.69,1.87,2.53,2.58l1.9,1.46c.94.76,1.93.94,2.96.54,1.75-.36,3.46-.87,5.17-1.41.83-.24,1.63-.53,2.43-.88.39-.08.73-.25,1.03-.49l1.08-1.11c.09-.37.11-.75.06-1.13.05-.41.03-.82-.06-1.23l-.52-1.58c-.28-.79-1.03-1.82-1.49-2.31-1-1.1-2.3-2.21-3.58-2.95l-1.89-.98c-.4-.19-.83-.29-1.28-.3-.43-.13-.87-.2-1.31-.19l-1.74.48c-.75.25-1.5.75-2.15,1.2-1.06.72-2.07,1.66-3.04,2.48l.32-.27c-.66.6-1.41,1.01-2.27,1.23l3.11-.17c-1.01-.05-2.02-.09-3.03-.12-.48-.08-.91.02-1.27.31-.2.24-.22.5-.06.77.32.34.73.5,1.21.49,1.59.29,3.17.13,4.74-.47.39-.31.77-.63,1.13-.97.4-.6.85-1.16,1.33-1.69.58-.68,1.29-1.19,2.12-1.53l-.68.12c2.11.1,3.88.87,5.31,2.32,1.37.77,2.4,1.86,3.09,3.26l-.35-.69-1.27,4.25c-.91.33-1.84.61-2.78.84-1.49.4-2.97.7-4.49.94l.31.13c-1.17-.44-2.14-1.17-2.89-2.18-.51-.28-1.04-.53-1.59-.74l.55.41-1.64-3.81-.08.41.37-.92-.16.39.28-.22-.39.15c.21-.07.42-.06.62.03l-.49-.19c.16.07.33.14.5.21.27.11.6.29.88.08.44-.33.15-.92-.05-1.28-.39-.72-.88-1.37-1.39-2-.44-.55-.86-1.15-1.55-1.37Z"/>
        <path class="cls-4" d="M102.02,75.25c-.77-.08-1.56-.13-2.25.31-.56.36-.86.77-1.1,1.38-.17.42-.38.78-.32,1.23.86,1.69,1.92,3.24,3.2,4.64l1.73,2.36c.92,1.18,2.02,2.15,3.28,2.92.93.8,2,1.28,3.24,1.45,1.12.32,2.37-.39,3.42-.79,1.48-.56,2.9-1.22,4.27-2.01.51-.29,1.03-.57,1.48-.96,1.02-.89,1.31-1.65.97-3.07-.19-.78-.41-1.58-.82-2.27-.55-.95-1.3-1.74-2.08-2.5-1.23-1.2-2.63-2.25-4.18-3.02-2.25-1.12-2.46-.72-4.71-.1-.51.13-.99.33-1.44.61-1.06.45-2.08.99-3.04,1.62l-1.93,1.16c-.76.57-1.54,1.12-2.32,1.66l.27-.16-.65.04c-.54.03-.98.69-.78,1.16.12.29.41.51.65.69.31.23.49.32.87.2.3-.05.57-.16.82-.33.71-.59,1.3-1.28,1.76-2.08l-.47.48c1.36-.82,2.72-1.63,4.09-2.43,1.72-1.22,3.65-1.63,5.79-1.22,1.9.67,3.45,1.79,4.66,3.34,1.09,1.53,1.52,3.19,1.27,4.96l.05-.32-.93.92.31-.25c-.9.5-1.83.94-2.8,1.33l.35-.13c-1.82.67-4.4,2-6.37.94l-1.7-1.26c-2.87-1.82-4.89-4.44-6.04-7.88l-.11.69c.13-.84.53-1.22,1.19-1.13h-.33c.23.02.46.05.69.08.44.06,1.04-.27,1.08-.76.03-.4-.63-1.47-1.07-1.52Z"/>
        <path class="cls-4" d="M107.03,72.02c-.81-.17-1.7-.35-2.4.21-.63.5-1.2,1.15-1.13,2.05-.05.58.23,1.07.84,1.46.76,1.25,1.68,2.38,2.76,3.38,1.01,1.07,2.01,2.19,3.12,3.16.74.78,1.62,1.25,2.64,1.41.38.22.77.3,1.17.24.63,0,1.27-.29,1.86-.52,1.11-.43,2.15-1.06,3.14-1.69.86-.54,2.01-1.22,2.57-2.08.33-.51.35-1.18.32-1.77-.06-1.22-.76-1.82-1.48-2.58-.66-.71-1.4-1.25-2.29-1.66s-1.75-.66-2.67-.84c-1.5-.29-2.8-.25-4.24.38-.77.34-1.51.76-2.29,1.09-.5.19-1,.37-1.5.55-.69.31-1.41.47-2.18.49l2.75.02-2.21-.32c-.58-.08-1.86-.31-2.16.42s.43.97.99,1.09c1.11.24,2.15.44,3.29.38s2.33-.25,3.48-.48l-1.74-.12c1.08.11,2.12.38,3.11.8l-.4-.18,1.03.73-.62-1.15.29.88c.14.43.42.88.96.61.28-.24.6-.32.96-.24l-.38-.15.7.44-.42-.66.15.82.04-.42-.23.45.54-.33c-1.23.59-1.18.42-1.91,1.22l.32-.27-.64.42.36-.21-.79.31.39-.13-.85.17.41-.03-.69.06.39.08c-1.54-1.38-3.78-1.83-4.45-4.31l-.25.74.63-.6-.31.27c.27-.12.55-.16.85-.13l-.49-.04c.39.05.77.12,1.16.19.74.13,1.19-.33.8-1.05-.46-.53-.98-1-1.56-1.41-.55-.45-1.14-.83-1.77-1.14Z"/>
        <path class="cls-4" d="M101.21,70.67c-1-.44-1.96-.15-2.73.6-1.81,1.78.4,3.86,1.47,5.14.66.79,1.4,1.58,2.16,2.28.75.61,1.52,1.21,2.29,1.79.68.52,1.35,1.03,2.03,1.55.47.31,1.12.58,1.67.69.42.09.83.03,1.23-.18.8-.18,1.58-.4,2.35-.67,1.3-.43,2.58-.87,3.8-1.49.45-.16.83-.43,1.13-.8.29-.21.53-.46.7-.77l.24-1.31c-.01-.35-.08-.7-.19-1.03-.26-1.08-.4-1.28-1.19-2.36-.47-.64-1.07-1.16-1.71-1.64-1.07-.8-2.46-1.72-3.73-2.05l-2.09-.37c-.4.02-.8.1-1.18.24-2.52.65-4.59,2.43-6.83,3.68l.51-.24-1.08.24,5.19.2-.67-.17c-.88-.2-1.77-.32-2.67-.36-.9-.08-1.8-.09-2.69,0-.4.04-.66.24-.76.61.05.38.27.62.67.71.65.25,1.25.43,1.95.51.99.12,2.05.16,3.05.12.59-.03,1.26-.05,1.84-.2.51-.13,1.02-.4,1.51-.59.35-.14.68-.26,1.06-.34.51-.1,1-.03,1.51.06.44.08.88.15,1.32.22,1.54.22,3.92,1.25,3.23,3.59l.19-.29-.92.76c-.43.19-.87.35-1.32.49-1.1.36-2.2.63-3.33.9l.32-.06-1.54.19.33.04-.97-.57.28.18c-.21-.66-.59-1.12-1.14-1.39-.89-.47-1.64-1.16-2.23-2.05l.03.4c.02-.33.15-.61.39-.83l-.4.18c.35-.17.68-.16.99.01l-.62-.25c.23.11,1,.54,1.18.52.52-.06.62-.38.44-.86-.35-.95-1.51-2.02-2.14-2.67l-1.3-1.28c-.43-.54-.96-.9-1.61-1.08Z"/>
        <path class="cls-4" d="M103.94,70.63c-.34-.1-.72-.27-1.09-.22-.5.07-.94.26-1.31.59-.36.23-.55.58-.56,1.05-.24.39-.31.79-.19,1.21l2.22,2.84c1.25,1.35,2.66,2.53,4.21,3.53l-.33-.24c.66.82,1.48,1.33,2.45,1.55.73.32,1.49.39,2.29.22,1.14-.26,2.21-.85,3.23-1.39.85-.45,1.7-.91,2.49-1.45.97-.66,1.4-.97,1.16-2.22-.5-2.59-2.85-3.99-5.09-4.94-.92-.54-1.88-.73-2.9-.58-.97-.08-1.86.18-2.66.78-1.26.84-2.25,2.01-3.32,3.07l.35-.26-2.15.48,7.32,1.86-.53-.67c-.4-.51-1.3-.66-1.87-.83-1.44-.43-2.95-.74-4.44-.93-.47-.06-1.16-.2-1.52.2-.39.43.22.78.56,1,.61.48,1.29.81,2.05.98.89.28,1.78.51,2.69.71.72.19,1.45.32,2.19.4.96-.02,1.84-.28,2.65-.8l-.54.17,1.22-.15-.55.02.35.11-.22-.74-.06.5,1.68-.9c-1.04.14-1.63.24-2.54.63l.38-.15-.7.1.41-.06c-.64-.16-1.22-.03-1.74.4h.43c-.39-.1-.78-.21-1.17-.32l.63.52-.15-.69-.42.65c.43-.05.7.03,1.11.16l-.76-.27c.21.08.42.17.63.24l.77.27.44-.14.05-.46c-.22-.5-.56-.92-.99-1.25-1.01-.97-2.09-1.85-3.19-2.72-.92-.72-1.83-1.53-2.97-1.87Z"/>
        <path class="cls-4" d="M106.71,74.22c-.58-.19-1.14-.38-1.76-.37-.51-.03-.97.13-1.37.47-.51.35-.85.85-1,1.5-.11.27-.08.52.09.75.47.88,1.03,1.68,1.68,2.42,1.03,1.17,2.06,2.34,3.11,3.5,1.53,1.59,3.76,3.93,6.28,3.44,2.04-.4,4.03-1.4,5.75-2.54.75-.46,1.41-1.01,1.99-1.67.21-.34.27-.7.17-1.1.1-.85-.14-1.62-.72-2.33-.44-.48-.89-.95-1.35-1.41-.51-.36-1.04-.69-1.58-.99-.99-.48-2.02-.79-3.11-.93-.5-.2-1.01-.26-1.52-.19-1.14.06-2.25.24-3.35.55-1,.23-2,.46-3,.7-.86.58-1.79.99-2.8,1.22l.57-.07-1.05-.04c-.31-.01-.64-.05-.87.21s-.25.65-.09.92c.2.32.61.42.96.53.53.16,1.12.32,1.68.25.7,0,1.38-.14,2.01-.41.73-.22,1.42-.54,2.07-.93l-.56.06c1.33.05,2.6.09,3.93.21l-.37-.07,1.66.52-.35-.2c.91,1.03.75,1.05,1.99.84h-.4c.14.05.29.1.43.16l-.27-.3.54.79-.15-.38.09,1.07-.02-.41-.4.69.43-.36-1.33.9,1.7-.47c-1.11.12-1.52.13-2.4.49l.54-.15c-1.22.31-2.38.39-3.63.45l.4.03c-.93-.67-1.84-1.37-2.73-2.09-1.41-.49-2.29-1.39-2.65-2.68l-.3.72.64-.68-.31.25.5-.14h-.41c.33.01.67.03,1,.04l-.41-.02c.53.12,1.03.27,1.55.43.63.2,1.09-.39.9-.97-.3-.46-.66-.88-1.08-1.23-.39-.39-.83-.72-1.32-.98Z"/>
        <path class="cls-4" d="M99.98,73.56c-.91-.2-1.94-.07-2.58.7-.16.3-.32.6-.46.91-.18.29-.31.61-.39.94.22.7.56,1.34,1.02,1.93.67,1.39,1.6,2.59,2.77,3.61.9.98,1.96,1.99,2.96,2.83.83.92,1.83,1.52,2.99,1.8.43.34.88.44,1.34.29,1.89-.4,3.7-.98,5.5-1.69.61-.24,2.19-.86,2.79-1.25s1.37-.79,1.48-1.54c.17-1.19,0-2.42-.49-3.52-.36-.81-.86-1.56-1.46-2.2-1.01-1.1-2.04-2.06-3.31-2.87s-2.45-1.32-4.05-1.45c-.77-.06-1.51.19-2.24.45-1.04.37-1.94.92-2.85,1.51-.8.51-1.57,1.04-2.34,1.6-.6.59-1.31,1.01-2.11,1.25l1.87-.1c-.84-.12-1.69-.15-2.54-.1-.33.07-.53.26-.6.59-.14,1.01,1.78,1.08,2.33,1.16,1.15.26,2.25.07,3.3-.58.39-.28.73-.62,1-1.02.56-.54,1.13-1.07,1.72-1.57.74-.64,1.59-1.11,2.54-1.39l-.68.1,2.21.47-.3-.09c.91.27,1.76.67,2.53,1.21,2.22,1.19,3.42,3.3,3.62,6.31l.3-.51-2.21,1.41c-.82.33-1.66.61-2.51.84-1.32.39-2.63.69-3.98.95l.33.16c-1.13-.39-2.08-1.05-2.85-1.96-1.15-.75-2.23-1.59-3.26-2.5l.36.58-.83-1.9.13.32-.2-.98-.12.39.35-1-.19.36.28-.29-.39.13.71-.22-.39.12c.31.02.56.09.85.17.31,0,.53-.14.65-.43.08-.45-.03-.86-.33-1.23-.38-.68-.81-1.32-1.28-1.93-.23-.42-.56-.68-1-.78Z"/>
      </g>
      <g>
        <path class="cls-4" d="M59.57,76.83c-.81-.1-1.65-.17-2.37.3s-1.03.96-1.32,1.83.23,1.14.83,2.04c.66,1.07,1.4,2.07,2.23,3.01.55.86,1.18,1.64,1.9,2.35.72.79,1.47,1.57,2.33,2.2,1.5,1.1,2.1,1.49,3.94,1.69.46.09.91,0,1.34-.23.95-.22,1.86-.56,2.73-1.02,1.31-.63,2.68-1.27,3.81-2.2l.98-.87c.33-.29.44-.67.33-1.13.08-.4.09-.79.04-1.19l-.61-1.8c-.65-1.08-1.46-2.02-2.44-2.81l-1.29-.98c-.28-.21-.58-.4-.9-.55-.82-.5-1.69-.91-2.6-1.23-.45.03-.89.11-1.33.23-.45.05-.89.15-1.31.3l-1.98.7c-1.38.59-2.75,1.21-4.1,1.87l-1.39,1.13c-.59.52-1.28.83-2.05.94-.5.13-1.03.58-.81,1.13.11.28.38.51.62.69.3.23.48.33.85.21.71-.13,1.34-.41,1.9-.85.81-.47,1.55-1.03,2.21-1.7l1.64-.72c1.28-.62,2.6-1.14,3.96-1.56l-.3.09,2.29-.42-.31.03c.77.52,1.58.98,2.42,1.38l-.26-.18,1.13,1c.5.52.81,1.13.93,1.83.21.44.25.9.13,1.38,0,.74-.21,1.42-.64,2.05l.92-.63c-.91.4-1.82.83-2.76,1.16-1.03.36-2.06.61-3.12.86l.39-.06-1.48.2.38.03-1.35-.32.33.12c-3.28-2.04-5.86-3.64-7.41-7.91l-.07.7.55-.97-.54.56.94-.45h-.33c.46.02.87.07,1.33.13s1.02-.38,1-.86c-.02-.45-.84-1.45-1.3-1.51Z"/>
        <path class="cls-4" d="M57.58,76.08c-.41-.09-.77-.17-1.2-.09-.26.04-.51.11-.76.19-.74.38-1.21.99-1.42,1.83-.14.4-.03.75.32,1.04.49.98,1.09,1.87,1.8,2.68,1.17,1.39,2.49,2.61,3.97,3.65,1.09.83,2.05,1.73,3.52,1.65,2.69-.16,4.94-1.91,7.04-3.44.56-.15.91-.48,1.04-.99l-.06-1.13c-.22-1.53-1.72-2.99-2.92-3.76l-1.53-.86c-.94-.52-1.94-.83-3.01-.93-.71-.19-1.4-.05-2.06.44-1,.51-1.95,1.1-2.84,1.78l.35-.24c-.62.43-1.27.8-1.95,1.11-.51.31-1.06.48-1.66.5l6.82,1.39-1.9-.69c-1.21-.38-2.44-.7-3.68-.96-.55-.22-1.11-.27-1.67-.16-.3-.03-.51.09-.65.37.01.42.23.71.66.86,1.77.83,3.69,1.35,5.62,1.68,1.19.21,2.06.2,3.22-.05l.32-.29-.04-.65-.57.53.51-.19-.41.05c.32.07.57.23.9.18.18-.03.35-.1.51-.21.28-.2.6-.26.95-.19l-.38-.15.88.43-.32-.25.23.44-.03-.4-.17.48.35-.32-1.05.62,2.74-.36-2.97-.04.95.04-1.51-.07.46.09c-.4-.08-.79-.18-1.17-.33-.3-.13-.55-.08-.76.17l-2.24,4.22,3.11-3.2-1.84.03.43.07c-1.16-.16-2.25-.54-3.27-1.12l.85.43-3.04-2.22,2.87,3.09.13-.79-.11.43.2-.16-.43.1c.41-.04.72.09,1.1.22.38.06.58-.1.61-.48-.12-.68-.42-1.28-.91-1.8-.74-1.03-1.53-2.02-2.36-2.98-.39-.59-.9-1.03-1.54-1.3Z"/>
        <path class="cls-4" d="M58.08,71.01c-.71-.27-1.52-.55-2.27-.27-.9.34-1.6,1.46-1.64,2.35v.42c.92,1.51,1.94,2.93,3.07,4.27.68.85,1.37,1.7,2.07,2.54l1.2,1.53c.99,1.14,1.55,1.53,2.71,2.13.34.26.72.43,1.13.52l1.98-.56c1-.37,1.96-.8,2.9-1.3.9-.43,1.77-.91,2.61-1.44.89-.57,1.99-1.18,2.46-2.2.2-.44.33-1,.37-1.49.13-1.37-.71-2.54-1.49-3.54-.27-.37-.59-.68-.97-.93-.81-.76-1.73-1.37-2.75-1.82l-2.18-.83c-1.1-.37-2.17-.37-3.23-.01-.73.09-1.41.31-2.04.68-.82.33-1.6.74-2.34,1.23l-1.56.85c-.69.55-1.48.9-2.34,1.05l3.56-.27-1.47-.18c-.73-.04-1.47-.03-2.2.04-.38-.05-.7.05-.95.29-.42.32-.39,1.02.21,1.18.56.15,1.1.31,1.68.33.81.04,1.68-.05,2.46-.25.59-.15,1.15-.3,1.69-.58.89-.45,1.95-.68,2.9-.98l-.38.11,1.64-.29h-.4c.77-.09,1.54-.05,2.28.13,1.73.3,3.38.92,4.92,1.86l-.57-.52,1.54,2.72-.1-.77-.16,1.32.27-.64c-.54.81-1.24,1.46-2.09,1.92-.72.48-1.47.92-2.23,1.33-.79.45-1.6.86-2.43,1.22-3.01-.34-5.16-1.87-6.44-4.57l.3.72-.24-3.31-.27.32.76-.66-.34.25.43-.11-.56-.06,1.01.11-.55-.08c.39.12.75.27,1.12.43.34.18.66.15.93-.1.18-.32.15-.63-.1-.93-.56-.63-1.18-1.2-1.85-1.71-.64-.55-1.33-1.03-2.07-1.44Z"/>
        <path class="cls-4" d="M60.96,75.3c-.46-.12-.85-.24-1.33-.12-.24.05-.47.12-.7.21-.68.4-1.1,1.01-1.24,1.83l.02.45c1.06,1.74,2.39,3.24,3.98,4.51,1.22.91,2.41,1.86,3.58,2.83.88.46,1.81.65,2.77.57.48.13.93.08,1.34-.16.54-.14,1.03-.38,1.45-.72.53-.32,1.01-.7,1.44-1.14.5-.44.97-.91,1.43-1.39.58-.47,1.05-1.04,1.4-1.69-.05-.58-.17-1.15-.38-1.69l-.82-1.41c-.91-.99-2.01-1.67-3.31-2.03-1.08-.31-2.18-.5-3.29-.59-.79-.04-1.6.05-2.35.32-1.82.66-2.85,2.59-3.98,4.03l.4-.18-1.79.46c2.37,1.04,4.75,2.08,7.12,3.11l-.34-.68-.52-.5-1.23-.63c-1.38-.65-2.84-1.21-4.3-1.63-.46-.13-1.13-.38-1.55-.04-.45.36.1.81.4,1.08,1.56,1.36,3.88,2.19,5.61,3.03-.3-.15,2.22,1.16,2.26.35l.47-8.33-3.52,6.3,3.12-3.13-2.17,2,3.43-2.18-3.09,1.37,8.62,1.18-7.8-3.54,2.3,7.57.54-6.18-1.81,4.95,2.33-4.56-3.91,2.29,2.11-1.11c-1.61.15-3.2-.05-4.77-.6l2.55.63-5.29-2.52,5.29,3.73.14-.13-.42.17c.56-.13,1.09.11,1.62.26.41.02.58-.17.52-.57-.28-.71-.72-1.3-1.34-1.77-.99-.99-2.03-1.94-3.1-2.84-.53-.57-1.15-.97-1.88-1.18Z"/>
        <path class="cls-4" d="M60.31,70.33c-.72-.22-1.5-.42-2.25-.11l-.69.51c-.31.26-.49.6-.55,1.02-.25.35-.33.73-.24,1.13l1.93,2.86,1.63,2.11c.59.92,1.24,1.8,1.93,2.65.47.74,1.07,1.36,1.8,1.86.86.87,1.87,1.49,3.05,1.87.97.39,2.28-.41,3.2-.79,1.52-.64,3.03-1.41,4.39-2.35.54-.37,1.17-.73,1.57-1.26.57-.49.87-1.09.89-1.8.12-.37.15-.74.1-1.12-.08-.59-.33-1.27-.54-1.83-.49-1.28-1.97-2.33-3.09-3.06-1.77-1.17-4.14-1.95-6.25-1.88-1.36.05-2.68.67-3.92,1.15l-1.48.59c-1.05.33-2.04.81-2.96,1.41l.49-.2-1.16.36,1.48-.21h-.88c-.6-.02-1.94-.19-2.28.51-.1.26-.09.52.04.78.19.27.46.4.81.36.75.11,1.41.15,2.16,0,1.15-.23,2.12-.7,3.17-1.21l-1.19.26c1.81-.23,3.47-.42,5.29-.48l-.38-.02,1.91.29-.38-.15c1.06.5,2.12.98,3.2,1.43,2.11.31,2.94,1.65,2.5,4.02l.21-.27c-2.03,1.62-4.19,2.92-6.53,4.03h.52c-1.05-.29-1.94-.82-2.67-1.6-2.38-1.88-3.83-4.48-4.35-7.79l-.19.36c.29-.31.65-.48,1.07-.49l-.47.04c.67.01,1.24.17,1.87.34.78.21,1.07-.56.7-1.12-.5-.47-1.04-.88-1.64-1.23-.57-.38-1.18-.69-1.82-.93Z"/>
        <path class="cls-4" d="M55.19,73.72c-.31-.1-.63-.24-.97-.19-.49.06-.91.26-1.29.56-.62.4-.97,1-1.06,1.81l-.08.41c.32.69.69,1.34,1.13,1.97.68,1.35,1.59,2.54,2.71,3.56.75.83,1.69,1.87,2.53,2.58l1.9,1.46c.94.76,1.93.94,2.96.54,1.75-.36,3.46-.87,5.17-1.41.83-.24,1.63-.53,2.43-.88.39-.08.73-.25,1.03-.49l1.08-1.11c.09-.37.11-.75.06-1.13.05-.41.03-.82-.06-1.23l-.52-1.58c-.28-.79-1.03-1.82-1.49-2.31-1-1.1-2.3-2.21-3.58-2.95l-1.89-.98c-.4-.19-.83-.29-1.28-.3-.43-.13-.87-.2-1.31-.19l-1.74.48c-.75.25-1.5.75-2.16,1.2-1.06.72-2.07,1.66-3.04,2.48l.32-.27c-.66.6-1.41,1.01-2.27,1.23l3.11-.17c-1.01-.05-2.02-.09-3.03-.12-.48-.08-.91.02-1.27.31-.2.24-.22.5-.06.77.32.34.73.5,1.21.49,1.59.29,3.17.13,4.74-.47.39-.31.77-.63,1.13-.97.4-.6.85-1.16,1.33-1.69.58-.68,1.29-1.19,2.12-1.53l-.68.12c2.11.1,3.88.87,5.31,2.32,1.37.77,2.4,1.86,3.09,3.26l-.35-.69-1.27,4.25c-.91.33-1.84.61-2.78.84-1.49.4-2.97.7-4.49.94l.31.13c-1.17-.44-2.14-1.17-2.89-2.18-.51-.28-1.04-.53-1.59-.74l.55.41-1.64-3.81-.08.41.37-.92-.16.39.28-.22-.39.15c.21-.07.42-.06.62.03l-.49-.19c.16.07.33.14.5.21.27.11.6.29.88.08.44-.33.15-.92-.05-1.28-.39-.72-.88-1.37-1.39-2-.44-.55-.86-1.15-1.55-1.37Z"/>
        <path class="cls-4" d="M57.36,77.07c-.77-.08-1.56-.13-2.24.31-.56.36-.86.77-1.1,1.38-.17.42-.38.78-.32,1.23.86,1.69,1.92,3.24,3.2,4.64l1.73,2.36c.92,1.18,2.02,2.15,3.28,2.92.93.8,2,1.28,3.24,1.45,1.12.32,2.37-.39,3.42-.79,1.48-.56,2.9-1.22,4.27-2.01.51-.29,1.03-.57,1.48-.96,1.02-.89,1.31-1.65.97-3.07-.19-.78-.41-1.58-.82-2.27-.55-.95-1.3-1.74-2.08-2.5-1.23-1.2-2.63-2.25-4.18-3.02-2.25-1.12-2.46-.72-4.71-.1-.51.13-.99.33-1.44.61-1.06.45-2.08.99-3.05,1.62l-1.93,1.16c-.76.57-1.54,1.12-2.32,1.66l.27-.16-.65.04c-.54.03-.98.69-.78,1.16.12.29.41.51.65.69.31.23.49.32.87.2.3-.05.57-.16.82-.33.71-.59,1.3-1.28,1.76-2.08l-.47.48c1.36-.82,2.72-1.63,4.09-2.43,1.72-1.22,3.65-1.63,5.79-1.22,1.9.67,3.45,1.79,4.66,3.34,1.09,1.53,1.52,3.19,1.27,4.96l.05-.32-.93.92.31-.25c-.9.5-1.83.94-2.8,1.33l.35-.13c-1.82.67-4.4,2-6.37.94l-1.7-1.26c-2.87-1.82-4.89-4.44-6.04-7.88l-.11.69c.13-.84.53-1.22,1.19-1.13h-.33c.23.02.46.05.69.08.44.06,1.04-.27,1.08-.76.03-.4-.63-1.47-1.07-1.52Z"/>
        <path class="cls-4" d="M62.37,73.84c-.81-.17-1.69-.35-2.4.21-.63.5-1.2,1.15-1.13,2.05-.05.58.23,1.07.84,1.46.76,1.25,1.68,2.38,2.76,3.38,1.01,1.07,2.01,2.19,3.12,3.16.74.78,1.62,1.25,2.64,1.41.38.22.77.3,1.17.24.63,0,1.27-.29,1.86-.52,1.11-.43,2.15-1.06,3.14-1.69.86-.54,2.01-1.22,2.57-2.08.33-.51.35-1.18.32-1.77-.06-1.22-.76-1.82-1.48-2.58-.66-.71-1.4-1.25-2.29-1.66s-1.75-.66-2.67-.84c-1.5-.29-2.8-.25-4.24.38-.77.34-1.51.76-2.29,1.09-.5.19-1,.37-1.5.55-.69.31-1.41.47-2.18.49l2.75.02-2.21-.32c-.58-.08-1.86-.31-2.16.42s.43.97.99,1.09c1.11.24,2.15.44,3.29.38s2.33-.25,3.48-.48l-1.74-.12c1.08.11,2.12.38,3.11.8l-.4-.18,1.03.73-.62-1.15.29.88c.14.43.42.88.96.61.28-.24.6-.32.96-.24l-.38-.15.7.44-.42-.66.15.82.04-.42-.23.45.54-.33c-1.23.59-1.18.42-1.91,1.22l.32-.27-.64.42.36-.21-.79.31.39-.13-.85.17.41-.03-.69.06.39.08c-1.54-1.38-3.78-1.83-4.45-4.31l-.25.74.63-.6-.31.27c.27-.12.55-.16.85-.13l-.49-.04c.39.05.77.12,1.16.19.74.13,1.19-.33.8-1.05-.46-.53-.98-1-1.56-1.41-.55-.45-1.14-.83-1.77-1.14Z"/>
        <path class="cls-4" d="M56.54,72.48c-1-.44-1.96-.15-2.73.6-1.81,1.78.4,3.86,1.47,5.14.66.79,1.4,1.58,2.16,2.28.75.61,1.52,1.21,2.29,1.79.68.52,1.35,1.03,2.03,1.55.47.31,1.12.58,1.67.69.42.09.83.03,1.23-.18.8-.18,1.58-.4,2.35-.67,1.3-.43,2.58-.87,3.8-1.49.45-.16.83-.43,1.13-.8.29-.21.53-.46.7-.77l.24-1.31c-.01-.35-.08-.7-.19-1.03-.26-1.08-.4-1.28-1.19-2.36-.47-.64-1.07-1.16-1.71-1.64-1.07-.8-2.46-1.72-3.73-2.05l-2.09-.37c-.4.02-.8.1-1.18.24-2.52.65-4.59,2.43-6.83,3.68l.51-.24-1.08.24,5.19.2-.67-.17c-.88-.2-1.77-.32-2.67-.36-.9-.08-1.8-.09-2.69,0-.4.04-.66.24-.76.61.05.38.27.62.67.71.65.25,1.25.43,1.95.51.99.12,2.05.16,3.05.12.59-.03,1.26-.05,1.85-.2.51-.13,1.02-.4,1.51-.59.35-.14.68-.26,1.06-.34.51-.1,1-.03,1.51.06.44.08.88.15,1.32.22,1.54.22,3.92,1.25,3.23,3.59l.19-.29-.92.76c-.43.19-.87.35-1.32.49-1.1.36-2.2.63-3.33.9l.32-.06-1.54.19.33.04-.97-.57.28.18c-.21-.66-.59-1.12-1.14-1.39-.89-.47-1.64-1.16-2.23-2.05l.03.4c.02-.33.15-.61.39-.83l-.4.18c.35-.17.68-.16.99.01l-.62-.25c.23.11,1,.54,1.18.52.52-.06.62-.38.44-.86-.35-.95-1.51-2.02-2.14-2.67l-1.3-1.28c-.43-.54-.96-.9-1.61-1.08Z"/>
        <path class="cls-4" d="M59.28,72.45c-.34-.1-.72-.27-1.09-.22-.5.07-.94.26-1.31.59-.36.23-.55.58-.56,1.05-.24.39-.31.79-.19,1.21l2.22,2.84c1.25,1.35,2.66,2.53,4.21,3.53l-.33-.24c.66.82,1.48,1.33,2.45,1.55.73.32,1.49.39,2.29.22,1.14-.26,2.21-.85,3.23-1.39.85-.45,1.7-.91,2.49-1.45.97-.66,1.4-.97,1.16-2.22-.5-2.59-2.85-3.99-5.09-4.94-.92-.54-1.88-.73-2.9-.58-.97-.08-1.86.18-2.66.78-1.26.84-2.25,2.01-3.32,3.07l.35-.26-2.15.48,7.32,1.86-.53-.67c-.4-.51-1.3-.66-1.87-.83-1.44-.43-2.95-.74-4.44-.93-.47-.06-1.16-.2-1.52.2-.39.43.22.78.56,1,.61.48,1.29.81,2.05.98.89.28,1.78.51,2.69.71.72.19,1.45.32,2.19.4.96-.02,1.84-.28,2.65-.8l-.54.17,1.22-.15-.55.02.35.11-.22-.74-.06.5,1.68-.9c-1.04.14-1.63.24-2.54.63l.38-.15-.7.1.41-.06c-.64-.16-1.22-.03-1.74.4h.43c-.39-.1-.78-.21-1.17-.32l.63.52-.15-.69-.42.65c.43-.05.7.03,1.11.16l-.76-.27c.21.08.42.17.63.24l.77.27.44-.14.05-.46c-.22-.5-.56-.92-.99-1.25-1.01-.97-2.09-1.85-3.19-2.72-.92-.72-1.83-1.53-2.97-1.87Z"/>
        <path class="cls-4" d="M62.05,76.04c-.58-.19-1.14-.38-1.76-.37-.51-.03-.97.13-1.37.47-.51.35-.85.85-1,1.5-.11.27-.08.52.09.75.47.88,1.03,1.68,1.68,2.42,1.03,1.17,2.06,2.34,3.11,3.5,1.53,1.59,3.76,3.93,6.28,3.44,2.04-.4,4.03-1.4,5.75-2.54.75-.46,1.41-1.01,1.99-1.67.21-.34.27-.7.17-1.1.1-.85-.14-1.62-.72-2.33-.44-.48-.89-.95-1.35-1.41-.51-.36-1.04-.69-1.58-.99-.99-.48-2.02-.79-3.11-.93-.5-.2-1.01-.26-1.52-.19-1.14.06-2.25.24-3.35.55-1,.23-2,.46-3,.7-.86.58-1.79.99-2.8,1.22l.57-.07-1.05-.04c-.31-.01-.64-.05-.87.21s-.25.65-.09.92c.2.32.61.42.96.53.53.16,1.12.32,1.68.25.7,0,1.38-.14,2.01-.41.73-.22,1.42-.54,2.07-.93l-.56.06c1.33.05,2.6.09,3.93.21l-.37-.07,1.66.52-.35-.2c.91,1.03.75,1.05,1.99.84h-.4c.14.05.29.1.43.16l-.27-.3.54.79-.15-.38.09,1.07-.02-.41-.4.69.43-.36-1.33.9,1.7-.47c-1.11.12-1.52.13-2.4.49l.54-.15c-1.22.31-2.38.39-3.63.45l.4.03c-.93-.67-1.84-1.37-2.73-2.09-1.41-.49-2.29-1.39-2.65-2.68l-.3.72.64-.68-.31.25.5-.14h-.41c.33.01.67.03,1,.04l-.41-.02c.53.12,1.03.27,1.55.43.63.2,1.09-.39.9-.97-.3-.46-.66-.88-1.08-1.23-.39-.39-.83-.72-1.32-.98Z"/>
        <path class="cls-4" d="M55.32,75.37c-.91-.2-1.94-.07-2.58.7-.16.3-.32.6-.46.91-.18.29-.31.61-.39.94.22.7.56,1.34,1.02,1.93.67,1.39,1.6,2.59,2.77,3.61.9.98,1.96,1.99,2.96,2.83.83.92,1.83,1.52,2.99,1.8.43.34.88.44,1.34.29,1.89-.4,3.7-.98,5.5-1.69.6-.24,2.19-.86,2.79-1.25s1.37-.79,1.48-1.54c.17-1.19,0-2.42-.49-3.52-.36-.81-.86-1.56-1.46-2.2-1.01-1.09-2.04-2.06-3.31-2.87s-2.45-1.32-4.05-1.45c-.77-.06-1.51.19-2.24.45-1.04.37-1.94.92-2.85,1.51-.8.51-1.57,1.04-2.34,1.6-.6.59-1.31,1.01-2.11,1.25l1.87-.1c-.84-.12-1.69-.15-2.54-.1-.33.07-.53.26-.6.59-.14,1.01,1.78,1.08,2.33,1.16,1.15.26,2.25.07,3.3-.58.39-.28.73-.62,1-1.02.56-.54,1.13-1.07,1.72-1.57.74-.64,1.59-1.11,2.54-1.39l-.68.1,2.21.47-.3-.09c.91.27,1.76.67,2.53,1.21,2.22,1.19,3.42,3.3,3.62,6.31l.3-.51-2.21,1.41c-.82.33-1.66.61-2.51.84-1.32.39-2.63.69-3.98.95l.33.16c-1.13-.39-2.08-1.05-2.85-1.96-1.15-.75-2.23-1.59-3.26-2.5l.36.58-.83-1.9.13.32-.2-.98-.12.39.35-1-.19.36.28-.29-.39.13.71-.22-.39.12c.31.02.56.09.85.17.31,0,.53-.14.65-.43.08-.45-.03-.86-.33-1.23-.38-.68-.81-1.32-1.28-1.93-.23-.42-.56-.68-1-.78Z"/>
      </g>
      <ellipse class="cls-1" cx="70.75" cy="68.15" rx="2.49" ry="4.65"/>
      <ellipse class="cls-1" cx="105.13" cy="68.15" rx="2.49" ry="4.65"/>
      <ellipse class="cls-2" cx="13.15" cy="70.6" rx="14.34" ry="8.64" transform="translate(-33.54 16.03) rotate(-30)"/>
      <ellipse class="cls-2" cx="161.39" cy="70.6" rx="8.64" ry="14.34" transform="translate(19.56 175.07) rotate(-60)"/>
      <g>
        <path class="cls-3" d="M57.31,140.65c-.44,0-.86-.2-1.13-.54l-9.82-12.26c-.5-.63-.4-1.54.23-2.04.62-.5,1.54-.4,2.04.23l8.64,10.79,7.92-10.74c.48-.64,1.38-.78,2.03-.31.64.48.78,1.38.31,2.03l-9.04,12.26c-.27.36-.69.58-1.14.59,0,0-.02,0-.03,0Z"/>
        <path class="cls-3" d="M57.29,140.36c-.8,0-1.45-.65-1.45-1.45v-14.69c0-.8.65-1.45,1.45-1.45s1.45.65,1.45,1.45v14.69c0,.8-.65,1.45-1.45,1.45Z"/>
      </g>
      <g>
        <path class="cls-3" d="M119.29,140.65c-.44,0-.86-.2-1.13-.54l-9.82-12.26c-.5-.63-.4-1.54.23-2.04.62-.5,1.54-.4,2.04.23l8.64,10.79,7.92-10.74c.48-.64,1.38-.78,2.03-.31.64.48.78,1.38.31,2.03l-9.04,12.26c-.27.36-.69.58-1.14.59,0,0-.02,0-.03,0Z"/>
        <path class="cls-3" d="M119.27,140.36c-.8,0-1.45-.65-1.45-1.45v-14.69c0-.8.65-1.45,1.45-1.45s1.45.65,1.45,1.45v14.69c0,.8-.65,1.45-1.45,1.45Z"/>
      </g>
    </g>
  </g>
</svg>