<?xml version="1.0" encoding="UTF-8"?>
<svg id="Layer_2" data-name="Layer 2" xmlns="http://www.w3.org/2000/svg" viewBox="0 0 84.65 165.76">
  <defs>
    <style>
      .cls-1 {
        fill: #000;
      }

      .cls-1, .cls-2, .cls-3, .cls-4, .cls-5 {
        stroke-width: 0px;
      }

      .cls-2 {
        fill: #f5ca33;
      }

      .cls-3 {
        fill: #e2742a;
      }

      .cls-4 {
        fill: #e5a3c9;
        opacity: .11;
      }

      .cls-5 {
        fill: #fff;
      }
    </style>
  </defs>
  <g id="Layer_1-2" data-name="Layer 1">
    <g>
      <g>
        <g>
          <path class="cls-5" d="M42.33,91.35c-15.54,0-30.08-4.38-42.33-11.92v45.65c0,22.37,19.05,40.67,42.33,40.67h0c23.28,0,42.33-18.3,42.33-40.67v-45.65c-12.25,7.54-26.78,11.92-42.33,11.92h0Z"/>
          <path class="cls-2" d="M42.33,0h0C19.05,0,0,18.3,0,40.67v38.77c12.25,7.54,26.78,11.92,42.33,11.92h0c15.54,0,30.08-4.38,42.33-11.92v-38.77C84.65,18.3,65.61,0,42.33,0Z"/>
        </g>
        <path class="cls-3" d="M49.61,57.21l-5.59-6.72c-1.08-1.29-2.84-1.29-3.91,0l-5.59,6.72c-1.08,1.29-1.08,3.41,0,4.71l5.59,6.72c1.08,1.29,2.84,1.29,3.91,0l5.59-6.72c1.08-1.29,1.08-3.41,0-4.71ZM41.75,66.47l-5.48-6.59,6.06-7.28,5.48,6.59-6.06,7.28Z"/>
        <ellipse class="cls-1" cx="29.62" cy="56.2" rx="1.8" ry="3.37"/>
        <ellipse class="cls-1" cx="54.51" cy="56.2" rx="1.8" ry="3.37"/>
      </g>
      <g>
        <path class="cls-4" d="M53.57,63.32c-.47-.06-.96-.1-1.37.18s-.59.56-.76,1.06.13.66.48,1.18c.38.62.81,1.2,1.29,1.74.32.5.68.95,1.1,1.36.42.46.85.91,1.35,1.27.87.63,1.21.86,2.28.98.27.05.52,0,.77-.13.55-.13,1.08-.32,1.58-.59.76-.36,1.55-.74,2.2-1.27l.57-.5c.19-.17.25-.39.19-.66.04-.23.05-.46.02-.69l-.35-1.04c-.38-.63-.85-1.17-1.41-1.63l-.74-.57c-.16-.12-.34-.23-.52-.32-.48-.29-.98-.52-1.5-.71-.26.02-.52.06-.77.14-.26.03-.51.09-.76.17l-1.14.4c-.8.34-1.59.7-2.37,1.08l-.81.65c-.34.3-.74.48-1.18.54-.29.08-.59.33-.47.66.06.16.22.3.36.4.17.13.28.19.49.12.41-.07.78-.24,1.1-.49.47-.27.89-.6,1.28-.98l.95-.42c.74-.36,1.5-.66,2.29-.9l-.17.05,1.32-.24-.18.02c.45.3.91.57,1.4.8l-.15-.11.65.58c.29.3.47.66.54,1.06.12.26.14.52.07.8,0,.43-.12.82-.37,1.19l.53-.37c-.53.23-1.05.48-1.59.67-.6.21-1.19.35-1.8.49l.22-.03-.86.12.22.02-.78-.19.19.07c-1.89-1.18-3.39-2.1-4.28-4.57l-.04.4.32-.56-.31.32.54-.26h-.19c.27.01.5.04.77.08s.59-.22.58-.5c-.01-.26-.48-.84-.75-.87Z"/>
        <path class="cls-4" d="M52.42,62.89c-.24-.05-.45-.1-.69-.05-.15.03-.3.06-.44.11-.42.22-.7.57-.82,1.06-.08.23-.02.43.18.6.28.56.63,1.08,1.04,1.55.67.8,1.44,1.51,2.3,2.11.63.48,1.18,1,2.04.95,1.55-.09,2.86-1.11,4.07-1.99.32-.09.53-.28.6-.57l-.04-.65c-.13-.89-.99-1.73-1.69-2.17l-.88-.5c-.54-.3-1.12-.48-1.74-.54-.41-.11-.81-.03-1.19.25-.58.29-1.13.64-1.64,1.03l.2-.14c-.36.25-.73.46-1.13.64-.29.18-.61.28-.96.29l3.94.8-1.1-.4c-.7-.22-1.41-.4-2.13-.55-.32-.13-.64-.16-.96-.09-.17-.02-.3.05-.38.22,0,.24.14.41.38.49,1.02.48,2.14.78,3.25.97.69.12,1.19.11,1.86-.03l.18-.17-.02-.37-.33.31.29-.11-.24.03c.18.04.33.13.52.1.11-.02.2-.06.29-.12.16-.12.35-.15.55-.11l-.22-.08.51.25-.18-.14.13.25-.02-.23-.1.28.2-.19-.6.36,1.58-.21-1.71-.02.55.03-.87-.04.26.05c-.23-.04-.46-.11-.68-.19-.17-.08-.32-.04-.44.1l-1.3,2.44,1.8-1.85-1.06.02.25.04c-.67-.09-1.3-.31-1.89-.65l.49.25-1.76-1.28,1.66,1.79.07-.46-.07.25.11-.09-.25.06c.24-.02.42.05.64.13.22.04.34-.06.35-.28-.07-.39-.24-.74-.53-1.04-.43-.6-.88-1.17-1.37-1.72-.23-.34-.52-.59-.89-.75Z"/>
        <path class="cls-4" d="M52.71,59.96c-.41-.16-.88-.32-1.31-.16-.52.19-.92.84-.95,1.36v.24c.53.87,1.12,1.7,1.78,2.47.4.49.79.98,1.2,1.47l.7.88c.57.66.89.88,1.57,1.23.2.15.42.25.65.3l1.14-.32c.58-.21,1.13-.47,1.68-.75.52-.25,1.02-.53,1.51-.83.52-.33,1.15-.68,1.42-1.27.11-.25.19-.58.22-.86.08-.79-.41-1.47-.86-2.05-.15-.21-.34-.39-.56-.54-.47-.44-1-.79-1.59-1.05l-1.26-.48c-.63-.21-1.26-.22-1.87,0-.42.05-.81.18-1.18.39-.47.19-.93.43-1.36.71l-.9.49c-.4.32-.85.52-1.35.61l2.06-.16-.85-.1c-.42-.03-.85-.02-1.27.03-.22-.03-.4.03-.55.17-.25.19-.22.59.12.68.33.09.63.18.97.19.47.02.97-.03,1.42-.15.34-.09.66-.17.98-.33.52-.26,1.13-.39,1.67-.56l-.22.06.95-.17h-.23c.45-.05.89-.03,1.32.08,1,.17,1.95.53,2.85,1.07l-.33-.3.89,1.57-.06-.45-.09.76.15-.37c-.31.47-.71.84-1.21,1.11-.42.28-.85.53-1.29.77-.45.26-.92.5-1.4.71-1.74-.2-2.98-1.08-3.72-2.64l.17.41-.14-1.91-.16.18.44-.38-.19.15.25-.07-.32-.04.58.07-.32-.05c.23.07.43.15.65.25.2.1.38.09.54-.06.1-.19.08-.37-.06-.54-.32-.36-.68-.69-1.07-.99-.37-.32-.77-.59-1.19-.83Z"/>
        <path class="cls-4" d="M54.38,62.44c-.27-.07-.49-.14-.77-.07-.14.03-.27.07-.41.12-.39.23-.63.58-.72,1.06v.26c.62,1.01,1.39,1.88,2.31,2.61.7.53,1.39,1.07,2.07,1.64.51.26,1.04.37,1.6.33.28.07.54.04.78-.09.31-.08.59-.22.84-.42.3-.19.58-.41.83-.66.29-.26.56-.52.83-.8.33-.27.6-.6.81-.98-.03-.34-.1-.66-.22-.98l-.48-.82c-.53-.57-1.16-.97-1.92-1.18-.62-.18-1.26-.29-1.9-.34-.46-.02-.92.03-1.36.19-1.05.38-1.65,1.5-2.3,2.33l.23-.11-1.04.26,4.12,1.8-.2-.39-.3-.29-.71-.36c-.8-.38-1.64-.7-2.49-.94-.26-.08-.65-.22-.9-.02-.26.21.06.47.23.62.9.78,2.24,1.27,3.24,1.75-.17-.08,1.28.67,1.31.2l.27-4.82-2.03,3.64,1.8-1.81-1.26,1.16,1.98-1.26-1.79.79,4.98.68-4.51-2.05,1.33,4.38.31-3.57-1.05,2.86,1.35-2.63-2.26,1.33,1.22-.64c-.93.09-1.85-.03-2.76-.34l1.47.37-3.06-1.46,3.06,2.16.08-.08-.24.1c.33-.07.63.06.94.15.24.01.34-.1.3-.33-.16-.41-.42-.75-.77-1.03-.57-.57-1.17-1.12-1.79-1.64-.3-.33-.67-.56-1.09-.68Z"/>
        <path class="cls-4" d="M54,59.57c-.42-.13-.87-.24-1.3-.07l-.4.3c-.18.15-.29.35-.32.59-.14.2-.19.42-.14.65l1.12,1.65.94,1.22c.34.53.72,1.04,1.11,1.53.27.43.62.79,1.04,1.07.5.5,1.08.86,1.76,1.08.56.22,1.32-.24,1.85-.46.88-.37,1.75-.81,2.54-1.36.31-.22.67-.42.91-.73.33-.28.5-.63.51-1.04.07-.21.09-.43.06-.65-.04-.34-.19-.73-.31-1.06-.28-.74-1.14-1.34-1.79-1.77-1.02-.68-2.39-1.13-3.61-1.09-.78.03-1.55.39-2.27.67l-.85.34c-.61.19-1.18.47-1.71.82l.28-.12-.67.21.86-.12h-.51c-.35-.01-1.12-.11-1.32.29-.06.15-.05.3.02.45.11.16.26.23.47.21.43.06.81.09,1.25,0,.67-.13,1.22-.41,1.83-.7l-.69.15c1.05-.14,2-.24,3.06-.28h-.22c.37.05.74.1,1.11.16l-.22-.09c.61.29,1.23.56,1.85.83,1.22.18,1.7.96,1.44,2.32l.12-.16c-1.17.94-2.42,1.69-3.78,2.33h.3c-.61-.17-1.12-.48-1.55-.93-1.38-1.09-2.21-2.59-2.52-4.51l-.11.21c.17-.18.37-.27.62-.28l-.27.02c.38,0,.71.1,1.08.2.45.12.62-.32.4-.65-.29-.27-.6-.51-.95-.71-.33-.22-.68-.4-1.05-.54Z"/>
        <path class="cls-4" d="M51.04,61.52c-.18-.06-.36-.14-.56-.11-.28.04-.53.15-.75.32-.36.23-.56.58-.61,1.05l-.05.23c.18.4.4.78.65,1.14.39.78.92,1.47,1.57,2.06.44.48.98,1.08,1.46,1.49l1.1.85c.54.44,1.11.54,1.71.31,1.01-.21,2-.5,2.99-.82.48-.14.95-.31,1.4-.51.23-.05.42-.14.59-.29l.63-.64c.05-.21.06-.43.03-.65.03-.24.02-.48-.03-.71l-.3-.91c-.16-.46-.6-1.05-.86-1.34-.58-.64-1.33-1.28-2.07-1.71l-1.09-.56c-.23-.11-.48-.17-.74-.17-.25-.08-.5-.11-.76-.11l-1.01.28c-.43.15-.87.44-1.25.69-.61.42-1.2.96-1.76,1.43l.19-.16c-.38.35-.82.58-1.31.71l1.8-.1c-.58-.03-1.17-.05-1.75-.07-.28-.05-.52.01-.74.18-.11.14-.13.29-.03.45.19.2.42.29.7.29.92.17,1.83.07,2.74-.27.23-.18.44-.37.65-.56.23-.34.49-.67.77-.98.34-.39.75-.69,1.23-.89l-.39.07c1.22.06,2.24.5,3.07,1.34.79.44,1.39,1.07,1.79,1.89l-.2-.4-.73,2.46c-.53.19-1.06.35-1.61.49-.86.23-1.71.4-2.6.54l.18.08c-.68-.26-1.23-.68-1.67-1.26-.3-.16-.6-.31-.92-.43l.32.24-.95-2.2-.05.23.21-.53-.09.22.16-.13-.23.08c.12-.04.24-.03.36.02l-.28-.11c.1.04.19.08.29.12.16.07.35.17.51.05.25-.19.09-.53-.03-.74-.23-.41-.51-.79-.8-1.16-.25-.32-.5-.67-.9-.79Z"/>
        <path class="cls-4" d="M52.29,63.46c-.45-.05-.9-.08-1.3.18-.32.21-.49.44-.63.8-.1.24-.22.45-.19.71.5.98,1.11,1.87,1.85,2.68l1,1.37c.53.68,1.17,1.24,1.9,1.69.54.46,1.16.74,1.87.84.65.18,1.37-.22,1.98-.45.85-.32,1.68-.71,2.47-1.16.29-.17.6-.33.85-.56.59-.52.76-.95.56-1.77-.11-.45-.24-.91-.47-1.31-.32-.55-.75-1.01-1.2-1.45-.71-.7-1.52-1.3-2.42-1.75-1.3-.65-1.42-.42-2.72-.06-.29.07-.57.19-.83.36-.61.26-1.2.57-1.76.93l-1.11.67c-.44.33-.89.65-1.34.96l.16-.09-.37.02c-.31.02-.57.4-.45.67.07.17.24.3.38.4.18.13.28.19.5.12.17-.03.33-.09.47-.19.41-.34.75-.74,1.02-1.2l-.27.28c.79-.47,1.57-.94,2.37-1.41.99-.71,2.11-.94,3.35-.71,1.1.39,2,1.03,2.69,1.93.63.89.88,1.84.74,2.87l.03-.18-.54.53.18-.14c-.52.29-1.06.55-1.62.77l.2-.08c-1.05.39-2.54,1.16-3.68.54l-.99-.73c-1.66-1.05-2.83-2.57-3.49-4.56l-.06.4c.08-.49.31-.71.69-.66h-.19c.13.01.27.03.4.05.25.03.6-.15.62-.44.02-.23-.37-.85-.62-.88Z"/>
        <path class="cls-4" d="M55.19,61.59c-.47-.1-.98-.2-1.39.12-.37.29-.69.67-.65,1.19-.03.34.13.62.48.84.44.73.97,1.38,1.6,1.95.58.62,1.16,1.27,1.8,1.83.43.45.94.72,1.53.82.22.13.44.17.68.14.37,0,.74-.17,1.08-.3.64-.25,1.24-.61,1.82-.98.49-.31,1.16-.7,1.48-1.2.19-.29.2-.68.19-1.02-.04-.7-.44-1.05-.85-1.49-.38-.41-.81-.72-1.32-.96s-1.01-.38-1.54-.48c-.87-.17-1.62-.15-2.45.22-.45.2-.87.44-1.32.63-.29.11-.58.22-.87.32-.4.18-.82.27-1.26.28h1.59c-.43-.05-.85-.11-1.28-.17-.34-.05-1.07-.18-1.25.24s.25.56.57.63c.64.14,1.24.25,1.9.22s1.34-.14,2.01-.28l-1-.07c.62.07,1.22.22,1.8.46l-.23-.1.6.42-.36-.67.17.51c.08.25.25.51.55.35.16-.14.35-.18.55-.14l-.22-.09.41.25-.24-.38.09.47.03-.24-.14.26.31-.19c-.71.34-.68.24-1.1.7l.18-.16-.37.24.21-.12-.45.18.23-.08-.49.1.24-.02-.4.03.23.05c-.89-.8-2.19-1.06-2.57-2.49l-.14.43.36-.34-.18.15c.16-.07.32-.09.49-.07l-.28-.02c.23.03.45.07.67.11.43.08.69-.19.46-.61-.27-.31-.57-.58-.9-.82-.32-.26-.66-.48-1.02-.66Z"/>
        <path class="cls-4" d="M51.82,60.81c-.58-.26-1.13-.09-1.58.35-1.05,1.03.23,2.23.85,2.97.38.46.81.91,1.25,1.32.43.35.88.7,1.32,1.04.39.3.78.6,1.17.9.27.18.65.34.96.4.24.05.48.02.71-.1.46-.1.91-.23,1.36-.39.75-.25,1.49-.5,2.2-.86.26-.09.48-.25.65-.46.17-.12.3-.27.4-.45l.14-.76c0-.2-.04-.4-.11-.6-.15-.62-.23-.74-.69-1.36-.27-.37-.62-.67-.99-.95-.62-.46-1.42-.99-2.16-1.18l-1.21-.22c-.23,0-.46.06-.68.14-1.45.38-2.65,1.4-3.95,2.13l.29-.14-.63.14,3,.11-.39-.1c-.51-.11-1.02-.18-1.54-.21-.52-.05-1.04-.05-1.56,0-.23.02-.38.14-.44.35.03.22.16.36.39.41.38.14.72.25,1.13.3.57.07,1.19.09,1.76.07.34-.02.73-.03,1.07-.11.3-.07.59-.23.87-.34.2-.08.4-.15.61-.19.29-.06.58-.02.87.04.25.05.51.09.76.13.89.13,2.27.72,1.87,2.07l.11-.17-.53.44c-.25.11-.5.2-.76.28-.63.21-1.27.36-1.92.52l.19-.03-.89.11.19.02-.56-.33.16.1c-.12-.38-.34-.65-.66-.8-.52-.27-.95-.67-1.29-1.18l.02.23c0-.19.08-.35.23-.48l-.23.1c.2-.1.39-.1.57,0l-.36-.14c.14.07.58.31.68.3.3-.04.36-.22.26-.49-.2-.55-.87-1.17-1.24-1.54l-.75-.74c-.25-.31-.56-.52-.93-.63Z"/>
        <path class="cls-4" d="M53.4,60.79c-.2-.06-.42-.16-.63-.13-.29.04-.54.15-.75.34-.21.14-.32.34-.32.6-.14.22-.18.46-.11.7l1.29,1.64c.72.78,1.54,1.46,2.43,2.04l-.19-.14c.38.47.85.77,1.42.9.42.19.86.23,1.32.13.66-.15,1.27-.49,1.87-.8.49-.26.98-.52,1.44-.84.56-.38.81-.56.67-1.29-.29-1.5-1.65-2.31-2.94-2.86-.53-.31-1.09-.42-1.67-.33-.56-.05-1.07.1-1.54.45-.73.49-1.3,1.16-1.92,1.77l.2-.15-1.24.28,4.23,1.08-.31-.39c-.23-.29-.75-.38-1.08-.48-.83-.25-1.71-.43-2.57-.54-.27-.03-.67-.11-.88.12-.22.25.13.45.32.58.35.28.75.47,1.19.57.51.16,1.03.3,1.55.41.42.11.84.19,1.27.23.55,0,1.06-.16,1.53-.46l-.31.1.7-.09h-.32c.07.03.14.05.2.07l-.13-.43-.03.29.97-.52c-.6.08-.94.14-1.47.36l.22-.09-.4.06.23-.03c-.37-.09-.7-.02-1.01.23h.25c-.23-.06-.45-.12-.68-.19l.36.3-.09-.4-.24.38c.25-.03.4.01.64.09l-.44-.15c.12.05.24.1.36.14l.44.16.26-.08.03-.27c-.13-.29-.32-.53-.58-.72-.58-.56-1.21-1.07-1.85-1.57-.53-.42-1.06-.88-1.72-1.08Z"/>
        <path class="cls-4" d="M55.01,62.87c-.34-.11-.66-.22-1.02-.22-.3-.02-.56.08-.79.27-.3.2-.49.49-.58.87-.07.16-.05.3.05.44.27.51.6.97.97,1.4.59.68,1.19,1.35,1.8,2.02.88.92,2.17,2.27,3.63,1.99,1.18-.23,2.33-.81,3.33-1.47.43-.26.82-.59,1.15-.96.12-.19.15-.41.1-.64.06-.49-.08-.94-.41-1.35-.25-.28-.51-.55-.78-.81-.29-.21-.6-.4-.91-.57-.57-.28-1.17-.46-1.8-.54-.29-.11-.58-.15-.88-.11-.66.03-1.3.14-1.93.32-.58.13-1.16.27-1.73.41-.5.34-1.04.57-1.62.71l.33-.04-.61-.02c-.18,0-.37-.03-.5.12s-.15.38-.05.53c.12.19.35.24.55.3.31.09.65.18.97.14.41,0,.8-.08,1.16-.24.42-.13.82-.31,1.2-.54l-.33.03c.77.03,1.51.05,2.27.12l-.21-.04.96.3-.2-.11c.53.59.43.61,1.15.49h-.23c.08.03.17.06.25.09l-.15-.17.31.45-.09-.22.05.62v-.24c-.09.13-.17.27-.25.4l.25-.21-.77.52.98-.27c-.64.07-.88.07-1.39.28l.31-.09c-.7.18-1.38.23-2.1.26l.23.02c-.54-.39-1.06-.79-1.58-1.21-.81-.28-1.32-.8-1.53-1.55l-.17.41.37-.4-.18.15.29-.08h-.23c.19,0,.39.01.58.02h-.24c.31.06.6.15.9.24.36.11.63-.23.52-.56-.17-.27-.38-.51-.62-.71-.23-.23-.48-.41-.76-.56Z"/>
        <path class="cls-4" d="M51.12,62.48c-.53-.11-1.12-.04-1.49.41-.09.17-.18.35-.27.53-.1.17-.18.35-.22.54.13.41.32.78.59,1.12.39.8.92,1.5,1.6,2.09.52.56,1.13,1.15,1.71,1.63.48.53,1.06.88,1.73,1.04.25.2.51.25.77.16,1.1-.23,2.14-.57,3.18-.98.35-.14,1.27-.5,1.61-.72s.79-.46.86-.89c.1-.69,0-1.4-.28-2.04-.21-.47-.5-.9-.84-1.27-.58-.63-1.18-1.19-1.91-1.66s-1.42-.76-2.34-.84c-.44-.04-.88.11-1.29.26-.6.21-1.12.53-1.65.87-.46.29-.91.6-1.35.92-.35.34-.76.58-1.22.72l1.08-.06c-.49-.07-.98-.09-1.47-.06-.19.04-.31.15-.35.34-.08.59,1.03.63,1.35.67.66.15,1.3.04,1.91-.34.23-.16.42-.36.58-.59.32-.31.65-.62,1-.91.43-.37.92-.64,1.47-.81l-.39.06,1.28.27-.17-.05c.53.16,1.02.39,1.46.7,1.28.69,1.98,1.91,2.09,3.65l.17-.29-1.28.82c-.48.19-.96.35-1.45.49-.76.23-1.52.4-2.3.55l.19.09c-.65-.23-1.2-.6-1.65-1.13-.66-.44-1.29-.92-1.89-1.45l.21.33-.48-1.1.07.19-.11-.57-.07.23.2-.58-.11.21.16-.17-.22.08.41-.13-.23.07c.18.01.32.05.49.1.18,0,.31-.08.37-.25.05-.26-.02-.49-.19-.71-.22-.39-.47-.76-.74-1.12-.13-.24-.32-.39-.58-.45Z"/>
      </g>
      <g>
        <path class="cls-4" d="M23.91,63.9c-.47-.06-.96-.1-1.37.18s-.59.56-.76,1.06.13.66.48,1.18c.38.62.81,1.2,1.29,1.74.32.5.68.95,1.1,1.36.42.46.85.91,1.35,1.27.87.63,1.21.86,2.28.98.27.05.52,0,.77-.13.55-.13,1.08-.32,1.58-.59.76-.36,1.55-.74,2.2-1.27l.57-.5c.19-.17.25-.39.19-.66.04-.23.05-.46.02-.69l-.35-1.04c-.38-.63-.85-1.17-1.41-1.63l-.74-.57c-.16-.12-.34-.23-.52-.32-.48-.29-.98-.52-1.5-.71-.26.02-.52.06-.77.14-.26.03-.51.09-.76.17l-1.14.4c-.8.34-1.59.7-2.37,1.08l-.81.65c-.34.3-.74.48-1.18.54-.29.08-.59.33-.47.66.06.16.22.3.36.4.17.13.28.19.49.12.41-.07.78-.24,1.1-.49.47-.27.89-.6,1.28-.98l.95-.42c.74-.36,1.5-.66,2.29-.9l-.17.05,1.32-.24-.18.02c.45.3.91.57,1.4.8l-.15-.11.65.58c.29.3.47.66.54,1.06.12.26.14.52.07.8,0,.43-.12.82-.37,1.19l.53-.37c-.53.23-1.05.48-1.59.67-.6.21-1.19.35-1.8.49l.22-.03-.86.12.22.02-.78-.19.19.07c-1.89-1.18-3.39-2.1-4.28-4.57l-.04.4.32-.56-.31.32.54-.26h-.19c.27.01.5.04.77.08s.59-.22.58-.5c-.01-.26-.48-.84-.75-.87Z"/>
        <path class="cls-4" d="M22.76,63.47c-.24-.05-.45-.1-.69-.05-.15.03-.3.06-.44.11-.43.22-.7.57-.82,1.06-.08.23-.02.43.18.6.28.56.63,1.08,1.04,1.55.67.8,1.44,1.51,2.3,2.11.63.48,1.18,1,2.04.95,1.55-.09,2.86-1.11,4.07-1.99.32-.09.53-.28.6-.57l-.04-.65c-.13-.89-.99-1.73-1.69-2.17l-.88-.5c-.54-.3-1.12-.48-1.74-.54-.41-.11-.81-.03-1.19.25-.58.29-1.13.64-1.64,1.03l.2-.14c-.36.25-.73.46-1.13.64-.29.18-.61.28-.96.29l3.94.8-1.1-.4c-.7-.22-1.41-.4-2.13-.55-.32-.13-.64-.16-.96-.09-.17-.02-.3.05-.38.22,0,.24.14.41.38.49,1.02.48,2.14.78,3.25.97.69.12,1.19.11,1.86-.03l.18-.17-.02-.37-.33.31.29-.11-.24.03c.18.04.33.13.52.1.11-.02.2-.06.29-.12.16-.12.35-.15.55-.11l-.22-.09.51.25-.18-.14.13.25-.02-.23-.1.28.2-.19-.61.36,1.58-.21-1.71-.02.55.03-.87-.04.26.05c-.23-.04-.46-.11-.68-.19-.17-.08-.32-.04-.44.1l-1.3,2.44,1.8-1.85-1.06.02.25.04c-.67-.09-1.3-.31-1.89-.65l.49.25-1.76-1.28,1.66,1.79.07-.46-.07.25.11-.09-.25.06c.24-.02.42.05.64.13.22.04.34-.06.35-.28-.07-.39-.24-.74-.53-1.04-.43-.6-.88-1.17-1.37-1.72-.23-.34-.52-.59-.89-.75Z"/>
        <path class="cls-4" d="M23.05,60.54c-.41-.16-.88-.32-1.31-.16-.52.19-.92.84-.95,1.36v.24c.53.87,1.12,1.7,1.78,2.47.4.49.79.98,1.2,1.47l.7.88c.57.66.89.88,1.57,1.23.2.15.42.25.65.3l1.14-.32c.58-.21,1.13-.47,1.68-.75.52-.25,1.02-.53,1.51-.83.52-.33,1.15-.68,1.42-1.27.11-.25.19-.58.22-.86.08-.79-.41-1.47-.86-2.05-.15-.21-.34-.39-.56-.54-.47-.44-1-.79-1.59-1.05l-1.26-.48c-.63-.21-1.26-.22-1.87,0-.42.05-.81.18-1.18.39-.47.19-.93.43-1.36.71l-.9.49c-.4.32-.85.52-1.35.61l2.06-.16-.85-.1c-.42-.03-.85-.02-1.27.03-.22-.03-.4.03-.55.17-.25.19-.22.59.12.68.33.09.63.18.97.19.47.02.97-.03,1.42-.15.34-.09.66-.17.98-.33.52-.26,1.13-.39,1.67-.56l-.22.06.95-.17h-.23c.45-.05.89-.03,1.32.08,1,.17,1.95.53,2.85,1.07l-.33-.3.89,1.57-.06-.45-.09.76.15-.37c-.31.47-.71.84-1.21,1.11-.42.28-.85.53-1.29.77-.45.26-.92.5-1.4.71-1.74-.2-2.98-1.08-3.72-2.64l.17.41-.14-1.91-.16.18.44-.38-.19.15.25-.07-.32-.04.58.07-.32-.05c.23.07.43.15.65.25.2.1.38.09.54-.06.1-.19.08-.37-.06-.54-.32-.36-.68-.69-1.07-.99-.37-.32-.77-.59-1.19-.83Z"/>
        <path class="cls-4" d="M24.71,63.02c-.27-.07-.49-.14-.77-.07-.14.03-.27.07-.41.12-.39.23-.63.58-.72,1.06v.26c.62,1.01,1.39,1.88,2.31,2.61.7.53,1.39,1.07,2.07,1.64.51.26,1.04.37,1.6.33.28.07.54.04.78-.09.31-.08.59-.22.84-.42.3-.19.58-.41.83-.66.29-.26.56-.52.83-.8.33-.27.6-.6.81-.98-.03-.34-.1-.66-.22-.98l-.48-.82c-.53-.57-1.16-.97-1.92-1.18-.62-.18-1.26-.29-1.9-.34-.46-.02-.92.03-1.36.19-1.05.38-1.65,1.5-2.3,2.33l.23-.11-1.04.26,4.12,1.8-.2-.39-.3-.29-.71-.36c-.8-.38-1.64-.7-2.49-.94-.26-.08-.65-.22-.9-.02-.26.21.06.47.23.62.9.78,2.24,1.27,3.24,1.75-.17-.08,1.28.67,1.31.2l.27-4.82-2.03,3.64,1.8-1.81-1.26,1.16,1.98-1.26-1.79.79,4.98.68-4.51-2.05,1.33,4.38.31-3.57-1.05,2.86,1.35-2.63-2.26,1.33,1.22-.64c-.93.09-1.85-.03-2.76-.34l1.47.37-3.06-1.46,3.06,2.16.08-.08-.24.1c.33-.07.63.06.94.15.24.01.34-.1.3-.33-.16-.41-.42-.75-.77-1.03-.57-.57-1.17-1.12-1.79-1.64-.3-.33-.67-.56-1.09-.68Z"/>
        <path class="cls-4" d="M24.33,60.15c-.42-.13-.87-.24-1.3-.07l-.4.3c-.18.15-.29.35-.32.59-.14.2-.19.42-.14.65l1.12,1.65.94,1.22c.34.53.72,1.04,1.11,1.53.27.43.62.79,1.04,1.07.5.5,1.08.86,1.76,1.08.56.23,1.32-.24,1.85-.46.88-.37,1.75-.81,2.54-1.36.31-.22.67-.42.91-.73.33-.28.5-.63.51-1.04.07-.21.09-.43.06-.65-.04-.34-.19-.73-.31-1.06-.28-.74-1.14-1.34-1.79-1.77-1.02-.68-2.39-1.13-3.61-1.09-.78.03-1.55.39-2.27.67l-.85.34c-.61.19-1.18.47-1.71.82l.28-.12-.67.21.86-.12h-.51c-.35-.01-1.12-.11-1.32.29-.06.15-.05.3.02.45.11.16.26.23.47.21.43.06.81.09,1.25,0,.67-.13,1.22-.41,1.83-.7l-.69.15c1.05-.14,2-.24,3.06-.28h-.22c.37.05.74.1,1.11.16l-.22-.09c.61.29,1.23.56,1.85.83,1.22.18,1.7.96,1.44,2.32l.12-.16c-1.17.94-2.42,1.69-3.78,2.33h.3c-.61-.17-1.12-.48-1.55-.93-1.38-1.09-2.21-2.59-2.52-4.51l-.11.21c.17-.18.37-.27.62-.28l-.27.02c.38,0,.71.1,1.08.2.45.12.62-.32.4-.65-.29-.27-.6-.51-.95-.71-.33-.22-.68-.4-1.05-.54Z"/>
        <path class="cls-4" d="M21.37,62.11c-.18-.06-.36-.14-.56-.11-.28.04-.53.15-.75.32-.36.23-.56.58-.61,1.05l-.05.23c.18.4.4.78.65,1.14.39.78.92,1.47,1.57,2.06.44.48.98,1.08,1.46,1.49l1.1.85c.54.44,1.11.54,1.71.31,1.01-.21,2-.5,2.99-.82.48-.14.95-.31,1.4-.51.23-.05.42-.14.59-.29l.63-.64c.05-.21.06-.43.03-.65.03-.24.02-.48-.03-.71l-.3-.91c-.16-.46-.6-1.05-.86-1.34-.58-.64-1.33-1.28-2.07-1.71l-1.09-.56c-.23-.11-.48-.17-.74-.17-.25-.08-.5-.11-.76-.11l-1.01.28c-.43.15-.87.44-1.25.69-.61.42-1.2.96-1.76,1.43l.19-.16c-.38.35-.82.58-1.31.71l1.8-.1c-.58-.03-1.17-.05-1.75-.07-.28-.05-.52.01-.74.18-.11.14-.13.29-.03.45.19.2.42.29.7.29.92.17,1.83.07,2.74-.27.23-.18.44-.37.65-.56.23-.34.49-.67.77-.98.34-.39.75-.69,1.23-.89l-.39.07c1.22.06,2.24.5,3.07,1.34.79.44,1.39,1.07,1.79,1.89l-.2-.4-.73,2.46c-.53.19-1.06.35-1.61.49-.86.23-1.71.4-2.6.54l.18.08c-.68-.26-1.23-.68-1.67-1.26-.3-.16-.6-.31-.92-.43l.32.24-.95-2.2-.05.23.21-.53-.09.22.16-.13-.23.08c.12-.04.24-.03.36.02l-.28-.11c.1.04.19.08.29.12.16.07.35.17.51.05.25-.19.09-.53-.03-.74-.23-.41-.51-.79-.8-1.16-.25-.32-.5-.67-.9-.79Z"/>
        <path class="cls-4" d="M22.63,64.04c-.45-.05-.9-.08-1.3.18-.32.21-.49.44-.63.8-.1.24-.22.45-.19.71.5.98,1.11,1.87,1.85,2.68l1,1.37c.53.68,1.17,1.24,1.9,1.69.54.46,1.16.74,1.87.84.65.18,1.37-.22,1.98-.45.85-.32,1.68-.71,2.47-1.16.29-.17.6-.33.85-.56.59-.52.76-.95.56-1.77-.11-.45-.24-.91-.47-1.31-.32-.55-.75-1.01-1.2-1.45-.71-.69-1.52-1.3-2.42-1.75-1.3-.65-1.42-.42-2.72-.06-.29.07-.57.19-.83.36-.61.26-1.2.57-1.76.93l-1.11.67c-.44.33-.89.65-1.34.96l.16-.09-.37.02c-.31.02-.57.4-.45.67.07.17.24.3.38.4.18.13.28.19.5.12.17-.03.33-.09.47-.19.41-.34.75-.74,1.02-1.2l-.27.28c.79-.47,1.57-.94,2.37-1.41.99-.71,2.11-.94,3.35-.71,1.1.39,2,1.03,2.69,1.93.63.89.88,1.84.74,2.87l.03-.18-.54.53.18-.14c-.52.29-1.06.55-1.62.77l.2-.08c-1.05.39-2.54,1.16-3.68.54l-.99-.73c-1.66-1.05-2.83-2.57-3.49-4.56l-.06.4c.08-.49.31-.71.69-.66h-.19c.13.01.27.03.4.05.25.03.6-.15.62-.44.02-.23-.37-.85-.62-.88Z"/>
        <path class="cls-4" d="M25.53,62.18c-.47-.1-.98-.2-1.39.12-.37.29-.69.67-.65,1.19-.03.34.13.62.48.84.44.73.97,1.38,1.6,1.95.58.62,1.16,1.27,1.8,1.83.43.45.94.72,1.53.82.22.13.44.17.68.14.37,0,.74-.17,1.08-.3.64-.25,1.24-.61,1.82-.98.49-.31,1.16-.7,1.48-1.2.19-.29.2-.68.19-1.02-.04-.7-.44-1.05-.85-1.49-.38-.41-.81-.72-1.32-.96s-1.01-.38-1.54-.48c-.87-.17-1.62-.15-2.45.22-.45.2-.87.44-1.32.63-.29.11-.58.22-.87.32-.4.18-.82.27-1.26.28h1.59c-.43-.05-.85-.11-1.28-.17-.34-.05-1.07-.18-1.25.24s.25.56.57.63c.64.14,1.24.25,1.9.22s1.34-.14,2.01-.28l-1-.07c.62.07,1.22.22,1.8.46l-.23-.1.6.42-.36-.67.17.51c.08.25.25.51.55.35.16-.14.35-.18.55-.14l-.22-.09.41.25-.24-.38.09.47.03-.24-.14.26.31-.19c-.71.34-.68.24-1.1.7l.18-.16-.37.24.21-.12-.45.18.23-.08-.49.1.24-.02-.4.03.23.05c-.89-.8-2.19-1.06-2.57-2.49l-.14.43.36-.34-.18.15c.16-.07.32-.09.49-.07l-.28-.02c.23.03.45.07.67.11.43.08.69-.19.46-.61-.27-.31-.57-.58-.9-.82-.32-.26-.66-.48-1.02-.66Z"/>
        <path class="cls-4" d="M22.16,61.39c-.58-.26-1.13-.09-1.58.35-1.05,1.03.23,2.23.85,2.97.38.46.81.91,1.25,1.32.44.35.88.7,1.32,1.04.39.3.78.6,1.17.9.27.18.65.34.96.4.24.05.48.02.71-.1.46-.1.91-.23,1.36-.39.75-.25,1.49-.5,2.2-.86.26-.09.48-.25.65-.46.17-.12.3-.27.4-.45l.14-.76c0-.2-.04-.4-.11-.6-.15-.62-.23-.74-.69-1.36-.27-.37-.62-.67-.99-.95-.62-.46-1.42-.99-2.16-1.18l-1.21-.22c-.23,0-.46.06-.68.14-1.45.38-2.66,1.4-3.95,2.13l.29-.14-.63.14,3,.11-.39-.1c-.51-.11-1.02-.18-1.54-.21-.52-.05-1.04-.05-1.56,0-.23.02-.38.14-.44.35.03.22.16.36.39.41.38.14.72.25,1.13.3.57.07,1.19.09,1.76.07.34-.02.73-.03,1.07-.11.3-.07.59-.23.87-.34.2-.08.4-.15.61-.19.29-.06.58-.02.87.04.25.05.51.09.76.13.89.13,2.27.72,1.87,2.07l.11-.17-.53.44c-.25.11-.5.2-.76.28-.63.21-1.27.36-1.92.52l.19-.03-.89.11.19.02-.56-.33.16.1c-.12-.38-.34-.65-.66-.8-.52-.27-.95-.67-1.29-1.18l.02.23c0-.19.08-.35.23-.48l-.23.1c.2-.1.39-.1.57,0l-.36-.14c.14.07.58.31.68.3.3-.04.36-.22.26-.49-.2-.55-.87-1.17-1.24-1.54l-.75-.74c-.25-.31-.56-.52-.93-.63Z"/>
        <path class="cls-4" d="M23.74,61.37c-.2-.06-.42-.16-.63-.13-.29.04-.54.15-.75.34-.21.14-.32.34-.32.6-.14.22-.18.46-.11.7l1.29,1.64c.72.78,1.54,1.46,2.43,2.04l-.19-.14c.38.47.85.77,1.42.9.42.18.86.23,1.32.13.66-.15,1.27-.49,1.87-.8.49-.26.98-.52,1.44-.84.56-.38.81-.56.67-1.29-.29-1.5-1.65-2.31-2.94-2.86-.53-.31-1.09-.42-1.67-.33-.56-.05-1.07.1-1.54.45-.73.49-1.3,1.16-1.92,1.77l.2-.15-1.24.28,4.23,1.08-.31-.39c-.23-.29-.75-.38-1.08-.48-.83-.25-1.71-.43-2.57-.54-.27-.03-.67-.11-.88.12-.22.25.13.45.32.58.35.28.75.47,1.19.57.51.16,1.03.3,1.55.41.42.11.84.19,1.27.23.55,0,1.06-.16,1.53-.46l-.31.1.7-.09h-.32c.07.03.14.05.2.07l-.13-.43-.03.29.97-.52c-.6.08-.94.14-1.47.36l.22-.09-.4.06.23-.03c-.37-.09-.7-.02-1.01.23h.25c-.23-.06-.45-.12-.68-.19l.36.3-.09-.4-.24.38c.25-.03.4.01.64.09l-.44-.15c.12.05.24.1.36.14l.44.16.26-.08.03-.27c-.13-.29-.32-.53-.58-.72-.58-.56-1.21-1.07-1.85-1.57-.53-.42-1.06-.88-1.72-1.08Z"/>
        <path class="cls-4" d="M25.34,63.45c-.34-.11-.66-.22-1.02-.22-.3-.02-.56.08-.79.27-.3.2-.49.49-.58.87-.07.16-.05.3.05.44.27.51.6.97.97,1.4.59.68,1.19,1.35,1.8,2.02.88.92,2.17,2.27,3.63,1.99,1.18-.23,2.33-.81,3.33-1.47.43-.26.82-.59,1.15-.96.12-.19.15-.41.1-.64.06-.49-.08-.94-.41-1.35-.25-.28-.51-.55-.78-.81-.29-.21-.6-.4-.91-.57-.57-.28-1.17-.46-1.8-.54-.29-.11-.58-.15-.88-.11-.66.03-1.3.14-1.93.32-.58.13-1.16.27-1.73.41-.5.34-1.04.57-1.62.71l.33-.04-.61-.02c-.18,0-.37-.03-.5.12s-.15.38-.05.53c.12.19.35.24.55.3.31.09.65.18.97.14.41,0,.8-.08,1.16-.24.42-.13.82-.31,1.2-.54l-.33.03c.77.03,1.51.05,2.27.12l-.21-.04.96.3-.2-.11c.53.59.43.61,1.15.49h-.23c.08.03.17.06.25.09l-.15-.17.31.45-.09-.22.05.62v-.24c-.09.13-.17.27-.25.4l.25-.21-.77.52.98-.27c-.64.07-.88.07-1.39.28l.31-.09c-.7.18-1.38.23-2.1.26l.23.02c-.54-.39-1.06-.79-1.58-1.21-.81-.28-1.32-.8-1.53-1.55l-.17.41.37-.4-.18.15.29-.08h-.23c.19,0,.39.01.58.02h-.24c.31.06.6.15.9.24.36.11.63-.23.52-.56-.17-.27-.38-.51-.62-.71-.23-.23-.48-.41-.76-.56Z"/>
        <path class="cls-4" d="M21.45,63.06c-.53-.11-1.12-.04-1.49.41-.09.17-.18.35-.27.53-.1.17-.18.35-.22.54.13.41.32.78.59,1.12.39.8.92,1.5,1.6,2.09.52.56,1.13,1.15,1.71,1.63.48.53,1.06.88,1.73,1.04.25.2.51.25.77.16,1.1-.23,2.14-.57,3.18-.98.35-.14,1.27-.5,1.61-.72s.79-.46.86-.89c.1-.69,0-1.4-.28-2.04-.21-.47-.5-.9-.84-1.27-.58-.63-1.18-1.19-1.91-1.66s-1.42-.76-2.34-.84c-.44-.04-.88.11-1.29.26-.6.21-1.12.53-1.65.87-.46.29-.91.6-1.35.92-.35.34-.76.58-1.22.72l1.08-.06c-.49-.07-.98-.09-1.47-.06-.19.04-.31.15-.35.34-.08.59,1.03.63,1.35.67.66.15,1.3.04,1.91-.34.23-.16.42-.36.58-.59.32-.31.65-.62,1-.91.43-.37.92-.64,1.47-.81l-.39.06,1.28.27-.17-.05c.53.16,1.02.39,1.46.7,1.28.69,1.98,1.91,2.09,3.65l.17-.29-1.28.82c-.48.19-.96.35-1.45.49-.76.23-1.52.4-2.3.55l.19.09c-.65-.23-1.2-.6-1.65-1.13-.66-.44-1.29-.92-1.89-1.45l.21.33-.48-1.1.07.19-.11-.57-.07.23.2-.58-.11.21.16-.17-.22.08.41-.13-.23.07c.18.01.32.05.49.1.18,0,.31-.08.37-.25.05-.26-.02-.49-.19-.71-.22-.39-.47-.76-.74-1.12-.13-.24-.32-.39-.58-.45Z"/>
      </g>
    </g>
  </g>
</svg>