<?xml version="1.0" encoding="UTF-8"?>
<svg id="Layer_2" data-name="Layer 2" xmlns="http://www.w3.org/2000/svg" viewBox="0 0 103.12 163.83">
  <defs>
    <style>
      .cls-1 {
        fill: #000;
      }

      .cls-1, .cls-2, .cls-3, .cls-4, .cls-5 {
        stroke-width: 0px;
      }

      .cls-2 {
        fill: #f5ca33;
      }

      .cls-3 {
        fill: #e2742a;
      }

      .cls-4 {
        fill: #e5a3c9;
        opacity: .11;
      }

      .cls-5 {
        fill: #fff;
      }
    </style>
  </defs>
  <g id="Layer_1-2" data-name="Layer 1">
    <g>
      <g>
        <g>
          <path class="cls-5" d="M49.69,90.18c-15.16-3.43-28.37-10.91-38.65-20.96L.96,113.74c-4.94,21.82,9.6,43.87,32.31,49.01h0c22.71,5.14,45.32-8.51,50.26-30.32l10.08-44.53c-13.61,4.65-28.75,5.71-43.91,2.28h0Z"/>
          <path class="cls-2" d="M69.85,1.08h0C47.15-4.05,24.53,9.59,19.59,31.41l-8.56,37.81c10.28,10.05,23.49,17.53,38.65,20.96h0c15.16,3.43,30.3,2.37,43.91-2.28l8.56-37.81c4.94-21.82-9.6-43.87-32.31-49.01Z"/>
        </g>
        <path class="cls-3" d="M64.33,58.49l-3.97-7.79c-.76-1.5-2.48-1.89-3.82-.86l-6.94,5.32c-1.34,1.02-1.8,3.09-1.04,4.59l3.97,7.79c.76,1.5,2.48,1.89,3.82.86l6.94-5.32c1.34-1.02,1.8-3.09,1.04-4.59ZM54.62,65.79l-3.89-7.64,7.52-5.77,3.89,7.64-7.52,5.77Z"/>
        <ellipse class="cls-1" cx="45.06" cy="53.09" rx="3.37" ry="1.8" transform="translate(-16.67 85.32) rotate(-77.25)"/>
        <ellipse class="cls-1" cx="69.33" cy="58.58" rx="3.37" ry="1.8" transform="translate(-3.11 113.28) rotate(-77.25)"/>
      </g>
      <g>
        <path class="cls-4" d="M66.85,65.33c-.44-.16-.91-.31-1.37-.13s-.7.41-.98.87-.02.67.21,1.26c.23.69.53,1.35.87,1.98.2.55.46,1.08.77,1.56.31.54.63,1.07,1.03,1.54.7.81.99,1.11,2.01,1.46.25.11.51.12.78.04.56,0,1.12-.08,1.67-.23.82-.19,1.67-.38,2.43-.76l.67-.37c.22-.12.33-.32.33-.6.09-.21.15-.44.18-.67l-.12-1.09c-.23-.69-.57-1.33-1.02-1.9l-.6-.72c-.13-.16-.28-.3-.44-.43-.4-.39-.84-.73-1.31-1.03-.26-.04-.52-.05-.78-.04-.26-.03-.52-.03-.78,0l-1.21.14c-.85.16-1.7.33-2.55.53l-.93.46c-.4.22-.83.31-1.27.27-.3,0-.65.19-.6.54.02.17.15.34.26.47.14.17.23.25.45.23.42.02.81-.06,1.18-.24.52-.16,1-.39,1.46-.67l1.02-.2c.8-.19,1.61-.31,2.43-.38l-.18.02,1.34.06-.18-.02c.37.39.77.76,1.19,1.09l-.12-.14.51.71c.22.36.31.74.29,1.15.06.28.03.54-.11.79-.09.42-.3.78-.62,1.07l.6-.24c-.57.11-1.13.24-1.7.3-.63.07-1.24.08-1.87.08l.22.02-.86-.08.21.07-.72-.35.17.11c-1.59-1.57-2.84-2.8-3.17-5.41l-.13.38.44-.48-.38.25.59-.13-.19-.04c.26.06.49.14.73.24s.62-.08.67-.36c.05-.26-.29-.93-.54-1.02Z"/>
        <path class="cls-4" d="M65.82,64.65c-.22-.1-.41-.2-.66-.2-.15,0-.3,0-.45.01-.46.12-.81.4-1.04.85-.13.21-.11.42.05.63.15.61.38,1.19.68,1.74.48.93,1.07,1.79,1.77,2.57.51.61.93,1.24,1.78,1.38,1.53.25,3.03-.45,4.41-1.04.34-.02.57-.16.71-.42l.11-.64c.07-.89-.59-1.9-1.17-2.49l-.75-.68c-.47-.41-.99-.71-1.58-.91-.37-.2-.78-.2-1.22-.02-.63.16-1.24.37-1.83.64l.23-.09c-.4.16-.82.29-1.24.38-.33.11-.66.13-1,.07l3.67,1.65-.98-.63c-.63-.37-1.28-.7-1.95-1.01-.28-.2-.59-.3-.92-.3-.16-.05-.3-.01-.41.13-.05.24.04.43.26.57.89.69,1.91,1.23,2.95,1.67.64.27,1.14.37,1.82.38l.22-.12.06-.37-.39.23.31-.04-.24-.03c.17.08.29.2.48.21.11,0,.21-.01.31-.05.18-.08.37-.07.56.02l-.19-.13.44.36-.15-.18.07.28.03-.23-.15.25.24-.14-.67.22,1.59.15-1.67-.4.53.15-.84-.23.25.11c-.22-.09-.42-.2-.62-.33-.15-.11-.3-.11-.45,0l-1.8,2.09,2.16-1.41-1.04-.22.24.09c-.63-.24-1.2-.59-1.7-1.05l.42.35-1.43-1.64,1.22,2.11.17-.43-.12.23.13-.06h-.26c.24.03.39.14.59.26.21.08.34.02.4-.19.02-.4-.07-.78-.28-1.13-.29-.68-.6-1.34-.95-1.98-.14-.39-.38-.69-.7-.93Z"/>
        <path class="cls-4" d="M66.75,61.86c-.37-.24-.79-.5-1.25-.44-.55.07-1.09.62-1.23,1.11l-.05.24c.32.97.71,1.9,1.18,2.8.28.57.56,1.13.84,1.7l.48,1.01c.42.77.68,1.06,1.26,1.55.16.19.35.33.57.44l1.19-.06c.61-.08,1.21-.2,1.8-.37.56-.13,1.11-.29,1.66-.48.58-.21,1.27-.41,1.67-.92.17-.22.31-.52.4-.79.25-.75-.08-1.52-.39-2.19-.1-.24-.25-.46-.43-.65-.36-.53-.8-.99-1.32-1.38l-1.12-.74c-.57-.35-1.18-.49-1.82-.42-.42-.04-.83,0-1.24.12-.51.08-1,.21-1.48.39l-.99.28c-.46.22-.95.32-1.46.3l2.04.3-.81-.29c-.41-.12-.82-.2-1.24-.26-.21-.07-.4-.06-.57.04-.28.13-.35.53-.03.69.3.16.58.31.91.4.45.12.95.19,1.42.17.35-.01.68-.02,1.03-.11.56-.14,1.19-.14,1.76-.18h-.23c.32.03.64.04.96.06l-.22-.05c.45.05.87.17,1.27.37.94.39,1.79.95,2.54,1.68l-.26-.37.52,1.73.04-.45-.26.72.23-.33c-.41.39-.88.66-1.43.82-.47.18-.94.33-1.43.46-.5.15-1.01.28-1.52.38-1.65-.58-2.67-1.71-3.05-3.4l.08.44.29-1.9-.19.14.51-.27-.22.1h.26c-.1-.04-.2-.08-.31-.12l.55.19-.3-.12c.21.12.39.25.58.38.17.15.35.17.54.06.14-.16.16-.34.06-.54-.24-.43-.51-.83-.82-1.2-.29-.39-.62-.75-.98-1.07Z"/>
        <path class="cls-4" d="M67.83,64.64c-.25-.13-.45-.24-.74-.24-.14,0-.28,0-.42.03-.44.14-.75.43-.93.87l-.05.26c.38,1.12.93,2.13,1.67,3.05.57.67,1.12,1.36,1.66,2.05.44.37.94.6,1.49.67.26.13.51.16.78.08.32,0,.63-.08.91-.22.34-.12.66-.27.96-.46.34-.19.66-.39.98-.6.39-.19.72-.45,1.01-.77.05-.34.05-.67,0-1l-.28-.9c-.39-.68-.92-1.2-1.61-1.57-.57-.31-1.16-.56-1.78-.75-.44-.12-.91-.17-1.36-.12-1.11.14-1.94,1.1-2.76,1.76l.25-.05-1.07.03,3.62,2.66-.1-.43-.23-.35-.61-.51c-.69-.54-1.45-1.04-2.22-1.47-.24-.13-.59-.36-.87-.22-.3.15-.05.47.09.66.71.96,1.91,1.73,2.78,2.43-.15-.12,1.1.94,1.23.49l1.33-4.64-2.79,3.1,2.16-1.37-1.48.85,2.21-.79-1.92.38,4.71,1.77-3.95-2.99.33,4.56,1.09-3.42-1.65,2.56,1.89-2.27-2.5.8,1.33-.35c-.93-.12-1.8-.44-2.61-.94l1.36.68-2.66-2.1,2.51,2.78.09-.06-.26.04c.33,0,.6.2.88.36.23.06.35-.02.37-.26-.07-.43-.24-.82-.53-1.17-.43-.69-.9-1.35-1.39-2-.22-.39-.53-.69-.91-.91Z"/>
        <path class="cls-4" d="M68.09,61.76c-.38-.22-.79-.43-1.25-.35l-.46.2c-.21.11-.36.28-.44.51-.18.17-.28.37-.28.61l.72,1.86.65,1.4c.22.59.47,1.17.75,1.74.17.48.43.9.78,1.28.37.6.87,1.08,1.48,1.44.5.34,1.34.06,1.9-.04.94-.16,1.89-.41,2.78-.77.35-.14.75-.27,1.05-.51.39-.2.63-.5.73-.9.11-.19.18-.4.2-.62.03-.34-.02-.76-.07-1.1-.11-.78-.81-1.56-1.35-2.12-.85-.89-2.08-1.63-3.29-1.86-.77-.15-1.6.03-2.36.15l-.91.14c-.64.05-1.25.19-1.85.42l.3-.05-.7.06.86.07-.49-.12c-.34-.08-1.07-.35-1.35,0-.09.14-.12.28-.08.44.07.18.21.28.41.31.41.16.78.26,1.22.27.68.02,1.28-.13,1.94-.28h-.7c1.05.09,2.01.2,3.04.4l-.21-.06,1.04.41-.19-.13c.53.42,1.07.82,1.62,1.21,1.15.45,1.45,1.31.9,2.58l.15-.12c-1.35.65-2.73,1.11-4.2,1.44l.29.07c-.55-.3-.99-.72-1.3-1.25-1.1-1.37-1.59-3.02-1.46-4.95l-.15.18c.2-.14.43-.19.67-.14l-.27-.04c.37.09.68.25,1.01.43.41.22.67-.18.54-.54-.22-.33-.47-.63-.77-.9-.27-.29-.58-.54-.91-.76Z"/>
        <path class="cls-4" d="M64.77,63.01c-.16-.09-.33-.21-.52-.23-.28-.03-.55.03-.8.15-.4.15-.67.44-.83.89l-.1.22c.09.43.22.85.38,1.25.21.85.57,1.63,1.08,2.36.32.56.71,1.27,1.1,1.78l.88,1.07c.43.55.97.78,1.6.68,1.03.02,2.06-.05,3.09-.14.5-.03.99-.09,1.48-.18.23,0,.44-.05.64-.15l.75-.49c.1-.2.16-.41.18-.63.08-.23.12-.46.12-.7l-.09-.96c-.06-.48-.35-1.16-.54-1.49-.43-.75-1.01-1.54-1.64-2.12l-.94-.79c-.2-.16-.43-.27-.69-.33-.22-.13-.46-.22-.71-.27l-1.04.05c-.45.05-.94.23-1.37.4-.69.27-1.38.67-2.03,1.01l.22-.11c-.45.25-.93.39-1.43.4l1.78.3c-.56-.16-1.13-.31-1.69-.46-.26-.11-.51-.1-.76.01-.14.11-.19.26-.13.43.14.23.35.38.62.43.86.36,1.77.48,2.73.34.26-.12.51-.26.76-.4.3-.28.63-.55.97-.79.42-.31.88-.5,1.39-.59l-.4-.02c1.18.32,2.08.99,2.7,1.99.67.61,1.11,1.35,1.33,2.23l-.11-.44-1.26,2.23c-.56.07-1.11.11-1.67.12-.89.03-1.76.02-2.65-.04l.16.12c-.61-.4-1.06-.93-1.35-1.6-.25-.22-.52-.43-.8-.62l.26.3-.44-2.36-.1.22.32-.47-.14.2.19-.09-.24.03c.13-.01.24.02.34.1l-.25-.17c.08.06.17.12.25.18.14.1.3.24.49.16.29-.13.2-.5.14-.73-.13-.45-.32-.88-.53-1.31-.18-.36-.34-.76-.7-.97Z"/>
        <path class="cls-4" d="M65.57,65.18c-.43-.15-.86-.27-1.31-.11-.36.13-.58.32-.79.64-.15.22-.31.39-.34.65.27,1.06.67,2.07,1.21,3.02l.67,1.55c.37.78.86,1.47,1.48,2.06.42.57.97.98,1.64,1.23.59.32,1.39.08,2.03,0,.9-.13,1.79-.32,2.66-.59.32-.1.66-.19.96-.35.69-.37.95-.76.94-1.6,0-.46-.03-.94-.17-1.38-.19-.61-.51-1.15-.85-1.68-.54-.84-1.2-1.6-1.97-2.24-1.13-.92-1.3-.72-2.64-.65-.3,0-.6.06-.89.16-.66.12-1.3.29-1.92.52l-1.23.41c-.5.23-1.01.44-1.52.64l.17-.05-.37-.06c-.31-.05-.64.26-.59.55.03.18.17.34.28.47.15.17.24.24.47.22.17,0,.34-.02.5-.08.47-.24.89-.56,1.26-.95l-.33.21c.87-.29,1.74-.57,2.62-.85,1.12-.47,2.26-.45,3.42.05.99.62,1.72,1.45,2.2,2.48.42,1,.45,1.99.08,2.96l.07-.17-.64.4.2-.1c-.57.17-1.15.3-1.75.39l.21-.03c-1.11.15-2.73.57-3.71-.28l-.8-.93c-1.39-1.39-2.19-3.13-2.4-5.21l-.15.38c.18-.46.45-.62.81-.49l-.18-.04c.13.05.25.09.38.14.24.09.62-.02.71-.29.07-.22-.17-.91-.41-.99Z"/>
        <path class="cls-4" d="M68.81,64c-.43-.2-.91-.41-1.38-.19-.42.2-.82.5-.9,1.01-.1.32,0,.63.29.93.27.8.64,1.56,1.13,2.26.43.73.85,1.49,1.35,2.18.32.54.75.91,1.31,1.13.19.17.4.27.63.29.36.08.75,0,1.12-.06.68-.1,1.35-.32,1.99-.55.55-.2,1.29-.43,1.71-.84.25-.24.35-.62.41-.96.12-.69-.2-1.12-.5-1.64-.28-.48-.63-.88-1.08-1.23s-.9-.59-1.4-.81c-.81-.36-1.55-.5-2.44-.33-.48.09-.95.23-1.43.32-.3.04-.61.08-.91.12-.43.09-.86.09-1.29,0l1.55.36-1.2-.46c-.32-.12-1.01-.41-1.27-.04s.12.6.42.74c.59.28,1.16.52,1.81.63s1.34.16,2.03.17l-.96-.29c.59.2,1.15.49,1.65.85l-.2-.15.49.54-.2-.73.05.54c.03.26.13.55.46.46.19-.1.38-.1.57-.01l-.2-.14.34.34-.15-.42-.02.48.08-.23-.19.22.34-.12c-.77.18-.72.09-1.23.44l.21-.11-.41.16.23-.07-.48.08.24-.02h-.5c.08,0,.16,0,.23.02l-.4-.06.21.1c-.7-.97-1.9-1.51-1.96-3l-.23.38.43-.26-.21.11c.17-.03.33-.02.49.04l-.27-.08c.22.08.42.17.63.26.4.17.71-.04.59-.49-.19-.36-.43-.69-.7-1-.25-.32-.54-.61-.85-.87Z"/>
        <path class="cls-4" d="M65.69,62.49c-.51-.38-1.09-.33-1.61,0-1.25.77-.27,2.23.17,3.09.27.53.59,1.07.93,1.56.35.44.7.88,1.06,1.3.32.38.63.76.94,1.14.23.23.56.47.85.6.23.11.46.12.72.06.47,0,.94-.02,1.41-.08.79-.07,1.57-.16,2.33-.36.28-.03.52-.13.74-.31.19-.08.36-.19.49-.35l.3-.71c.04-.2.05-.4.02-.61-.01-.64-.06-.77-.37-1.48-.18-.42-.46-.79-.76-1.14-.5-.59-1.17-1.28-1.84-1.63l-1.13-.48c-.23-.04-.46-.05-.7-.02-1.5.05-2.9.78-4.32,1.2l.32-.07h-.64c.97.26,1.93.52,2.9.77l-.36-.18c-.47-.22-.96-.4-1.46-.54-.5-.16-1-.28-1.52-.35-.23-.03-.4.05-.5.25-.02.22.07.38.29.48.34.22.65.4,1.03.54.54.19,1.14.35,1.71.45.34.06.72.13,1.07.12.31,0,.62-.09.93-.14.22-.03.42-.06.64-.06.3,0,.57.11.84.23.24.1.47.2.72.29.84.32,2.05,1.2,1.36,2.43l.14-.14-.62.31c-.27.05-.54.09-.81.11-.67.06-1.32.07-1.99.08h.19c-.3-.02-.6-.05-.9-.08l.18.07-.48-.45.14.14c-.04-.4-.19-.71-.46-.93-.44-.38-.78-.86-.99-1.44l-.03.23c.05-.19.16-.33.33-.42l-.25.05c.22-.05.4,0,.56.13l-.32-.22c.12.09.5.43.6.44.3.03.4-.14.36-.43-.08-.58-.59-1.33-.87-1.78l-.57-.89c-.17-.36-.43-.63-.77-.82Z"/>
        <path class="cls-4" d="M67.24,62.82c-.18-.1-.37-.25-.58-.26-.29-.03-.56.03-.81.17-.23.09-.38.26-.45.52-.19.19-.28.41-.26.66l.89,1.88c.53.92,1.17,1.77,1.92,2.53l-.15-.18c.27.55.66.94,1.19,1.19.37.27.79.41,1.26.42.68,0,1.35-.2,2-.37.54-.14,1.07-.29,1.59-.5.63-.25.91-.37.94-1.11.05-1.53-1.1-2.62-2.24-3.44-.45-.42-.97-.65-1.56-.69-.54-.17-1.07-.14-1.6.1-.82.32-1.52.85-2.26,1.31l.23-.1h-1.27c1.3.66,2.6,1.32,3.89,1.98l-.21-.45c-.16-.34-.65-.54-.95-.71-.76-.42-1.57-.8-2.38-1.09-.26-.09-.63-.26-.88-.08-.27.19.02.47.19.63.28.35.62.62,1.03.82.46.27.94.52,1.43.74.38.2.78.37,1.19.51.54.11,1.07.08,1.6-.11l-.33.03.71.07-.31-.06.19.11-.03-.45-.1.28,1.06-.29c-.6-.05-.95-.07-1.51.03l.23-.04-.41-.03.24.02c-.34-.17-.68-.17-1.03,0l.24.06-.62-.34.29.37v-.41c-.1.1-.21.21-.32.31.25.03.39.1.6.23l-.4-.25c.11.07.21.15.32.22l.4.25.27-.02.09-.25c-.06-.31-.2-.59-.4-.83-.44-.68-.94-1.31-1.45-1.94-.43-.52-.84-1.1-1.44-1.43Z"/>
        <path class="cls-4" d="M68.35,65.2c-.3-.18-.59-.36-.94-.43-.29-.08-.56-.05-.83.09-.33.13-.59.37-.76.72-.1.14-.11.28-.04.44.15.55.37,1.08.64,1.58.43.79.87,1.58,1.3,2.37.66,1.09,1.62,2.7,3.1,2.74,1.2.04,2.45-.28,3.57-.7.48-.16.92-.39,1.34-.69.16-.16.24-.36.24-.6.16-.47.13-.93-.11-1.41-.19-.33-.38-.65-.58-.97-.24-.27-.5-.52-.77-.76-.49-.4-1.04-.7-1.63-.92-.26-.18-.53-.28-.83-.3-.65-.11-1.3-.15-1.96-.12-.59,0-1.19,0-1.78.01-.56.22-1.14.33-1.74.33l.33.03-.59-.16c-.17-.05-.36-.11-.52,0s-.23.33-.17.51c.07.21.29.31.47.42.28.16.59.32.92.35.4.09.79.1,1.19.02.44-.03.87-.12,1.29-.26l-.33-.04c.74.19,1.46.38,2.19.62l-.2-.09.87.5-.17-.16c.38.69.29.69,1.01.73l-.23-.05.22.15-.11-.2.2.51-.04-.23-.09.62.04-.24-.31.34.29-.15-.86.34,1.02-.05c-.64-.07-.88-.12-1.41-.03h.32c-.73,0-1.39-.1-2.11-.23l.22.07c-.44-.5-.86-1.01-1.27-1.52-.73-.46-1.11-1.07-1.15-1.85l-.26.37.45-.3-.21.1h.3c-.08-.03-.15-.05-.23-.07l.56.15-.23-.06c.28.13.55.28.82.44.33.19.66-.08.63-.43-.11-.3-.26-.58-.45-.83-.17-.27-.38-.51-.62-.72Z"/>
        <path class="cls-4" d="M64.63,63.96c-.49-.23-1.09-.29-1.55.07-.13.15-.26.3-.38.46-.14.14-.25.3-.34.48.03.42.14.83.33,1.22.2.87.57,1.66,1.1,2.39.38.67.85,1.37,1.31,1.97.35.63.83,1.09,1.46,1.4.2.25.44.36.72.33,1.12.02,2.21-.08,3.32-.25.37-.06,1.35-.2,1.73-.35s.88-.27,1.03-.68c.25-.65.31-1.36.17-2.05-.1-.5-.29-.99-.54-1.43-.43-.75-.89-1.42-1.5-2.04s-1.21-1.06-2.1-1.33c-.42-.13-.88-.08-1.32-.03-.63.08-1.21.27-1.8.49-.51.18-1.02.38-1.52.6-.42.26-.87.4-1.35.44l1.07.18c-.46-.17-.93-.3-1.42-.38-.2,0-.33.08-.41.25-.21.55.87.84,1.16.95.61.29,1.26.33,1.93.09.26-.11.49-.26.7-.45.38-.24.77-.46,1.17-.66.5-.27,1.04-.42,1.61-.46l-.4-.03,1.19.54-.16-.09c.48.27.91.6,1.27,1.01,1.1.95,1.51,2.3,1.23,4.02l.23-.25-1.42.52c-.51.08-1.01.13-1.52.16-.79.05-1.57.06-2.36.03l.16.13c-.58-.37-1.04-.85-1.36-1.47-.55-.57-1.06-1.18-1.52-1.83l.13.37-.22-1.17.03.2v-.58c-.03.07-.07.14-.1.21l.32-.52-.16.18.19-.13-.24.03.43-.03-.24.02c.17.05.3.12.46.2.18.04.32-.01.42-.16.1-.24.09-.49-.03-.73-.13-.43-.29-.85-.48-1.25-.07-.26-.23-.45-.47-.57Z"/>
      </g>
      <g>
        <path class="cls-4" d="M37.78,59.35c-.44-.16-.91-.31-1.37-.13s-.7.41-.98.87-.02.67.21,1.26c.23.69.53,1.35.87,1.98.2.55.46,1.08.77,1.56.31.54.63,1.07,1.03,1.54.7.81.99,1.11,2.01,1.46.25.11.51.12.78.04.56,0,1.12-.08,1.67-.23.82-.19,1.67-.38,2.43-.76l.67-.37c.22-.12.33-.32.33-.6.09-.21.15-.44.18-.67l-.12-1.09c-.23-.69-.57-1.33-1.02-1.9l-.6-.72c-.13-.16-.28-.3-.44-.43-.4-.39-.84-.73-1.31-1.03-.26-.04-.52-.05-.78-.04-.26-.03-.52-.03-.78,0l-1.21.14c-.85.16-1.7.33-2.55.53l-.93.46c-.4.22-.83.31-1.27.27-.3,0-.65.19-.6.54.02.17.15.34.26.47.14.17.23.25.45.23.42.02.81-.06,1.18-.24.52-.16,1-.39,1.46-.67l1.02-.2c.8-.19,1.61-.31,2.43-.38l-.18.02,1.34.06-.18-.02c.37.39.77.76,1.19,1.09l-.12-.14.51.71c.22.36.31.74.29,1.15.06.28.03.54-.11.79-.09.42-.3.78-.62,1.07l.6-.24c-.57.11-1.13.24-1.7.3-.63.07-1.24.08-1.87.08l.22.02-.86-.08.21.07-.72-.35.17.11c-1.59-1.57-2.84-2.8-3.17-5.41l-.13.38.44-.48-.38.25.59-.13-.19-.04c.26.06.49.14.73.24s.62-.08.67-.36c.05-.26-.29-.93-.54-1.02Z"/>
        <path class="cls-4" d="M36.76,58.67c-.22-.1-.41-.2-.66-.2-.15,0-.3,0-.45.01-.46.12-.81.4-1.04.85-.13.21-.11.42.05.63.15.61.38,1.19.68,1.74.48.93,1.07,1.79,1.77,2.57.51.61.93,1.24,1.78,1.38,1.53.25,3.03-.45,4.41-1.04.34-.02.57-.16.71-.42l.11-.64c.07-.89-.59-1.9-1.17-2.49l-.75-.68c-.47-.41-.99-.71-1.58-.91-.37-.2-.78-.2-1.22-.02-.63.16-1.24.37-1.83.64l.23-.09c-.4.16-.82.29-1.24.38-.33.11-.66.13-1,.07l3.67,1.65-.98-.63c-.63-.37-1.28-.7-1.95-1.01-.28-.2-.59-.3-.92-.3-.16-.05-.3-.01-.41.13-.05.24.04.43.26.57.89.69,1.91,1.23,2.95,1.67.64.27,1.14.37,1.82.38l.22-.12.06-.37-.39.23.31-.04-.24-.03c.17.08.29.2.48.21.11,0,.21-.01.31-.05.18-.08.37-.07.56.02l-.19-.13.44.36-.15-.18.07.28.03-.23-.15.25.24-.14-.67.22,1.59.15-1.67-.4.53.15-.84-.23.25.11c-.22-.09-.42-.2-.62-.33-.15-.11-.3-.11-.45,0l-1.8,2.09,2.16-1.41-1.04-.22.24.09c-.63-.24-1.2-.59-1.7-1.05l.42.35-1.43-1.64,1.22,2.11.17-.43-.12.23.13-.06h-.26c.24.03.39.14.59.26.21.08.34.02.4-.19.02-.4-.07-.78-.28-1.13-.29-.68-.6-1.34-.95-1.98-.14-.39-.38-.69-.7-.93Z"/>
        <path class="cls-4" d="M37.69,55.88c-.37-.24-.79-.5-1.25-.44-.55.07-1.09.62-1.23,1.11l-.05.24c.32.97.71,1.9,1.18,2.8.28.57.56,1.13.84,1.7l.48,1.01c.42.77.68,1.06,1.26,1.55.16.19.35.33.57.44l1.19-.06c.61-.08,1.21-.2,1.8-.37.56-.13,1.11-.29,1.66-.48.58-.21,1.27-.41,1.67-.92.17-.22.31-.52.4-.79.25-.75-.08-1.52-.39-2.19-.1-.24-.25-.46-.43-.65-.36-.53-.8-.99-1.32-1.38l-1.12-.74c-.57-.35-1.18-.49-1.82-.42-.42-.04-.83,0-1.24.12-.51.08-1,.21-1.48.39l-.99.28c-.46.22-.95.32-1.46.3l2.04.3-.81-.29c-.41-.12-.82-.2-1.24-.26-.21-.07-.4-.06-.57.04-.28.13-.35.53-.03.69.3.16.58.31.91.4.45.12.95.19,1.42.17.35-.01.68-.02,1.03-.11.56-.14,1.19-.14,1.76-.18h-.23c.32.03.64.04.96.06l-.22-.05c.45.05.87.17,1.27.37.94.39,1.79.95,2.54,1.68l-.26-.37.52,1.73.04-.45-.26.72.23-.33c-.41.39-.88.66-1.43.82-.47.18-.94.33-1.43.46-.5.15-1.01.28-1.52.38-1.65-.58-2.67-1.71-3.05-3.4l.08.44.29-1.9-.19.14.51-.27-.22.1h.26c-.1-.04-.2-.08-.31-.12l.55.19-.3-.12c.21.12.39.25.58.38.17.15.35.17.54.06.14-.16.16-.34.06-.54-.24-.43-.51-.83-.82-1.2-.29-.39-.62-.75-.98-1.07Z"/>
        <path class="cls-4" d="M38.76,58.66c-.25-.13-.45-.24-.74-.24-.14,0-.28,0-.42.03-.44.14-.75.43-.93.87l-.05.26c.38,1.12.93,2.13,1.67,3.05.57.67,1.12,1.36,1.66,2.05.44.37.94.6,1.49.67.26.13.51.16.78.08.32,0,.63-.08.91-.22.34-.12.66-.27.96-.46.34-.19.66-.39.98-.6.39-.19.72-.45,1.01-.77.05-.34.05-.67,0-1l-.28-.9c-.39-.68-.92-1.2-1.61-1.57-.57-.31-1.16-.56-1.78-.75-.44-.12-.91-.17-1.36-.12-1.11.14-1.94,1.1-2.76,1.76l.25-.05-1.07.03,3.62,2.66-.1-.43-.23-.35-.61-.51c-.69-.54-1.45-1.04-2.22-1.47-.24-.13-.59-.36-.87-.22-.3.15-.05.47.09.66.71.96,1.91,1.73,2.78,2.43-.15-.12,1.1.94,1.23.49.44-1.55.89-3.09,1.33-4.64l-2.79,3.1,2.16-1.37-1.48.85,2.21-.79-1.92.38,4.71,1.77-3.95-2.99.33,4.56,1.09-3.42-1.65,2.56,1.89-2.27-2.5.8,1.33-.35c-.93-.12-1.8-.44-2.61-.94l1.36.68-2.66-2.1,2.51,2.78.09-.06-.26.04c.33,0,.6.2.88.36.23.06.35-.02.37-.26-.07-.43-.24-.82-.53-1.17-.43-.69-.9-1.35-1.39-2-.22-.39-.53-.69-.91-.91Z"/>
        <path class="cls-4" d="M39.03,55.78c-.38-.22-.79-.43-1.25-.35l-.46.2c-.21.11-.36.28-.44.51-.18.17-.28.37-.28.61l.72,1.86.65,1.4c.22.59.47,1.17.75,1.74.17.48.43.9.78,1.28.37.6.87,1.08,1.48,1.44.5.34,1.34.06,1.9-.04.94-.16,1.89-.41,2.78-.77.35-.14.75-.27,1.05-.51.39-.2.63-.5.73-.9.11-.19.18-.4.2-.62.03-.34-.02-.76-.07-1.1-.11-.78-.81-1.56-1.35-2.12-.85-.89-2.08-1.63-3.29-1.86-.77-.15-1.6.03-2.36.15l-.91.14c-.64.05-1.25.19-1.85.42l.3-.05-.7.06.86.07-.49-.12c-.34-.08-1.07-.35-1.35,0-.09.14-.12.28-.08.44.07.18.21.28.41.31.41.16.78.26,1.22.27.68.02,1.28-.13,1.94-.28h-.7c1.05.09,2.01.2,3.04.4l-.21-.06,1.04.41-.19-.13c.53.42,1.07.82,1.62,1.21,1.15.45,1.45,1.31.9,2.58l.15-.12c-1.35.65-2.73,1.11-4.2,1.44l.29.07c-.55-.3-.99-.72-1.3-1.25-1.1-1.37-1.59-3.02-1.46-4.95l-.15.18c.2-.14.43-.19.67-.14l-.27-.04c.37.09.68.25,1.01.43.41.22.67-.18.54-.54-.22-.33-.47-.63-.77-.9-.27-.29-.58-.54-.91-.76Z"/>
        <path class="cls-4" d="M35.71,57.03c-.16-.09-.33-.21-.52-.23-.28-.03-.55.03-.8.15-.4.15-.67.44-.83.89l-.1.22c.09.43.22.85.38,1.25.21.85.57,1.63,1.08,2.36.32.56.71,1.27,1.1,1.78l.88,1.07c.43.55.97.78,1.6.68,1.03.02,2.06-.05,3.09-.14.5-.03.99-.09,1.48-.18.23,0,.44-.05.64-.15l.75-.49c.1-.2.16-.41.18-.63.08-.23.12-.46.12-.7l-.09-.96c-.06-.48-.35-1.16-.54-1.49-.43-.75-1.01-1.54-1.64-2.12l-.94-.79c-.2-.16-.43-.27-.69-.33-.22-.13-.46-.22-.71-.27l-1.04.05c-.45.05-.94.23-1.37.4-.69.27-1.38.67-2.03,1.01l.22-.11c-.45.25-.93.39-1.43.4l1.78.3c-.56-.16-1.13-.31-1.69-.46-.26-.11-.51-.1-.76.01-.14.11-.19.26-.13.43.14.23.35.38.62.43.86.36,1.77.48,2.73.34.26-.12.51-.26.76-.4.3-.28.63-.55.97-.79.42-.31.88-.5,1.39-.59l-.4-.02c1.18.32,2.08.99,2.7,1.99.67.61,1.11,1.35,1.33,2.23l-.11-.44-1.26,2.23c-.56.07-1.11.11-1.67.12-.89.03-1.76.02-2.65-.04l.16.12c-.61-.4-1.06-.93-1.35-1.6-.25-.22-.52-.43-.8-.62l.26.3-.44-2.36-.1.22.32-.47-.14.2.19-.09-.24.03c.13-.01.24.02.34.1l-.25-.17c.08.06.17.12.25.18.14.1.3.24.49.16.29-.13.2-.5.14-.73-.13-.45-.32-.88-.53-1.31-.18-.36-.34-.76-.7-.97Z"/>
        <path class="cls-4" d="M36.51,59.2c-.43-.15-.86-.27-1.31-.11-.36.13-.58.32-.79.64-.15.22-.31.39-.34.65.27,1.06.67,2.07,1.21,3.02l.67,1.55c.37.78.86,1.47,1.48,2.06.42.57.97.98,1.64,1.23.59.32,1.39.08,2.03,0,.9-.13,1.79-.32,2.66-.59.32-.1.66-.19.96-.35.69-.37.95-.76.94-1.6,0-.46-.03-.94-.17-1.38-.19-.61-.51-1.15-.85-1.68-.54-.84-1.2-1.6-1.97-2.24-1.13-.92-1.3-.72-2.64-.65-.3,0-.6.06-.89.16-.66.12-1.3.29-1.92.52l-1.23.41c-.5.23-1.01.44-1.52.64l.17-.05-.37-.06c-.31-.05-.64.26-.59.55.03.18.17.34.28.47.15.17.24.24.47.22.17,0,.34-.02.5-.08.47-.24.89-.56,1.26-.95l-.33.21c.87-.29,1.74-.57,2.62-.85,1.12-.47,2.26-.45,3.42.05.99.62,1.72,1.45,2.2,2.48.42,1,.45,1.99.08,2.96l.07-.17-.64.4.2-.1c-.57.17-1.15.3-1.75.39l.21-.03c-1.11.15-2.73.57-3.71-.28l-.8-.93c-1.39-1.39-2.19-3.13-2.4-5.21l-.15.38c.18-.46.45-.62.81-.49l-.18-.04c.13.05.25.09.38.14.24.09.62-.02.71-.29.07-.22-.17-.91-.41-.99Z"/>
        <path class="cls-4" d="M39.74,58.02c-.43-.2-.91-.41-1.38-.19-.42.2-.82.5-.9,1.01-.1.32,0,.63.29.93.27.8.64,1.56,1.13,2.26.43.73.85,1.49,1.35,2.18.32.54.75.91,1.31,1.13.19.17.4.27.63.29.36.08.75,0,1.12-.06.68-.1,1.35-.32,1.99-.55.55-.2,1.29-.43,1.71-.84.25-.24.35-.62.41-.96.12-.69-.2-1.12-.5-1.64-.28-.48-.63-.88-1.08-1.23s-.9-.59-1.4-.81c-.81-.36-1.55-.5-2.44-.33-.48.09-.95.23-1.43.32-.3.04-.61.08-.91.12-.43.09-.86.09-1.29,0l1.55.36-1.2-.46c-.32-.12-1.01-.41-1.27-.04s.12.6.42.74c.59.28,1.16.52,1.81.63s1.34.16,2.03.17l-.96-.29c.59.2,1.15.49,1.65.85l-.2-.15.49.54-.2-.73.05.54c.03.26.13.55.46.46.19-.1.38-.1.57-.01l-.2-.14.34.34-.15-.42-.02.48.08-.23-.19.22.34-.12c-.77.18-.72.09-1.23.44l.21-.11-.41.16.23-.07-.48.08.24-.02h-.5c.08,0,.16,0,.23.02l-.4-.06.21.1c-.7-.97-1.9-1.52-1.96-3l-.23.38.43-.26-.21.11c.17-.03.33-.02.49.04l-.27-.08c.22.08.42.17.63.26.4.17.71-.04.59-.49-.19-.36-.43-.69-.7-1-.25-.32-.54-.61-.85-.87Z"/>
        <path class="cls-4" d="M36.63,56.51c-.51-.38-1.09-.33-1.61,0-1.25.77-.27,2.23.17,3.09.27.53.59,1.07.93,1.56.35.44.7.88,1.06,1.3.32.38.63.76.94,1.13.23.23.56.47.85.6.23.11.46.12.72.06.47,0,.94-.02,1.41-.08.79-.07,1.57-.16,2.33-.36.28-.03.52-.13.74-.31.19-.08.36-.19.49-.35l.3-.71c.04-.2.05-.4.02-.61-.01-.64-.06-.77-.37-1.48-.18-.42-.46-.79-.76-1.14-.5-.59-1.17-1.28-1.84-1.63l-1.13-.48c-.23-.04-.46-.05-.7-.02-1.5.05-2.9.78-4.32,1.2l.32-.07h-.64c.97.26,1.93.52,2.9.77l-.36-.18c-.47-.22-.96-.4-1.46-.54-.5-.16-1-.28-1.52-.35-.23-.03-.4.05-.5.25-.02.22.07.38.29.48.34.22.65.4,1.03.54.54.19,1.14.35,1.71.45.34.06.72.13,1.07.12.31,0,.62-.09.93-.14.22-.03.42-.06.64-.06.3,0,.57.11.84.23.24.1.47.2.72.29.84.32,2.05,1.2,1.36,2.43l.14-.14-.62.31c-.27.05-.54.09-.81.11-.67.06-1.32.07-1.99.08h.19c-.3-.02-.6-.05-.9-.08l.18.07-.48-.45.14.14c-.04-.4-.19-.71-.46-.93-.44-.38-.78-.86-.99-1.44l-.03.23c.05-.19.16-.33.33-.42l-.25.05c.22-.05.4,0,.56.13l-.32-.22c.12.09.5.43.6.44.3.03.4-.14.36-.43-.08-.58-.59-1.33-.87-1.78l-.57-.89c-.17-.36-.43-.63-.77-.82Z"/>
        <path class="cls-4" d="M38.18,56.84c-.18-.1-.37-.25-.58-.26-.29-.03-.56.03-.81.17-.23.09-.38.26-.45.52-.19.19-.28.41-.26.66l.89,1.88c.53.92,1.17,1.77,1.92,2.53l-.15-.18c.27.55.66.94,1.19,1.19.37.27.79.41,1.26.42.68,0,1.35-.2,2-.37.54-.14,1.07-.29,1.59-.5.63-.25.91-.37.94-1.11.05-1.53-1.1-2.62-2.24-3.44-.45-.42-.97-.65-1.56-.69-.54-.17-1.07-.14-1.6.1-.82.32-1.53.85-2.26,1.31l.23-.1h-1.27c1.3.66,2.59,1.32,3.89,1.98l-.21-.45c-.16-.34-.65-.54-.95-.71-.76-.42-1.57-.8-2.38-1.09-.26-.09-.63-.26-.88-.08-.27.19.02.47.19.63.28.35.62.62,1.03.82.46.27.94.52,1.43.74.38.2.78.37,1.19.51.54.11,1.07.08,1.6-.11l-.33.03.71.07-.31-.06.19.11-.03-.45-.1.28,1.06-.29c-.6-.05-.95-.07-1.51.03l.23-.04-.41-.03.24.02c-.34-.17-.68-.17-1.03,0l.24.06-.62-.34.29.37v-.41c-.1.1-.21.21-.32.31.25.03.39.1.6.23l-.4-.25c.11.07.21.15.32.22l.4.25.27-.02.09-.25c-.06-.31-.2-.59-.4-.83-.44-.68-.94-1.31-1.45-1.94-.43-.52-.84-1.1-1.44-1.43Z"/>
        <path class="cls-4" d="M39.28,59.22c-.3-.18-.59-.36-.94-.43-.29-.08-.56-.05-.83.09-.33.13-.59.37-.76.72-.1.14-.11.28-.04.44.15.55.37,1.08.64,1.58.43.79.87,1.58,1.3,2.37.66,1.09,1.62,2.7,3.1,2.74,1.2.04,2.45-.28,3.57-.7.48-.16.92-.39,1.34-.69.16-.16.24-.36.24-.6.16-.47.13-.93-.11-1.41-.19-.33-.38-.65-.58-.97-.24-.27-.5-.52-.77-.76-.49-.4-1.04-.7-1.63-.92-.26-.18-.53-.28-.83-.3-.65-.11-1.3-.15-1.96-.12-.59,0-1.19,0-1.78.01-.56.22-1.14.33-1.74.33l.33.03-.59-.16c-.17-.05-.36-.11-.52,0s-.23.33-.17.51c.07.21.29.31.47.42.28.16.59.32.92.35.4.09.79.1,1.19.02.44-.03.87-.12,1.29-.26l-.33-.04c.74.19,1.46.38,2.19.62l-.2-.09.87.5-.17-.16c.38.69.29.69,1.01.73l-.23-.05.22.15-.11-.2.2.51-.04-.23-.09.62.04-.24-.31.34.29-.15-.86.34,1.02-.05c-.64-.07-.88-.12-1.41-.03h.32c-.73,0-1.39-.1-2.11-.23l.22.07c-.44-.5-.86-1.01-1.27-1.52-.73-.46-1.11-1.07-1.15-1.85l-.26.37.45-.3-.21.1h.3c-.08-.03-.15-.05-.23-.07l.56.15-.23-.06c.28.13.55.28.82.44.33.19.66-.08.63-.43-.11-.3-.26-.58-.45-.83-.17-.27-.38-.51-.62-.72Z"/>
        <path class="cls-4" d="M35.57,57.98c-.49-.23-1.09-.29-1.55.07-.13.15-.26.3-.38.46-.14.14-.25.3-.34.48.03.42.14.83.33,1.22.2.87.57,1.66,1.1,2.39.38.67.85,1.37,1.31,1.97.35.63.83,1.09,1.46,1.4.2.25.44.36.72.33,1.12.02,2.21-.08,3.32-.25.37-.06,1.35-.2,1.73-.35s.88-.27,1.03-.68c.25-.65.31-1.36.17-2.05-.1-.5-.29-.99-.54-1.43-.43-.75-.89-1.42-1.5-2.04s-1.21-1.06-2.1-1.33c-.42-.13-.88-.08-1.32-.03-.63.08-1.21.27-1.8.49-.51.18-1.02.38-1.52.6-.42.26-.87.4-1.35.44l1.07.18c-.46-.17-.93-.3-1.42-.38-.2,0-.33.08-.41.25-.21.55.87.84,1.16.95.61.29,1.26.33,1.93.09.26-.11.49-.26.7-.45.38-.24.77-.46,1.17-.66.5-.27,1.04-.42,1.61-.46l-.4-.03,1.19.54-.16-.09c.48.27.91.6,1.27,1.01,1.1.95,1.51,2.3,1.23,4.02l.23-.25-1.42.52c-.51.08-1.01.13-1.52.16-.79.05-1.57.06-2.36.03l.16.13c-.58-.37-1.04-.85-1.36-1.47-.55-.57-1.06-1.18-1.52-1.83l.13.37-.22-1.17.03.2v-.58c-.03.07-.07.14-.1.21l.32-.52-.16.18.19-.13-.24.03.43-.03-.24.02c.17.05.3.12.46.2.18.04.32-.01.42-.16.1-.24.09-.49-.03-.73-.13-.43-.29-.85-.48-1.25-.07-.26-.23-.45-.47-.57Z"/>
      </g>
    </g>
  </g>
</svg>