<?xml version="1.0" encoding="UTF-8"?>
<svg id="Layer_2" data-name="Layer 2" xmlns="http://www.w3.org/2000/svg" viewBox="0 0 500 176.92">
  <defs>
    <style>
      .cls-1 {
        fill: #f4c834;
      }

      .cls-1, .cls-2, .cls-3, .cls-4, .cls-5 {
        stroke-width: 0px;
      }

      .cls-2 {
        fill: #000;
      }

      .cls-3, .cls-6 {
        fill: #231f20;
      }

      .cls-4 {
        fill: #e17429;
      }

      .cls-6 {
        font-family: YANGJIN, YANGJIN;
        font-size: 96.93px;
      }

      .cls-5 {
        fill: #73bf44;
      }

      .cls-7 {
        fill: none;
        stroke: #73bf44;
        stroke-miterlimit: 10;
        stroke-width: 3px;
      }
    </style>
  </defs>
  <g id="Layer_1-2" data-name="Layer 1">
    <g>
      <path class="cls-4" d="M72.02,16.13c2.07.28,20.11.89,20.11.89l-15.22,8.55-4.89-9.44Z"/>
      <path class="cls-4" d="M73.42,17.62c1.9.88,18.95,6.79,18.95,6.79l-17.07,3.67-1.88-10.46Z"/>
      <path class="cls-1" d="M81.63,32.66C85.37,16.02,76.38-1.14,57.82.06c-6.82.55-12.91,4.76-17.18,9.89-6.17,7.79-8.79,13.23-19.15,16.02-3.58,1.11-7.14,1.48-10.57,2.76-5.12,1.97-9.18,6.47-10.61,11.56-1.02,4.15.53,7.77,3.82,12.38,11.7,16,32.42,25.16,51.58,17.35,9.83-3.98,13.19-8.2,18.47-17.61,3.3-6.1,6.11-12.9,7.42-19.57l.03-.18Z"/>
      <polygon class="cls-5" points="123.85 22.43 113.96 22.43 113.96 13.31 104.07 13.31 104.07 22.43 94.18 22.43 94.18 31.55 104.07 31.55 104.07 40.67 113.96 40.67 113.96 31.55 123.85 31.55 123.85 22.43"/>
      <circle class="cls-2" cx="70.13" cy="20.38" r="2.43"/>
      <path class="cls-7" d="M127.3,50.92c4.45,2.06,7.7,4.6,9.76,7.63,2.06,3.03,3.12,6.65,3.17,10.86.06,4.21-.8,9.04-2.56,14.49-1.76,5.45-4.24,11.62-7.43,18.52-3.4,7.35-6.72,13.62-9.95,18.8-3.23,5.18-6.52,9.23-9.88,12.14-3.35,2.91-6.88,4.62-10.57,5.12-3.69.5-7.71-.24-12.04-2.25-4.45-2.06-7.69-4.69-9.74-7.88s-3.06-7.02-3.04-11.48c.02-4.45.96-9.59,2.82-15.41,1.86-5.82,4.48-12.37,7.86-19.67,3.17-6.84,6.33-12.66,9.48-17.46,3.16-4.8,6.4-8.52,9.74-11.17,3.33-2.64,6.84-4.17,10.53-4.58,3.68-.41,7.63.37,11.85,2.32Z"/>
      <path class="cls-5" d="M105.15,89.8c-6.86-3.17-13.03-4.97-18.51-5.4-.55-.04-1.09-.06-1.63-.08-2.66,5.98-4.81,11.46-6.38,16.38-1.86,5.82-2.8,10.95-2.82,15.41-.02,4.45.99,8.28,3.04,11.48,2.05,3.2,5.3,5.83,9.74,7.88,4.33,2,8.34,2.75,12.04,2.25,3.69-.51,7.22-2.21,10.57-5.12,3.35-2.91,6.65-6.96,9.88-12.14,2.12-3.4,4.28-7.32,6.48-11.66-1.34-2.91-3.26-5.64-5.8-8.19-3.84-3.85-9.38-7.45-16.6-10.8Z"/>
      <path class="cls-3" d="M165.91,140.18c0,2.26-1.13,3.39-3.39,3.39h-8.1c-2.32,0-3.49-1.23-3.49-3.68V52.85c0-2.2,1.16-3.3,3.49-3.3h7.82c2.45,0,3.67,1.16,3.67,3.49v87.14Z"/>
      <path class="cls-3" d="M200.01,108.53c-16.01,0-24.02-9.67-24.02-29.01s8.23-30.14,24.68-30.14c15.51,0,23.27,10.05,23.27,30.14s-7.98,29.01-23.93,29.01ZM181.55,127.93c-2.39,0-3.58-1.1-3.58-3.3v-6.5c0-2.39,1.19-3.58,3.58-3.58h63.3c2.51,0,3.77,1.1,3.77,3.3v22.51c0,2.13-1.19,3.2-3.58,3.2h-7.91c-2.26,0-3.39-1.07-3.39-3.2v-12.44h-52.19ZM199.82,62.65c-6.53,0-9.8,5.65-9.8,16.96,0,10.42,3.33,15.64,9.98,15.64s9.99-5.21,9.99-15.64c0-11.31-3.39-16.96-10.17-16.96ZM243.25,62.74h6.03c1.95,0,2.92,1.22,2.92,3.67v6.41c0,2.32-1.1,3.49-3.3,3.49h-5.65v4.8h6.03c1.95,0,2.92,1.2,2.92,3.58v6.5c0,2.32-1.1,3.49-3.3,3.49h-5.65v10.36c0,2.45-1.29,3.67-3.86,3.67h-7.54c-2.58,0-3.86-1.13-3.86-3.39v-52.57c0-2.26,1.26-3.39,3.77-3.39h7.82c2.45,0,3.67,1.07,3.67,3.2v10.17Z"/>
      <path class="cls-3" d="M329.54,49.46c2.32,0,3.49,1.1,3.49,3.3v87.23c0,2.32-1.07,3.49-3.2,3.49h-8.2c-2.32,0-3.49-1.13-3.49-3.39v-7.44h-19.03c-2.26,0-3.39-1.07-3.39-3.2v-5.28c0-2.13,1.13-3.2,3.39-3.2h19.03v-5.09h-29.77v24.68c0,2.01-.88,2.98-2.64,2.92h-9.04c-2.01,0-3.02-1.04-3.02-3.11v-24.49h-10.36c-1.82,0-2.73-1-2.73-3.01v-7.44c0-2.07,1.23-3.14,3.67-3.2h53.88v-49.36c0-2.26,1.19-3.39,3.58-3.39h7.82ZM307.21,49.55c2.32,0,3.52,1.1,3.58,3.3v40.03c-.06,2.51-1.19,3.77-3.39,3.77h-42.2c-2.83,0-4.24-1.16-4.24-3.49v-40.03c0-2.39,1.32-3.58,3.96-3.58h42.3ZM275.94,83h19.97v-19.78h-19.97v19.78Z"/>
      <path class="cls-3" d="M367.12,108.53c-16.02,0-24.02-9.67-24.02-29.01s8.23-30.14,24.68-30.14c15.51,0,23.27,10.05,23.27,30.14s-7.98,29.01-23.93,29.01ZM348.66,127.93c-2.39,0-3.58-1.1-3.58-3.3v-6.5c0-2.39,1.19-3.58,3.58-3.58h63.3c2.51,0,3.77,1.1,3.77,3.3v22.51c0,2.13-1.19,3.2-3.58,3.2h-7.91c-2.26,0-3.39-1.07-3.39-3.2v-12.44h-52.19ZM366.93,62.65c-6.53,0-9.8,5.65-9.8,16.96,0,10.42,3.33,15.64,9.99,15.64s9.98-5.21,9.98-15.64c0-11.31-3.39-16.96-10.17-16.96ZM410.36,62.74h6.03c1.95,0,2.92,1.22,2.92,3.67v6.41c0,2.32-1.1,3.49-3.3,3.49h-5.65v4.8h6.03c1.95,0,2.92,1.2,2.92,3.58v6.5c0,2.32-1.1,3.49-3.3,3.49h-5.65v10.36c0,2.45-1.29,3.67-3.86,3.67h-7.54c-2.58,0-3.86-1.13-3.86-3.39v-52.57c0-2.26,1.25-3.39,3.77-3.39h7.82c2.45,0,3.67,1.07,3.67,3.2v10.17Z"/>
      <text class="cls-6" transform="translate(413.89 123.24) rotate(17.3)"><tspan x="0" y="0">?</tspan></text>
    </g>
  </g>
</svg>