<?xml version="1.0" encoding="UTF-8"?>
<svg id="Layer_2" data-name="Layer 2" xmlns="http://www.w3.org/2000/svg" viewBox="0 0 501.5 160.51">
  <defs>
    <style>
      .cls-1, .cls-2, .cls-3 {
        stroke-width: 0px;
      }

      .cls-1, .cls-4 {
        fill: #231f20;
      }

      .cls-2 {
        fill: #e17429;
      }

      .cls-3 {
        fill: #73bf44;
      }

      .cls-5 {
        fill: none;
        stroke: #73bf44;
        stroke-miterlimit: 10;
        stroke-width: 3px;
      }

      .cls-4 {
        font-family: YANGJIN, YANGJIN;
        font-size: 114.05px;
      }
    </style>
  </defs>
  <g id="Layer_1-2" data-name="Layer 1">
    <g>
      <path class="cls-2" d="M187.79,34.74c2.83.63,27.4,2.02,27.4,2.02l-20.74,19.4-6.66-21.42Z"/>
      <path class="cls-2" d="M189.7,38.12c2.59,1.99,25.82,15.41,25.82,15.41l-23.25,8.33-2.57-23.74Z"/>
      <path class="cls-5" d="M63,12.26c5.23,2.42,9.06,5.41,11.48,8.98,2.42,3.56,3.67,7.82,3.73,12.78.07,4.96-.94,10.64-3.01,17.05-2.07,6.41-4.98,13.67-8.74,21.79-4,8.65-7.9,16.02-11.7,22.12-3.8,6.1-7.67,10.86-11.62,14.28-3.95,3.42-8.09,5.43-12.44,6.03-4.35.59-9.07-.29-14.16-2.65-5.23-2.42-9.05-5.51-11.46-9.28-2.41-3.76-3.61-8.26-3.58-13.5.02-5.24,1.13-11.28,3.32-18.13,2.19-6.84,5.27-14.55,9.24-23.14,3.72-8.05,7.44-14.89,11.16-20.54,3.71-5.65,7.53-10.03,11.45-13.14,3.92-3.11,8.05-4.9,12.38-5.38,4.33-.48,8.98.43,13.94,2.73Z"/>
      <path class="cls-3" d="M36.94,58.01c-8.07-3.73-15.33-5.85-21.78-6.36-.65-.05-1.28-.07-1.92-.09-3.13,7.03-5.66,13.48-7.51,19.27-2.19,6.84-3.3,12.88-3.32,18.13-.02,5.24,1.17,9.74,3.58,13.5s6.23,6.85,11.46,9.28c5.09,2.36,9.82,3.24,14.16,2.65,4.35-.6,8.49-2.6,12.44-6.03,3.95-3.43,7.82-8.18,11.62-14.28,2.49-4,5.04-8.62,7.62-13.72-1.57-3.42-3.84-6.64-6.82-9.63-4.52-4.53-11.03-8.77-19.53-12.71Z"/>
      <path class="cls-1" d="M108.43,117.28c0,2.66-1.33,3.99-3.99,3.99h-9.53c-2.73,0-4.1-1.44-4.1-4.32V14.53c0-2.59,1.37-3.88,4.1-3.88h9.2c2.88,0,4.32,1.37,4.32,4.1v102.52Z"/>
      <path class="cls-1" d="M199.72,77.81c0,1.63-1.33,2.45-3.99,2.45h-9.53c-2.73,0-4.1-.88-4.1-2.65V14.85c0-1.58,1.37-2.38,4.1-2.38h9.2c2.88,0,4.32.84,4.32,2.51v62.83Z"/>
      <path class="cls-2" d="M389.11,34.74c2.83.63,27.4,2.02,27.4,2.02l-20.74,19.4-6.66-21.42Z"/>
      <path class="cls-2" d="M391.02,38.12c2.59,1.99,25.82,15.41,25.82,15.41l-23.25,8.33-2.57-23.74Z"/>
      <path class="cls-1" d="M401.04,77.81c0,1.63-1.33,2.45-3.99,2.45h-9.53c-2.73,0-4.1-.88-4.1-2.65V14.85c0-1.58,1.37-2.38,4.1-2.38h9.2c2.88,0,4.32.84,4.32,2.51v62.83Z"/>
      <path class="cls-1" d="M148.55,80.04c-18.84,0-28.26-11.38-28.26-34.14s9.68-35.47,29.04-35.47c18.25,0,27.38,11.82,27.38,35.47s-9.38,34.14-28.15,34.14ZM126.83,102.87c-2.81,0-4.21-1.29-4.21-3.88v-7.65c0-2.81,1.4-4.21,4.21-4.21h74.48c2.95,0,4.43,1.29,4.43,3.88v26.49c0,2.51-1.4,3.77-4.21,3.77h-9.31c-2.66,0-3.99-1.26-3.99-3.77v-14.63h-61.4ZM148.33,26.06c-7.69,0-11.53,6.65-11.53,19.95,0,12.26,3.91,18.4,11.75,18.4s11.75-6.13,11.75-18.4c0-13.3-3.99-19.95-11.97-19.95Z"/>
      <path class="cls-1" d="M300.94,10.54c2.73,0,4.1,1.29,4.1,3.88v102.63c0,2.73-1.26,4.1-3.77,4.1h-9.64c-2.73,0-4.1-1.33-4.1-3.99v-8.76h-22.39c-2.66,0-3.99-1.26-3.99-3.77v-6.21c0-2.51,1.33-3.77,3.99-3.77h22.39v-5.99h-35.02v29.04c0,2.36-1.04,3.51-3.1,3.44h-10.64c-2.37,0-3.55-1.22-3.55-3.66v-28.82h-12.19c-2.14,0-3.21-1.18-3.21-3.55v-8.76c0-2.44,1.44-3.69,4.32-3.77h63.4V14.53c0-2.66,1.4-3.99,4.21-3.99h9.2ZM274.67,10.65c2.73,0,4.14,1.29,4.21,3.88v47.1c-.07,2.96-1.4,4.43-3.99,4.43h-49.65c-3.32,0-4.99-1.37-4.99-4.1V14.87c0-2.81,1.55-4.21,4.66-4.21h49.76ZM237.88,50h23.5v-23.27h-23.5v23.27Z"/>
      <path class="cls-1" d="M345.17,80.04c-18.84,0-28.26-11.38-28.26-34.14s9.68-35.47,29.04-35.47c18.25,0,27.38,11.82,27.38,35.47s-9.38,34.14-28.15,34.14ZM323.44,102.87c-2.81,0-4.21-1.29-4.21-3.88v-7.65c0-2.81,1.4-4.21,4.21-4.21h74.48c2.95,0,4.43,1.29,4.43,3.88v26.49c0,2.51-1.4,3.77-4.21,3.77h-9.31c-2.66,0-3.99-1.26-3.99-3.77v-14.63h-61.4ZM344.94,26.06c-7.69,0-11.53,6.65-11.53,19.95,0,12.26,3.91,18.4,11.75,18.4s11.75-6.13,11.75-18.4c0-13.3-3.99-19.95-11.97-19.95Z"/>
      <text class="cls-4" transform="translate(400.18 97.34) rotate(17.3)"><tspan x="0" y="0">?</tspan></text>
    </g>
  </g>
</svg>