<svg width="46" height="46" viewBox="0 0 46 46" fill="none" xmlns="http://www.w3.org/2000/svg">
<path d="M41.75 0.5H4.25C3.25544 0.5 2.30161 0.895088 1.59835 1.59835C0.895088 2.30161 0.5 3.25544 0.5 4.25V41.75C0.5 42.7446 0.895088 43.6984 1.59835 44.4016C2.30161 45.1049 3.25544 45.5 4.25 45.5H41.75C42.7446 45.5 43.6984 45.1049 44.4016 44.4016C45.1049 43.6984 45.5 42.7446 45.5 41.75V4.25C45.5 3.25544 45.1049 2.30161 44.4016 1.59835C43.6984 0.895088 42.7446 0.5 41.75 0.5ZM36.125 24.875H24.875V36.125C24.875 36.6223 24.6775 37.0992 24.3258 37.4508C23.9742 37.8025 23.4973 38 23 38C22.5027 38 22.0258 37.8025 21.6742 37.4508C21.3225 37.0992 21.125 36.6223 21.125 36.125V24.875H9.875C9.37772 24.875 8.90081 24.6775 8.54918 24.3258C8.19754 23.9742 8 23.4973 8 23C8 22.5027 8.19754 22.0258 8.54918 21.6742C8.90081 21.3225 9.37772 21.125 9.875 21.125H21.125V9.875C21.125 9.37772 21.3225 8.90081 21.6742 8.54918C22.0258 8.19754 22.5027 8 23 8C23.4973 8 23.9742 8.19754 24.3258 8.54918C24.6775 8.90081 24.875 9.37772 24.875 9.875V21.125H36.125C36.6223 21.125 37.0992 21.3225 37.4508 21.6742C37.8025 22.0258 38 22.5027 38 23C38 23.4973 37.8025 23.9742 37.4508 24.3258C37.0992 24.6775 36.6223 24.875 36.125 24.875Z" fill="#FFBB25"/>
</svg>
