<svg width="31" height="30" viewBox="0 0 31 30" fill="current" xmlns="http://www.w3.org/2000/svg">
<g filter="url(#filter0_d_257_38)">
<path d="M3.91675 20.8375C3.91675 22.7713 5.46591 24.25 7.49175 24.25H24.1751C26.2009 24.25 27.7501 22.7713 27.7501 20.8375V11.7375H3.91675V20.8375ZM24.1751 3.775H21.7917V2.6375C21.7917 1.955 21.3151 1.5 20.6001 1.5C19.8851 1.5 19.4084 1.955 19.4084 2.6375V3.775H12.2584V2.6375C12.2584 1.955 11.7817 1.5 11.0667 1.5C10.3517 1.5 9.87508 1.955 9.87508 2.6375V3.775H7.49175C5.46591 3.775 3.91675 5.25375 3.91675 7.1875V9.4625H27.7501V7.1875C27.7501 5.25375 26.2009 3.775 24.1751 3.775Z" fill="current"/>
<path d="M21.2917 3.775V4.275H21.7917H24.1751C25.9469 4.275 27.2501 5.55156 27.2501 7.1875V8.9625H4.41675V7.1875C4.41675 5.55156 5.71988 4.275 7.49175 4.275H9.87508H10.3751V3.775V2.6375C10.3751 2.41707 10.4492 2.26881 10.548 2.17449C10.6489 2.07817 10.8161 2 11.0667 2C11.3174 2 11.4846 2.07817 11.5855 2.17449C11.6843 2.26881 11.7584 2.41707 11.7584 2.6375V3.775V4.275H12.2584H19.4084H19.9084V3.775V2.6375C19.9084 2.41707 19.9826 2.26881 20.0814 2.17449C20.1823 2.07817 20.3494 2 20.6001 2C20.8507 2 21.0179 2.07817 21.1188 2.17449C21.2176 2.26881 21.2917 2.41707 21.2917 2.6375V3.775ZM7.49175 23.75C5.71988 23.75 4.41675 22.4734 4.41675 20.8375V12.2375H27.2501V20.8375C27.2501 22.4734 25.9469 23.75 24.1751 23.75H7.49175Z" stroke="#D9D9D9"/>
</g>
<defs>
<filter id="filter0_d_257_38" x="0.916748" y="0.5" width="29.8334" height="28.75" filterUnits="userSpaceOnUse" color-interpolation-filters="sRGB">
<feFlood flood-opacity="0" result="BackgroundImageFix"/>
<feColorMatrix in="SourceAlpha" type="matrix" values="0 0 0 0 0 0 0 0 0 0 0 0 0 0 0 0 0 0 127 0" result="hardAlpha"/>
<feOffset dy="2"/>
<feGaussianBlur stdDeviation="1.5"/>
<feComposite in2="hardAlpha" operator="out"/>
<feColorMatrix type="matrix" values="0 0 0 0 0 0 0 0 0 0 0 0 0 0 0 0 0 0 0.25 0"/>
<feBlend mode="normal" in2="BackgroundImageFix" result="effect1_dropShadow_257_38"/>
<feBlend mode="normal" in="SourceGraphic" in2="effect1_dropShadow_257_38" result="shape"/>
</filter>
</defs>
</svg>
